<?xml version="1.0" encoding="UTF-8" standalone="no"?>
<!DOCTYPE svg PUBLIC "-//W3C//DTD SVG 1.1//EN" "http://www.w3.org/Graphics/SVG/1.1/DTD/svg11.dtd">
<svg width="100%" height="100%" viewBox="0 0 1024 1024" version="1.1" xmlns="http://www.w3.org/2000/svg" xmlns:xlink="http://www.w3.org/1999/xlink" xml:space="preserve" xmlns:serif="http://www.serif.com/" style="fill-rule:evenodd;clip-rule:evenodd;stroke-linecap:round;stroke-linejoin:round;">
    <g>
        <path d="M997.368,550L997.368,2.632L981.579,2.632L981.579,7.895L992.105,7.895L992.105,13.158L981.579,13.158L981.579,18.421L992.105,18.421L992.105,23.684L981.579,23.684L981.579,28.947L992.105,28.947L992.105,34.211L981.579,34.211L981.579,39.474L992.105,39.474L992.105,44.737L981.579,44.737L981.579,50L992.105,50L992.105,55.263L981.579,55.263L981.579,60.526L992.105,60.526L992.105,65.789L981.579,65.789L981.579,71.053L992.105,71.053L992.105,76.316L981.579,76.316L981.579,81.579L992.105,81.579L992.105,86.842L981.579,86.842L981.579,92.105L992.105,92.105L992.105,97.368L981.579,97.368L981.579,102.632L992.105,102.632L992.105,107.895L981.579,107.895L981.579,113.158L992.105,113.158L992.105,118.421L981.579,118.421L981.579,123.684L992.105,123.684L992.105,128.947L981.579,128.947L981.579,134.211L992.105,134.211L992.105,139.474L981.579,139.474L981.579,144.737L992.105,144.737L992.105,150L981.579,150L981.579,155.263L992.105,155.263L992.105,160.526L981.579,160.526L981.579,165.789L992.105,165.789L992.105,171.053L981.579,171.053L981.579,176.316L992.105,176.316L992.105,181.579L981.579,181.579L981.579,186.842L992.105,186.842L992.105,192.105L981.579,192.105L981.579,197.368L992.105,197.368L992.105,202.632L981.579,202.632L981.579,207.895L992.105,207.895L992.105,213.158L981.579,213.158L981.579,218.421L992.105,218.421L992.105,223.684L981.579,223.684L981.579,228.947L992.105,228.947L992.105,234.211L981.579,234.211L981.579,239.474L992.105,239.474L992.105,244.737L981.579,244.737L981.579,250L992.105,250L992.105,255.263L981.579,255.263L981.579,260.526L992.105,260.526L992.105,265.789L981.579,265.789L981.579,271.053L992.105,271.053L992.105,276.316L981.579,276.316L981.579,281.579L992.105,281.579L992.105,286.842L981.579,286.842L981.579,292.105L992.105,292.105L992.105,297.368L981.579,297.368L981.579,302.632L992.105,302.632L992.105,307.895L981.579,307.895L981.579,313.158L992.105,313.158L992.105,318.421L981.579,318.421L981.579,323.684L992.105,323.684L992.105,328.947L981.579,328.947L981.579,334.211L992.105,334.211L992.105,339.474L981.579,339.474L981.579,344.737L992.105,344.737L992.105,350L981.579,350L981.579,355.263L992.105,355.263L992.105,360.526L981.579,360.526L981.579,365.789L992.105,365.789L992.105,371.053L981.579,371.053L981.579,376.316L992.105,376.316L992.105,381.579L981.579,381.579L986.842,386.842L992.105,386.842L992.105,392.105L986.842,392.105L986.842,397.368L992.105,397.368L992.105,402.632L986.842,402.632L986.842,407.895L992.105,407.895L992.105,413.158L986.842,413.158L986.842,418.421L992.105,418.421L992.105,423.684L986.842,423.684L986.842,428.947L992.105,428.947L992.105,434.211L986.842,434.211L986.842,439.474L992.105,439.474L992.105,444.737L986.842,444.737L992.105,450L992.105,481.579" style="fill:none;fill-rule:nonzero;stroke:black;stroke-opacity:0;stroke-width:1px;"/>
    </g>
    <g>
        <path d="M265.789,439.474L265.789,655.263L281.579,655.263L281.579,650L271.053,650L271.053,644.737L281.579,644.737L281.579,639.474L271.053,639.474L271.053,634.211L281.579,634.211L281.579,628.947L271.053,628.947L271.053,623.684L281.579,623.684L281.579,618.421L271.053,618.421L271.053,613.158L281.579,613.158L281.579,607.895L271.053,607.895L271.053,602.632L281.579,602.632L281.579,597.368L271.053,597.368L271.053,592.105L281.579,592.105L281.579,586.842L271.053,586.842L271.053,581.579L281.579,581.579L281.579,576.316L271.053,576.316L271.053,571.053L281.579,571.053L281.579,565.789L271.053,565.789L271.053,560.526L281.579,560.526L281.579,555.263L271.053,555.263L271.053,550L281.579,550L281.579,544.737L271.053,544.737L271.053,539.474L281.579,539.474L281.579,534.211L271.053,534.211L271.053,528.947L281.579,528.947L281.579,523.684L271.053,523.684L271.053,518.421L281.579,518.421L281.579,513.158L271.053,513.158L271.053,507.895L276.316,507.895L276.316,502.632L271.053,502.632L271.053,497.368L276.316,497.368L276.316,492.105L271.053,492.105L271.053,486.842L276.316,486.842L276.316,481.579L271.053,481.579L271.053,476.316L276.316,476.316L276.316,471.053L271.053,471.053L271.053,465.789L276.316,465.789L276.316,460.526L271.053,460.526L271.053,455.263L276.316,455.263L276.316,450L271.053,450L271.053,444.737L276.316,444.737L276.316,439.474L271.053,439.474L271.053,434.211L265.789,434.211L265.789,428.947L271.053,428.947L271.053,423.684L265.789,423.684L265.789,418.421L271.053,418.421L271.053,413.158L265.789,413.158L265.789,407.895L271.053,407.895L271.053,402.632L265.789,402.632L265.789,397.368L271.053,397.368L271.053,392.105L265.789,392.105L265.789,344.737" style="fill:none;fill-rule:nonzero;stroke:black;stroke-opacity:0;stroke-width:1px;"/>
    </g>
    <g>
        <path d="M260.526,734.211L239.474,734.211L239.474,713.158L244.737,713.158L244.737,728.947L250,728.947L250,713.158L255.263,713.158L255.263,728.947L260.526,728.947L260.526,713.158" style="fill:none;fill-rule:nonzero;stroke:black;stroke-opacity:0;stroke-width:1px;"/>
    </g>
    <g>
        <path d="M528.947,839.474L528.947,765.789L534.211,765.789L534.211,839.474L539.474,839.474L539.474,765.789L544.737,765.789L544.737,839.474L550,839.474L550,765.789" style="fill:none;fill-rule:nonzero;stroke:black;stroke-opacity:0;stroke-width:1px;"/>
    </g>
    <g>
        <path d="M476.316,971.053L555.263,971.053L555.263,965.789L560.526,965.789L560.526,971.053L565.789,971.053L565.789,960.526L571.053,960.526L571.053,971.053L576.316,971.053L576.316,960.526" style="fill:none;fill-rule:nonzero;stroke:black;stroke-opacity:0;stroke-width:1px;"/>
    </g>
    <g>
        <path d="M523.684,128.947L523.684,107.895L518.421,107.895L518.421,128.947L513.158,128.947L513.158,107.895L507.895,107.895L507.895,128.947L502.632,128.947L502.632,107.895L497.368,102.632L497.368,81.579L492.105,81.579L492.105,102.632L486.842,102.632L486.842,81.579L481.579,81.579L481.579,102.632L476.316,102.632L476.316,81.579L471.053,81.579L471.053,128.947L465.789,128.947L465.789,81.579L460.526,81.579L460.526,128.947L455.263,128.947L455.263,81.579L450,81.579L450,128.947L444.737,134.211L444.737,181.579L439.474,181.579L439.474,134.211L434.211,134.211L434.211,181.579L428.947,181.579L428.947,134.211L423.684,134.211L423.684,181.579L418.421,186.842L418.421,207.895L413.158,207.895L413.158,186.842L407.895,186.842L407.895,207.895L402.632,207.895L402.632,186.842L397.368,186.842L397.368,207.895L392.105,213.158L392.105,234.211L386.842,234.211L386.842,213.158L381.579,213.158L381.579,234.211L376.316,234.211L376.316,213.158L371.053,213.158L371.053,234.211" style="fill:none;fill-rule:nonzero;stroke:rgb(64,32,56);stroke-width:1px;"/>
    </g>
    <g>
        <path d="M423.684,102.632L423.684,81.579L428.947,81.579L428.947,102.632L434.211,102.632L434.211,81.579L439.474,81.579L439.474,102.632L444.737,102.632L444.737,81.579" style="fill:none;fill-rule:nonzero;stroke:rgb(64,32,56);stroke-width:1px;"/>
    </g>
    <g>
        <path d="M576.316,155.263L555.263,155.263L555.263,134.211L560.526,134.211L560.526,150L565.789,150L565.789,134.211L571.053,134.211L571.053,150L576.316,150L576.316,134.211" style="fill:none;fill-rule:nonzero;stroke:rgb(64,32,56);stroke-width:1px;"/>
    </g>
    <g>
        <path d="M707.895,313.158L707.895,239.474L702.632,239.474L702.632,313.158L697.368,313.158L697.368,239.474L692.105,239.474L692.105,313.158L686.842,313.158L686.842,239.474L681.579,234.211L681.579,213.158L676.316,213.158L676.316,234.211L671.053,234.211L671.053,213.158L665.789,213.158L665.789,234.211L660.526,234.211L660.526,213.158L655.263,207.895L655.263,181.579L681.579,181.579L681.579,160.526L676.316,160.526L676.316,176.316L671.053,176.316L671.053,160.526L665.789,160.526L665.789,176.316L660.526,176.316L660.526,160.526L655.263,160.526L655.263,176.316L650,176.316L650,207.895L644.737,207.895L644.737,171.053L650,171.053L650,160.526L644.737,160.526L644.737,165.789L639.474,165.789L639.474,207.895L634.211,207.895L634.211,160.526L639.474,160.526" style="fill:none;fill-rule:nonzero;stroke:rgb(64,32,56);stroke-width:1px;"/>
    </g>
    <g>
        <path d="M344.737,313.158L344.737,292.105L365.789,292.105L365.789,297.368L350,297.368L350,302.632L365.789,302.632L365.789,307.895L350,307.895L350,313.158L365.789,313.158L371.053,318.421L418.421,318.421L418.421,323.684L371.053,323.684L371.053,328.947L418.421,328.947L418.421,334.211L371.053,334.211L371.053,339.474L418.421,339.474L418.421,344.737L397.368,344.737L397.368,350L418.421,350L418.421,355.263L397.368,355.263L397.368,360.526L418.421,360.526L418.421,365.789L397.368,365.789L397.368,371.053L418.421,371.053L418.421,376.316L397.368,376.316L397.368,381.579L418.421,381.579L418.421,386.842L397.368,386.842L397.368,392.105L418.421,392.105L423.684,397.368L444.737,397.368L444.737,402.632L423.684,402.632L423.684,407.895L444.737,407.895L444.737,413.158L423.684,413.158L423.684,418.421L444.737,418.421" style="fill:none;fill-rule:nonzero;stroke:rgb(64,32,56);stroke-width:1px;"/>
    </g>
    <g>
        <path d="M371.053,286.842L371.053,265.789L376.316,265.789L376.316,286.842L381.579,286.842L381.579,265.789L386.842,265.789L386.842,286.842L392.105,286.842L392.105,265.789" style="fill:none;fill-rule:nonzero;stroke:rgb(64,32,56);stroke-width:1px;"/>
    </g>
    <g>
        <path d="M707.895,344.737L707.895,365.789L686.842,365.789L686.842,360.526L702.632,360.526L702.632,355.263L686.842,355.263L686.842,350L702.632,350L702.632,344.737L686.842,344.737L681.579,339.474L660.526,339.474L660.526,334.211L681.579,334.211L681.579,328.947L660.526,328.947L660.526,323.684L681.579,323.684L681.579,318.421L660.526,318.421" style="fill:none;fill-rule:nonzero;stroke:rgb(64,32,56);stroke-width:1px;"/>
    </g>
    <g>
        <path d="M681.579,397.368L681.579,418.421L676.316,418.421L676.316,397.368L671.053,397.368L671.053,418.421L665.789,418.421L665.789,397.368L660.526,397.368L660.526,418.421L655.263,423.684L655.263,444.737L650,444.737L650,423.684L644.737,423.684L644.737,444.737L639.474,444.737L639.474,423.684L634.211,423.684L634.211,444.737" style="fill:none;fill-rule:nonzero;stroke:rgb(64,32,56);stroke-width:1px;"/>
    </g>
    <g>
        <path d="M239.474,813.158L265.789,813.158L265.789,865.789L292.105,865.789L292.105,892.105L318.421,892.105L318.421,918.421L365.789,918.421L365.789,913.158L323.684,913.158L323.684,907.895L365.789,907.895L365.789,902.632L323.684,902.632L323.684,897.368L365.789,897.368L365.789,892.105L323.684,892.105L323.684,886.842L297.368,886.842L297.368,881.579L328.947,881.579L328.947,886.842L371.053,886.842L371.053,892.105L392.105,892.105L392.105,886.842L376.316,886.842L376.316,881.579L334.211,881.579L334.211,876.316L297.368,876.316L297.368,871.053L339.474,871.053L339.474,876.316L381.579,876.316L381.579,881.579L392.105,881.579L392.105,876.316L386.842,876.316L386.842,871.053L344.737,871.053L339.474,865.789L297.368,865.789L297.368,860.526L271.053,860.526L271.053,855.263L302.632,855.263L302.632,860.526L339.474,860.526L339.474,855.263L307.895,855.263L307.895,850L271.053,850L271.053,844.737L313.158,844.737L313.158,850L339.474,850L339.474,844.737L318.421,844.737L318.421,839.474L271.053,839.474L271.053,834.211L323.684,834.211L323.684,839.474L339.474,839.474L339.474,834.211L328.947,834.211L328.947,828.947L271.053,828.947L271.053,823.684L334.211,823.684L334.211,828.947L339.474,828.947L339.474,818.421L271.053,818.421L271.053,813.158L313.158,813.158L313.158,807.895L239.474,807.895L239.474,802.632L313.158,802.632L313.158,797.368L239.474,797.368L239.474,792.105L313.158,792.105L313.158,786.842L239.474,786.842L239.474,781.579L313.158,781.579L313.158,776.316L239.474,776.316L239.474,771.053L313.158,771.053L313.158,765.789L239.474,765.789L239.474,760.526L260.526,760.526L260.526,755.263L239.474,755.263L239.474,750L260.526,750L260.526,744.737L239.474,744.737L239.474,739.474L260.526,739.474L265.789,734.211L365.789,734.211L365.789,728.947L265.789,728.947L265.789,723.684L365.789,723.684L365.789,718.421L265.789,718.421L265.789,713.158L365.789,713.158" style="fill:none;fill-rule:nonzero;stroke:rgb(64,32,56);stroke-width:1px;"/>
    </g>
    <g>
        <path d="M239.474,707.895L260.526,707.895L260.526,702.632L239.474,702.632L239.474,697.368L260.526,697.368L260.526,692.105L239.474,692.105L239.474,686.842L260.526,686.842L265.789,681.579L313.158,681.579L313.158,676.316L265.789,676.316L265.789,671.053L313.158,671.053L313.158,665.789L265.789,665.789L265.789,660.526L313.158,660.526L318.421,655.263L339.474,655.263L339.474,650L318.421,650L318.421,644.737L339.474,644.737L339.474,639.474L318.421,639.474L318.421,634.211L339.474,634.211L339.474,628.947L318.421,628.947L318.421,623.684L339.474,623.684L339.474,618.421L318.421,618.421L318.421,613.158L339.474,613.158L339.474,607.895L318.421,607.895L318.421,602.632L339.474,602.632L339.474,597.368L318.421,597.368L318.421,592.105L339.474,592.105L339.474,586.842L318.421,586.842L318.421,581.579L339.474,581.579L344.737,576.316L365.789,576.316L365.789,571.053L344.737,571.053L344.737,565.789L365.789,565.789L365.789,560.526L344.737,560.526L344.737,555.263L365.789,555.263L371.053,550L392.105,550L392.105,544.737L371.053,544.737L371.053,539.474L392.105,539.474L392.105,534.211L371.053,534.211L371.053,528.947L392.105,528.947" style="fill:none;fill-rule:nonzero;stroke:rgb(64,32,56);stroke-width:1px;"/>
    </g>
    <g>
        <path d="M392.105,871.053L397.368,865.789L397.368,818.421L402.632,818.421L402.632,865.789L407.895,865.789L407.895,818.421L413.158,818.421L413.158,865.789L418.421,865.789L418.421,818.421L423.684,813.158L423.684,792.105L428.947,792.105L428.947,813.158L434.211,813.158L434.211,792.105L439.474,792.105L439.474,813.158L444.737,813.158L444.737,792.105L450,792.105L450,739.474L455.263,739.474L455.263,797.368L450,797.368L450,813.158L455.263,813.158L455.263,802.632L460.526,802.632L460.526,739.474L465.789,739.474L465.789,807.895L460.526,807.895L460.526,813.158L471.053,813.158L471.053,739.474L476.316,739.474L476.316,786.842L481.579,786.842L481.579,739.474L486.842,739.474L486.842,786.842L492.105,786.842L492.105,739.474L497.368,739.474L497.368,786.842L502.632,786.842L502.632,739.474L507.895,739.474L507.895,786.842L513.158,786.842L513.158,739.474L518.421,739.474L518.421,786.842L523.684,786.842L523.684,739.474L528.947,739.474L528.947,713.158L534.211,713.158L534.211,744.737L528.947,744.737L528.947,760.526L534.211,760.526L534.211,750L539.474,750L539.474,713.158L544.737,713.158L544.737,755.263L539.474,755.263L539.474,760.526L550,760.526L550,713.158L555.263,713.158L555.263,839.474L560.526,839.474L560.526,713.158L565.789,713.158L565.789,839.474L571.053,839.474L571.053,713.158L576.316,713.158L576.316,839.474" style="fill:none;fill-rule:nonzero;stroke:rgb(64,32,56);stroke-width:1px;"/>
    </g>
    <g>
        <path d="M707.895,765.789L707.895,786.842L702.632,786.842L702.632,765.789L697.368,765.789L697.368,786.842L692.105,786.842L692.105,765.789L686.842,765.789L686.842,786.842L681.579,792.105L681.579,918.421L676.316,918.421L676.316,792.105L671.053,792.105L671.053,918.421L665.789,918.421L665.789,792.105L660.526,792.105L660.526,918.421L655.263,923.684L655.263,944.737L650,944.737L650,923.684L644.737,923.684L644.737,944.737L639.474,944.737L639.474,923.684L634.211,923.684L634.211,944.737L628.947,950L628.947,971.053L623.684,971.053L623.684,950L618.421,950L618.421,971.053L613.158,971.053L613.158,950L607.895,950L607.895,971.053L602.632,971.053L602.632,950L597.368,950L597.368,971.053L592.105,971.053L592.105,950L586.842,950L586.842,971.053L581.579,971.053L581.579,950L576.316,944.737L576.316,923.684L571.053,923.684L571.053,944.737L565.789,944.737L565.789,923.684L560.526,923.684L560.526,944.737L555.263,944.737L555.263,923.684L550,918.421L550,844.737L544.737,844.737L544.737,918.421L539.474,918.421L539.474,844.737L534.211,844.737L534.211,918.421L528.947,918.421L528.947,844.737" style="fill:none;fill-rule:nonzero;stroke:rgb(64,32,56);stroke-width:1px;"/>
    </g>
    <g>
        <path d="M813.158,686.842L813.158,707.895L807.895,707.895L807.895,686.842L802.632,686.842L802.632,707.895L797.368,707.895L797.368,686.842L792.105,686.842L792.105,707.895L786.842,713.158L786.842,734.211L781.579,734.211L781.579,713.158L776.316,713.158L776.316,734.211L771.053,734.211L771.053,713.158L765.789,713.158L765.789,734.211L760.526,734.211L760.526,713.158L755.263,713.158L755.263,734.211L750,734.211L750,713.158L744.737,713.158L744.737,734.211L739.474,734.211L739.474,713.158L734.211,713.158L734.211,734.211L728.947,734.211L728.947,713.158L723.684,713.158L723.684,734.211L718.421,734.211L718.421,713.158L713.158,713.158L713.158,734.211L707.895,734.211L707.895,655.263L760.526,655.263L760.526,634.211L755.263,634.211L755.263,650L750,650L750,634.211L744.737,634.211L744.737,650L739.474,650L739.474,634.211L734.211,634.211L734.211,650L728.947,650L728.947,628.947L734.211,628.947L734.211,581.579L728.947,581.579L728.947,623.684L723.684,623.684L723.684,650L718.421,650L718.421,618.421L723.684,618.421L723.684,581.579L718.421,581.579L718.421,613.158L713.158,613.158L713.158,650L707.895,650L707.895,634.211L702.632,634.211L702.632,734.211L697.368,734.211L697.368,634.211L692.105,634.211L692.105,734.211L686.842,734.211L686.842,634.211L681.579,634.211L681.579,655.263L676.316,655.263L676.316,634.211L671.053,634.211L671.053,655.263L665.789,655.263L665.789,634.211L660.526,634.211L660.526,655.263" style="fill:none;fill-rule:nonzero;stroke:rgb(64,32,56);stroke-width:1px;"/>
    </g>
    <g>
        <path d="M660.526,550L660.526,528.947L681.579,528.947L681.579,534.211L665.789,534.211L665.789,539.474L681.579,539.474L681.579,544.737L665.789,544.737L665.789,550L681.579,550L686.842,555.263L707.895,555.263L707.895,560.526L686.842,560.526L686.842,565.789L707.895,565.789L707.895,571.053L686.842,571.053L686.842,576.316L707.895,576.316L713.158,581.579L713.158,607.895" style="fill:none;fill-rule:nonzero;stroke:rgb(64,32,56);stroke-width:1px;"/>
    </g>
    <g>
        <path d="M786.842,681.579L765.789,681.579L765.789,660.526L771.053,660.526L771.053,676.316L776.316,676.316L776.316,660.526L781.579,660.526L781.579,676.316L786.842,676.316L786.842,660.526" style="fill:none;fill-rule:nonzero;stroke:rgb(64,32,56);stroke-width:1px;"/>
    </g>
    <g>
        <path d="M602.632,760.526L581.579,760.526L581.579,739.474L586.842,739.474L586.842,755.263L592.105,755.263L592.105,739.474L597.368,739.474L597.368,755.263L602.632,755.263L602.632,739.474" style="fill:none;fill-rule:nonzero;stroke:rgb(64,32,56);stroke-width:1px;"/>
    </g>
    <g>
        <path d="M681.579,760.526L660.526,760.526L660.526,739.474L665.789,739.474L665.789,755.263L671.053,755.263L671.053,739.474L676.316,739.474L676.316,755.263L681.579,755.263L681.579,739.474" style="fill:none;fill-rule:nonzero;stroke:rgb(64,32,56);stroke-width:1px;"/>
    </g>
    <g>
        <path d="M492.105,171.053L492.105,134.211L497.368,134.211L497.368,176.316L486.842,176.316L486.842,134.211L476.316,134.211L476.316,139.474L481.579,139.474L481.579,144.737L476.316,144.737L476.316,150L481.579,150L481.579,155.263L476.316,155.263L476.316,160.526L481.579,160.526L481.579,165.789L471.053,165.789L471.053,160.526L450,160.526L450,165.789L465.789,165.789L465.789,171.053L481.579,171.053L481.579,176.316L460.526,176.316L460.526,171.053L450,171.053L450,176.316L455.263,176.316L455.263,181.579L497.368,181.579L497.368,186.842L523.684,186.842L523.684,192.105L492.105,192.105L492.105,186.842L476.316,186.842L476.316,192.105L486.842,192.105L486.842,197.368L523.684,197.368L523.684,202.632L481.579,202.632L481.579,197.368L476.316,197.368L476.316,207.895L523.684,207.895L523.684,213.158L502.632,213.158L502.632,218.421L523.684,218.421L523.684,223.684L502.632,223.684L502.632,228.947L523.684,228.947L523.684,234.211L502.632,234.211L502.632,239.474L550,239.474L550,244.737L497.368,244.737L497.368,239.474L397.368,239.474L397.368,244.737L492.105,244.737L492.105,250L550,250L550,255.263L486.842,255.263L486.842,250L397.368,250L397.368,255.263L481.579,255.263L481.579,260.526L550,260.526L555.263,265.789L576.316,265.789L576.316,271.053L555.263,271.053L555.263,276.316L576.316,276.316L576.316,281.579L555.263,281.579L555.263,286.842L576.316,286.842L576.316,292.105L555.263,292.105L555.263,297.368L576.316,297.368L576.316,302.632L555.263,302.632L555.263,307.895L576.316,307.895L576.316,313.158L555.263,313.158L550,318.421L528.947,318.421L528.947,323.684L550,323.684L550,328.947L528.947,328.947L528.947,334.211L550,334.211L550,339.474L528.947,339.474" style="fill:none;fill-rule:nonzero;stroke:rgb(88,0,0);stroke-width:1px;"/>
    </g>
    <g>
        <path d="M655.263,339.474L655.263,318.421L628.947,318.421L628.947,265.789L607.895,265.789L607.895,271.053L623.684,271.053L623.684,276.316L607.895,276.316L607.895,281.579L623.684,281.579L623.684,286.842L607.895,286.842L607.895,292.105L623.684,292.105L623.684,297.368L607.895,297.368L607.895,302.632L623.684,302.632L623.684,307.895L607.895,307.895L607.895,313.158L623.684,313.158L623.684,318.421L607.895,318.421L607.895,323.684L650,323.684L650,328.947L607.895,328.947L607.895,334.211L650,334.211L650,339.474L607.895,339.474L607.895,344.737L628.947,344.737L628.947,350L607.895,350L607.895,355.263L628.947,355.263L628.947,360.526L607.895,360.526L607.895,365.789L628.947,365.789L634.211,371.053L655.263,371.053L655.263,376.316L634.211,376.316L634.211,381.579L655.263,381.579L655.263,386.842L634.211,386.842L634.211,392.105L655.263,392.105L655.263,397.368L634.211,397.368L634.211,402.632L655.263,402.632L655.263,407.895L634.211,407.895L634.211,413.158L655.263,413.158L655.263,418.421L634.211,418.421L628.947,423.684L602.632,423.684L602.632,371.053L581.579,371.053L581.579,376.316L597.368,376.316L597.368,381.579L581.579,381.579L581.579,386.842L597.368,386.842L597.368,392.105L581.579,392.105L581.579,397.368L597.368,397.368L597.368,402.632L576.316,402.632L576.316,397.368L555.263,397.368L555.263,402.632L571.053,402.632L571.053,407.895L597.368,407.895L597.368,413.158L565.789,413.158L565.789,407.895L555.263,407.895L555.263,413.158L560.526,413.158L560.526,418.421L597.368,418.421L597.368,423.684L581.579,423.684L581.579,428.947L628.947,428.947L628.947,434.211L581.579,434.211L581.579,439.474L628.947,439.474L628.947,444.737L581.579,444.737L576.316,450L555.263,450L555.263,455.263L576.316,455.263L576.316,460.526L555.263,460.526L555.263,465.789L576.316,465.789L576.316,471.053L555.263,471.053L550,476.316L528.947,476.316L528.947,481.579L550,481.579L550,486.842L528.947,486.842L528.947,492.105L550,492.105L550,497.368L528.947,497.368L523.684,502.632L476.316,502.632L476.316,507.895L523.684,507.895L523.684,513.158L476.316,513.158L476.316,518.421L523.684,518.421L523.684,523.684L476.316,523.684" style="fill:none;fill-rule:nonzero;stroke:rgb(88,0,0);stroke-width:1px;"/>
    </g>
    <g>
        <path d="M602.632,260.526L602.632,239.474L597.368,239.474L597.368,260.526L592.105,260.526L592.105,239.474L586.842,239.474L586.842,260.526L581.579,260.526L581.579,239.474L576.316,234.211L576.316,181.579L628.947,181.579L628.947,160.526L623.684,160.526L623.684,176.316L618.421,176.316L618.421,160.526L613.158,160.526L613.158,176.316L607.895,176.316L607.895,160.526L602.632,160.526L602.632,176.316L597.368,176.316L597.368,160.526L592.105,160.526L592.105,176.316L586.842,176.316L586.842,160.526L581.579,160.526L581.579,176.316L576.316,176.316L576.316,160.526L571.053,160.526L571.053,234.211L565.789,234.211L565.789,160.526L560.526,160.526L560.526,234.211L555.263,234.211L555.263,160.526" style="fill:none;fill-rule:nonzero;stroke:rgb(88,0,0);stroke-width:1px;"/>
    </g>
    <g>
        <path d="M628.947,234.211L607.895,234.211L607.895,213.158L613.158,213.158L613.158,228.947L618.421,228.947L618.421,213.158L623.684,213.158L623.684,228.947L628.947,228.947L628.947,213.158" style="fill:none;fill-rule:nonzero;stroke:rgb(88,0,0);stroke-width:1px;"/>
    </g>
    <g>
        <path d="M397.368,260.526L476.316,260.526L471.053,265.789L471.053,286.842L465.789,286.842L465.789,265.789L460.526,265.789L460.526,286.842L455.263,286.842L455.263,265.789L450,265.789L450,286.842L444.737,292.105L444.737,313.158L439.474,313.158L439.474,292.105L434.211,292.105L434.211,313.158L428.947,313.158L428.947,292.105L423.684,292.105L423.684,313.158" style="fill:none;fill-rule:nonzero;stroke:rgb(88,0,0);stroke-width:1px;"/>
    </g>
    <g>
        <path d="M576.316,344.737L576.316,365.789L571.053,365.789L571.053,344.737L565.789,344.737L565.789,365.789L560.526,365.789L560.526,344.737L555.263,344.737L555.263,365.789L550,371.053L550,392.105L544.737,392.105L544.737,371.053L539.474,371.053L539.474,392.105L534.211,392.105L534.211,371.053L528.947,371.053L528.947,392.105L523.684,392.105L523.684,371.053L518.421,371.053L518.421,392.105L513.158,392.105L513.158,371.053L507.895,371.053L507.895,392.105L502.632,392.105L502.632,371.053L497.368,365.789L497.368,344.737L492.105,344.737L492.105,365.789L486.842,365.789L486.842,344.737L481.579,344.737L481.579,365.789L476.316,365.789L476.316,344.737" style="fill:none;fill-rule:nonzero;stroke:rgb(88,0,0);stroke-width:1px;"/>
    </g>
    <g>
        <path d="M471.053,392.105L450,392.105L450,371.053L455.263,371.053L455.263,386.842L460.526,386.842L460.526,371.053L465.789,371.053L465.789,386.842L471.053,386.842L471.053,371.053" style="fill:none;fill-rule:nonzero;stroke:rgb(88,0,0);stroke-width:1px;"/>
    </g>
    <g>
        <path d="M471.053,497.368L450,497.368L450,476.316L455.263,476.316L455.263,492.105L460.526,492.105L460.526,476.316L465.789,476.316L465.789,492.105L471.053,492.105L471.053,476.316" style="fill:none;fill-rule:nonzero;stroke:rgb(88,0,0);stroke-width:1px;"/>
    </g>
    <g>
        <path d="M418.421,555.263L418.421,628.947L413.158,628.947L413.158,555.263L407.895,555.263L407.895,628.947L402.632,628.947L402.632,555.263L397.368,555.263L397.368,628.947L392.105,634.211L392.105,681.579L386.842,681.579L386.842,634.211L381.579,634.211L381.579,681.579L376.316,681.579L376.316,634.211L371.053,634.211L371.053,681.579L365.789,686.842L365.789,707.895L360.526,707.895L360.526,686.842L355.263,686.842L355.263,707.895L350,707.895L350,686.842L344.737,686.842L344.737,707.895" style="fill:none;fill-rule:nonzero;stroke:rgb(88,0,0);stroke-width:1px;"/>
    </g>
    <g>
        <path d="M634.211,602.632L634.211,555.263L639.474,555.263L639.474,602.632L644.737,602.632L644.737,555.263L650,555.263L650,602.632L655.263,602.632L655.263,555.263" style="fill:none;fill-rule:nonzero;stroke:rgb(88,0,0);stroke-width:1px;"/>
    </g>
    <g>
        <path d="M418.421,792.105L418.421,813.158L413.158,813.158L413.158,792.105L407.895,792.105L407.895,813.158L402.632,813.158L402.632,792.105L397.368,792.105L397.368,813.158L392.105,813.158L392.105,765.789L386.842,765.789L386.842,813.158L381.579,813.158L381.579,765.789L376.316,765.789L376.316,813.158L371.053,813.158L371.053,765.789L365.789,760.526L365.789,739.474L360.526,739.474L360.526,760.526L355.263,760.526L355.263,739.474L350,739.474L350,760.526L344.737,760.526L344.737,739.474" style="fill:none;fill-rule:nonzero;stroke:rgb(88,0,0);stroke-width:1px;"/>
    </g>
    <g>
        <path d="M707.895,760.526L686.842,760.526L686.842,739.474L692.105,739.474L692.105,755.263L697.368,755.263L697.368,739.474L702.632,739.474L702.632,755.263L707.895,755.263L707.895,739.474" style="fill:none;fill-rule:nonzero;stroke:rgb(88,0,0);stroke-width:1px;"/>
    </g>
    <g>
        <path d="M644.737,765.789L607.895,765.789L607.895,771.053L650,771.053L650,765.789L655.263,765.789L655.263,776.316L607.895,776.316L607.895,781.579L655.263,781.579L655.263,786.842L607.895,786.842L602.632,792.105L581.579,792.105L581.579,797.368L602.632,797.368L602.632,802.632L581.579,802.632L581.579,807.895L602.632,807.895L602.632,813.158L581.579,813.158" style="fill:none;fill-rule:nonzero;stroke:rgb(88,0,0);stroke-width:1px;"/>
    </g>
    <g>
        <path d="M655.263,839.474L607.895,839.474L607.895,818.421L613.158,818.421L613.158,834.211L618.421,834.211L618.421,818.421L623.684,818.421L623.684,834.211L628.947,834.211L628.947,818.421L634.211,818.421L634.211,834.211L639.474,834.211L639.474,818.421L644.737,818.421L644.737,834.211L650,834.211L650,818.421L655.263,818.421L655.263,834.211" style="fill:none;fill-rule:nonzero;stroke:rgb(88,0,0);stroke-width:1px;"/>
    </g>
    <g>
        <path d="M628.947,418.421L607.895,418.421L607.895,397.368L613.158,397.368L613.158,413.158L618.421,413.158L618.421,397.368L623.684,397.368L623.684,413.158L628.947,413.158L628.947,397.368" style="fill:none;fill-rule:nonzero;stroke:rgb(248,200,152);stroke-width:1px;"/>
    </g>
    <g>
        <path d="M497.368,423.684L497.368,450L523.684,450L523.684,471.053L518.421,471.053L518.421,455.263L513.158,455.263L513.158,471.053L507.895,471.053L507.895,455.263L502.632,455.263L502.632,471.053L497.368,471.053L497.368,455.263L492.105,455.263L492.105,423.684L486.842,423.684L486.842,460.526L492.105,460.526L492.105,471.053L486.842,471.053L486.842,465.789L481.579,465.789L481.579,423.684L476.316,423.684L476.316,471.053L481.579,471.053" style="fill:none;fill-rule:nonzero;stroke:rgb(248,200,152);stroke-width:1px;"/>
    </g>
    <g>
        <path d="M392.105,581.579L392.105,602.632L386.842,602.632L386.842,581.579L381.579,581.579L381.579,602.632L376.316,602.632L376.316,581.579L371.053,581.579L371.053,602.632L365.789,607.895L365.789,628.947L360.526,628.947L360.526,607.895L355.263,607.895L355.263,628.947L350,628.947L350,607.895L344.737,607.895L344.737,628.947" style="fill:none;fill-rule:nonzero;stroke:rgb(248,200,152);stroke-width:1px;"/>
    </g>
    <g>
        <path d="M707.895,607.895L707.895,628.947L686.842,628.947L686.842,623.684L702.632,623.684L702.632,618.421L686.842,618.421L686.842,613.158L702.632,613.158L702.632,607.895L686.842,607.895L681.579,602.632L660.526,602.632L660.526,597.368L681.579,597.368L681.579,592.105L660.526,592.105L660.526,586.842L681.579,586.842L681.579,581.579L660.526,581.579" style="fill:none;fill-rule:nonzero;stroke:rgb(248,200,152);stroke-width:1px;"/>
    </g>
    <g>
        <path d="M786.842,686.842L786.842,707.895L765.789,707.895L765.789,702.632L781.579,702.632L781.579,697.368L765.789,697.368L765.789,692.105L781.579,692.105L781.579,686.842L765.789,686.842L760.526,681.579L739.474,681.579L739.474,676.316L760.526,676.316L760.526,671.053L739.474,671.053L739.474,665.789L760.526,665.789L760.526,660.526L739.474,660.526" style="fill:none;fill-rule:nonzero;stroke:rgb(248,200,152);stroke-width:1px;"/>
    </g>
    <g>
        <path d="M286.842,707.895L265.789,707.895L265.789,686.842L271.053,686.842L271.053,702.632L276.316,702.632L276.316,686.842L281.579,686.842L281.579,702.632L286.842,702.632L286.842,686.842" style="fill:none;fill-rule:nonzero;stroke:rgb(248,200,152);stroke-width:1px;"/>
    </g>
    <g>
        <path d="M418.421,497.368L397.368,497.368L397.368,476.316L402.632,476.316L402.632,492.105L407.895,492.105L407.895,476.316L413.158,476.316L413.158,492.105L418.421,492.105L418.421,476.316" style="fill:none;fill-rule:nonzero;stroke:rgb(80,208,232);stroke-width:1px;"/>
    </g>
    <g>
        <path d="M450,602.632L450,555.263L455.263,555.263L455.263,602.632L460.526,602.632L460.526,555.263L465.789,555.263L465.789,602.632L471.053,602.632L471.053,555.263L476.316,555.263L476.316,602.632L481.579,602.632L481.579,555.263L486.842,555.263L486.842,602.632L492.105,602.632L492.105,555.263L497.368,555.263L497.368,602.632L502.632,602.632L502.632,581.579L507.895,581.579L507.895,602.632L513.158,602.632L513.158,581.579L518.421,581.579L518.421,602.632L523.684,602.632L523.684,581.579L528.947,581.579L528.947,602.632L534.211,602.632L534.211,581.579L539.474,581.579L539.474,602.632L544.737,602.632L544.737,581.579L550,581.579L550,602.632L555.263,602.632L555.263,555.263L560.526,555.263L560.526,602.632L565.789,602.632L565.789,555.263L571.053,555.263L571.053,602.632L576.316,602.632L576.316,555.263L581.579,555.263L581.579,602.632L586.842,602.632L586.842,555.263L592.105,555.263L592.105,602.632L597.368,602.632L597.368,555.263L602.632,555.263L602.632,602.632" style="fill:none;fill-rule:nonzero;stroke:rgb(80,208,232);stroke-width:1px;"/>
    </g>
    <g>
        <path d="M423.684,655.263L423.684,634.211L471.053,634.211L471.053,639.474L428.947,639.474L428.947,644.737L471.053,644.737L471.053,650L428.947,650L428.947,655.263L471.053,655.263L471.053,660.526L497.368,660.526L497.368,665.789L465.789,665.789L465.789,660.526L450,660.526L450,665.789L460.526,665.789L460.526,671.053L497.368,671.053L497.368,676.316L455.263,676.316L455.263,671.053L450,671.053L450,681.579L497.368,681.579L502.632,686.842L523.684,686.842L523.684,692.105L502.632,692.105L502.632,697.368L523.684,697.368L523.684,702.632L502.632,702.632L502.632,707.895L523.684,707.895" style="fill:none;fill-rule:nonzero;stroke:rgb(80,208,232);stroke-width:1px;"/>
    </g>
    <g>
        <path d="M550,681.579L528.947,681.579L528.947,660.526L534.211,660.526L534.211,676.316L539.474,676.316L539.474,660.526L544.737,660.526L544.737,676.316L550,676.316L550,660.526" style="fill:none;fill-rule:nonzero;stroke:rgb(80,208,232);stroke-width:1px;"/>
    </g>
    <g>
        <path d="M607.895,760.526L607.895,734.211L581.579,734.211L581.579,686.842L586.842,686.842L586.842,728.947L592.105,728.947L592.105,686.842L597.368,686.842L597.368,728.947L602.632,728.947L602.632,686.842L607.895,686.842L607.895,728.947L613.158,728.947L613.158,686.842L618.421,686.842L618.421,734.211L613.158,734.211L613.158,760.526L618.421,760.526L618.421,739.474L623.684,739.474L623.684,686.842L628.947,686.842L628.947,744.737L623.684,744.737L623.684,760.526L628.947,760.526L628.947,750L634.211,750L634.211,713.158L639.474,713.158L639.474,755.263L634.211,755.263L634.211,760.526L644.737,760.526L644.737,713.158L650,713.158L650,760.526L655.263,760.526L655.263,713.158L660.526,713.158L660.526,660.526L665.789,660.526L665.789,718.421L660.526,718.421L660.526,734.211L665.789,734.211L665.789,723.684L671.053,723.684L671.053,660.526L676.316,660.526L676.316,728.947L671.053,728.947L671.053,734.211L681.579,734.211L681.579,660.526" style="fill:none;fill-rule:nonzero;stroke:rgb(168,168,112);stroke-width:1px;"/>
    </g>
    <g>
        <path d="M392.105,707.895L371.053,707.895L371.053,686.842L376.316,686.842L376.316,702.632L381.579,702.632L381.579,686.842L386.842,686.842L386.842,702.632L392.105,702.632L392.105,686.842" style="fill:none;fill-rule:nonzero;stroke:rgb(168,168,112);stroke-width:1px;"/>
    </g>
    <g>
        <path d="M444.737,760.526L444.737,734.211L471.053,734.211L471.053,713.158L465.789,713.158L465.789,728.947L460.526,728.947L460.526,713.158L455.263,713.158L455.263,728.947L450,728.947L450,713.158L444.737,713.158L444.737,728.947L439.474,728.947L439.474,760.526L434.211,760.526L434.211,723.684L439.474,723.684L439.474,713.158L434.211,713.158L434.211,718.421L428.947,718.421L428.947,760.526L423.684,760.526L423.684,713.158L428.947,713.158" style="fill:none;fill-rule:nonzero;stroke:rgb(168,168,112);stroke-width:1px;"/>
    </g>
    <g>
        <path d="M550,207.895L550,160.526L544.737,160.526L544.737,207.895L539.474,207.895L539.474,160.526L534.211,160.526L534.211,207.895L528.947,207.895L528.947,160.526L523.684,155.263L523.684,134.211L518.421,134.211L518.421,155.263L513.158,155.263L513.158,134.211L507.895,134.211L507.895,155.263L502.632,155.263L502.632,134.211L497.368,128.947L497.368,107.895L492.105,107.895L492.105,128.947L486.842,128.947L486.842,107.895L481.579,107.895L481.579,128.947L476.316,128.947L476.316,107.895" style="fill:none;fill-rule:nonzero;stroke:rgb(248,136,0);stroke-width:1px;"/>
    </g>
    <g>
        <path d="M471.053,207.895L450,207.895L450,186.842L455.263,186.842L455.263,202.632L460.526,202.632L460.526,186.842L465.789,186.842L465.789,202.632L471.053,202.632L471.053,186.842" style="fill:none;fill-rule:nonzero;stroke:rgb(248,136,0);stroke-width:1px;"/>
    </g>
    <g>
        <path d="M602.632,207.895L581.579,207.895L581.579,186.842L586.842,186.842L586.842,202.632L592.105,202.632L592.105,186.842L597.368,186.842L597.368,202.632L602.632,202.632L602.632,186.842" style="fill:none;fill-rule:nonzero;stroke:rgb(248,136,0);stroke-width:1px;"/>
    </g>
    <g>
        <path d="M418.421,234.211L397.368,234.211L397.368,213.158L402.632,213.158L402.632,228.947L407.895,228.947L407.895,213.158L413.158,213.158L413.158,228.947L418.421,228.947L418.421,213.158" style="fill:none;fill-rule:nonzero;stroke:rgb(248,136,0);stroke-width:1px;"/>
    </g>
    <g>
        <path d="M655.263,271.053L655.263,239.474L634.211,239.474L634.211,244.737L650,244.737L650,250L634.211,250L634.211,255.263L650,255.263L650,260.526L634.211,260.526L634.211,265.789L650,265.789L650,271.053L634.211,271.053L634.211,276.316L660.526,276.316L660.526,265.789L681.579,265.789L681.579,271.053L665.789,271.053L665.789,276.316L681.579,276.316L681.579,281.579L634.211,281.579L634.211,286.842L681.579,286.842L681.579,292.105L660.526,292.105L660.526,297.368L681.579,297.368L681.579,302.632L660.526,302.632L660.526,307.895L681.579,307.895L681.579,313.158L660.526,313.158" style="fill:none;fill-rule:nonzero;stroke:rgb(248,136,0);stroke-width:1px;"/>
    </g>
    <g>
        <path d="M550,265.789L550,286.842L544.737,286.842L544.737,265.789L539.474,265.789L539.474,286.842L534.211,286.842L534.211,265.789L528.947,265.789L528.947,286.842L523.684,286.842L523.684,265.789L518.421,265.789L518.421,286.842L513.158,286.842L513.158,265.789L507.895,265.789L507.895,286.842L502.632,286.842L502.632,265.789L497.368,265.789L497.368,313.158L492.105,313.158L492.105,265.789L486.842,265.789L486.842,313.158L481.579,313.158L481.579,265.789L476.316,265.789L476.316,313.158L471.053,313.158L471.053,292.105L465.789,292.105L465.789,313.158L460.526,313.158L460.526,292.105L455.263,292.105L455.263,313.158L450,313.158L450,292.105L444.737,286.842L444.737,265.789L439.474,265.789L439.474,286.842L434.211,286.842L434.211,265.789L428.947,265.789L428.947,286.842L423.684,286.842L423.684,265.789L418.421,265.789L418.421,286.842L413.158,286.842L413.158,265.789L407.895,265.789L407.895,286.842L402.632,286.842L402.632,265.789L397.368,265.789L397.368,286.842L392.105,292.105L392.105,313.158L386.842,313.158L386.842,292.105L381.579,292.105L381.579,313.158L376.316,313.158L376.316,292.105L371.053,292.105L371.053,313.158" style="fill:none;fill-rule:nonzero;stroke:rgb(248,136,0);stroke-width:1px;"/>
    </g>
    <g>
        <path d="M581.579,365.789L581.579,339.474L555.263,339.474L555.263,318.421L560.526,318.421L560.526,334.211L565.789,334.211L565.789,318.421L571.053,318.421L571.053,334.211L576.316,334.211L576.316,318.421L581.579,318.421L581.579,334.211L586.842,334.211L586.842,365.789L592.105,365.789L592.105,328.947L586.842,328.947L586.842,313.158L581.579,313.158L581.579,292.105L586.842,292.105L586.842,307.895L592.105,307.895L592.105,323.684L597.368,323.684L597.368,365.789L602.632,365.789L602.632,318.421L597.368,318.421L597.368,302.632L592.105,302.632L592.105,292.105L597.368,292.105L597.368,297.368L602.632,297.368L602.632,313.158" style="fill:none;fill-rule:nonzero;stroke:rgb(248,136,0);stroke-width:1px;"/>
    </g>
    <g>
        <path d="M444.737,392.105L423.684,392.105L423.684,318.421L428.947,318.421L428.947,386.842L434.211,386.842L434.211,318.421L439.474,318.421L439.474,386.842L444.737,386.842L444.737,318.421" style="fill:none;fill-rule:nonzero;stroke:rgb(248,136,0);stroke-width:1px;"/>
    </g>
    <g>
        <path d="M655.263,365.789L634.211,365.789L634.211,344.737L639.474,344.737L639.474,360.526L644.737,360.526L644.737,344.737L650,344.737L650,360.526L655.263,360.526L655.263,344.737" style="fill:none;fill-rule:nonzero;stroke:rgb(248,136,0);stroke-width:1px;"/>
    </g>
    <g>
        <path d="M581.579,450L655.263,450L655.263,455.263L581.579,455.263L581.579,460.526L655.263,460.526L655.263,465.789L581.579,465.789L581.579,471.053L655.263,471.053L655.263,476.316L581.579,476.316L581.579,481.579L660.526,481.579L660.526,476.316L681.579,476.316L681.579,481.579L665.789,481.579L665.789,486.842L581.579,486.842L581.579,492.105L671.053,492.105L671.053,486.842L681.579,486.842L681.579,492.105L676.316,492.105L676.316,497.368L581.579,497.368L576.316,502.632L528.947,502.632L528.947,507.895L576.316,507.895L576.316,513.158L528.947,513.158L528.947,518.421L576.316,518.421L576.316,523.684L528.947,523.684L528.947,528.947L476.316,528.947L476.316,534.211L534.211,534.211L534.211,528.947L550,528.947L550,534.211L539.474,534.211L539.474,539.474L476.316,539.474L476.316,544.737L544.737,544.737L544.737,539.474L550,539.474L550,550L476.316,550" style="fill:none;fill-rule:nonzero;stroke:rgb(248,136,0);stroke-width:1px;"/>
    </g>
    <g>
        <path d="M471.053,523.684L450,523.684L450,502.632L455.263,502.632L455.263,518.421L460.526,518.421L460.526,502.632L465.789,502.632L465.789,518.421L471.053,518.421L471.053,502.632" style="fill:none;fill-rule:nonzero;stroke:rgb(248,136,0);stroke-width:1px;"/>
    </g>
    <g>
        <path d="M550,628.947L502.632,628.947L502.632,607.895L507.895,607.895L507.895,623.684L513.158,623.684L513.158,607.895L518.421,607.895L518.421,623.684L523.684,623.684L523.684,607.895L528.947,607.895L528.947,623.684L534.211,623.684L534.211,607.895L539.474,607.895L539.474,623.684L544.737,623.684L544.737,607.895L550,607.895L550,623.684" style="fill:none;fill-rule:nonzero;stroke:rgb(248,136,0);stroke-width:1px;"/>
    </g>
    <g>
        <path d="M286.842,760.526L265.789,760.526L265.789,739.474L271.053,739.474L271.053,755.263L276.316,755.263L276.316,739.474L281.579,739.474L281.579,755.263L286.842,755.263L286.842,739.474" style="fill:none;fill-rule:nonzero;stroke:rgb(248,136,0);stroke-width:1px;"/>
    </g>
    <g>
        <path d="M339.474,771.053L339.474,739.474L318.421,739.474L318.421,744.737L334.211,744.737L334.211,750L318.421,750L318.421,755.263L334.211,755.263L334.211,760.526L318.421,760.526L318.421,765.789L334.211,765.789L334.211,771.053L318.421,771.053L318.421,776.316L344.737,776.316L344.737,765.789L365.789,765.789L365.789,771.053L350,771.053L350,776.316L365.789,776.316L365.789,781.579L318.421,781.579L318.421,786.842L365.789,786.842L365.789,792.105L344.737,792.105L344.737,797.368L365.789,797.368L365.789,802.632L344.737,802.632L344.737,807.895L365.789,807.895L365.789,813.158L344.737,813.158" style="fill:none;fill-rule:nonzero;stroke:rgb(248,136,0);stroke-width:1px;"/>
    </g>
    <g>
        <path d="M655.263,813.158L607.895,813.158L607.895,807.895L655.263,807.895L655.263,802.632L607.895,802.632L607.895,797.368L655.263,797.368L655.263,792.105L607.895,792.105L602.632,786.842L581.579,786.842L581.579,781.579L602.632,781.579L602.632,776.316L581.579,776.316L581.579,771.053L602.632,771.053L602.632,765.789L581.579,765.789" style="fill:none;fill-rule:nonzero;stroke:rgb(248,136,0);stroke-width:1px;"/>
    </g>
    <g>
        <path d="M581.579,944.737L602.632,944.737L602.632,939.474L581.579,939.474L581.579,934.211L602.632,934.211L602.632,928.947L581.579,928.947L581.579,923.684L602.632,923.684L607.895,918.421L628.947,918.421L628.947,913.158L607.895,913.158L607.895,907.895L628.947,907.895L628.947,902.632L607.895,902.632L607.895,897.368L628.947,897.368L628.947,892.105L607.895,892.105L607.895,886.842L628.947,886.842L628.947,881.579L607.895,881.579L607.895,876.316L628.947,876.316L628.947,871.053L607.895,871.053L607.895,865.789L581.579,865.789L581.579,860.526L613.158,860.526L613.158,865.789L628.947,865.789L628.947,860.526L618.421,860.526L618.421,855.263L581.579,855.263L581.579,850L623.684,850L623.684,855.263L628.947,855.263L628.947,844.737L581.579,844.737" style="fill:none;fill-rule:nonzero;stroke:rgb(248,136,0);stroke-width:1px;"/>
    </g>
    <g>
        <path d="M576.316,918.421L555.263,918.421L555.263,897.368L560.526,897.368L560.526,913.158L565.789,913.158L565.789,897.368L571.053,897.368L571.053,913.158L576.316,913.158L576.316,897.368" style="fill:none;fill-rule:nonzero;stroke:rgb(248,136,0);stroke-width:1px;"/>
    </g>
    <g>
        <path d="M471.053,155.263L450,155.263L450,134.211L455.263,134.211L455.263,150L460.526,150L460.526,134.211L465.789,134.211L465.789,150L471.053,150L471.053,134.211" style="fill:none;fill-rule:nonzero;stroke:rgb(184,0,56);stroke-width:1px;"/>
    </g>
    <g>
        <path d="M550,134.211L550,155.263L544.737,155.263L544.737,134.211L539.474,134.211L539.474,155.263L534.211,155.263L534.211,134.211L528.947,134.211L528.947,155.263L523.684,160.526L523.684,181.579L518.421,181.579L518.421,160.526L513.158,160.526L513.158,181.579L507.895,181.579L507.895,160.526L502.632,160.526L502.632,181.579" style="fill:none;fill-rule:nonzero;stroke:rgb(184,0,56);stroke-width:1px;"/>
    </g>
    <g>
        <path d="M497.368,234.211L423.684,234.211L423.684,213.158L428.947,213.158L428.947,228.947L434.211,228.947L434.211,213.158L439.474,213.158L439.474,228.947L444.737,228.947L444.737,213.158L450,213.158L450,228.947L455.263,228.947L455.263,213.158L460.526,213.158L460.526,228.947L465.789,228.947L465.789,213.158L471.053,213.158L471.053,228.947L476.316,228.947L476.316,213.158L481.579,213.158L481.579,228.947L486.842,228.947L486.842,213.158L492.105,213.158L492.105,228.947L497.368,228.947L497.368,213.158" style="fill:none;fill-rule:nonzero;stroke:rgb(184,0,56);stroke-width:1px;"/>
    </g>
    <g>
        <path d="M655.263,213.158L655.263,234.211L650,234.211L650,213.158L644.737,213.158L644.737,234.211L639.474,234.211L639.474,213.158L634.211,213.158L634.211,234.211L628.947,239.474L628.947,260.526L623.684,260.526L623.684,239.474L618.421,239.474L618.421,260.526L613.158,260.526L613.158,239.474L607.895,239.474L607.895,260.526L602.632,265.789L602.632,286.842L597.368,286.842L597.368,265.789L592.105,265.789L592.105,286.842L586.842,286.842L586.842,265.789L581.579,265.789L581.579,286.842" style="fill:none;fill-rule:nonzero;stroke:rgb(184,0,56);stroke-width:1px;"/>
    </g>
    <g>
        <path d="M528.947,234.211L528.947,213.158L550,213.158L550,218.421L534.211,218.421L534.211,223.684L550,223.684L550,228.947L534.211,228.947L534.211,234.211L550,234.211L555.263,239.474L576.316,239.474L576.316,244.737L555.263,244.737L555.263,250L576.316,250L576.316,255.263L555.263,255.263L555.263,260.526L576.316,260.526" style="fill:none;fill-rule:nonzero;stroke:rgb(184,0,56);stroke-width:1px;"/>
    </g>
    <g>
        <path d="M602.632,234.211L581.579,234.211L581.579,213.158L586.842,213.158L586.842,228.947L592.105,228.947L592.105,213.158L597.368,213.158L597.368,228.947L602.632,228.947L602.632,213.158" style="fill:none;fill-rule:nonzero;stroke:rgb(184,0,56);stroke-width:1px;"/>
    </g>
    <g>
        <path d="M681.579,260.526L660.526,260.526L660.526,239.474L665.789,239.474L665.789,255.263L671.053,255.263L671.053,239.474L676.316,239.474L676.316,255.263L681.579,255.263L681.579,239.474" style="fill:none;fill-rule:nonzero;stroke:rgb(184,0,56);stroke-width:1px;"/>
    </g>
    <g>
        <path d="M418.421,313.158L397.368,313.158L397.368,292.105L402.632,292.105L402.632,307.895L407.895,307.895L407.895,292.105L413.158,292.105L413.158,307.895L418.421,307.895L418.421,292.105" style="fill:none;fill-rule:nonzero;stroke:rgb(184,0,56);stroke-width:1px;"/>
    </g>
    <g>
        <path d="M450,365.789L450,344.737L455.263,344.737L455.263,365.789L460.526,365.789L460.526,344.737L465.789,344.737L465.789,365.789L471.053,365.789L471.053,344.737L476.316,339.474L476.316,318.421L481.579,318.421L481.579,339.474L486.842,339.474L486.842,318.421L492.105,318.421L492.105,339.474L497.368,339.474L497.368,318.421L502.632,318.421L502.632,292.105L507.895,292.105L507.895,323.684L502.632,323.684L502.632,339.474L507.895,339.474L507.895,328.947L513.158,328.947L513.158,292.105L518.421,292.105L518.421,334.211L513.158,334.211L513.158,339.474L523.684,339.474L523.684,292.105L528.947,292.105L528.947,313.158L534.211,313.158L534.211,292.105L539.474,292.105L539.474,313.158L544.737,313.158L544.737,292.105L550,292.105L550,313.158" style="fill:none;fill-rule:nonzero;stroke:rgb(184,0,56);stroke-width:1px;"/>
    </g>
    <g>
        <path d="M655.263,313.158L634.211,313.158L634.211,292.105L639.474,292.105L639.474,307.895L644.737,307.895L644.737,292.105L650,292.105L650,307.895L655.263,307.895L655.263,292.105" style="fill:none;fill-rule:nonzero;stroke:rgb(184,0,56);stroke-width:1px;"/>
    </g>
    <g>
        <path d="M681.579,365.789L660.526,365.789L660.526,344.737L665.789,344.737L665.789,360.526L671.053,360.526L671.053,344.737L676.316,344.737L676.316,360.526L681.579,360.526L681.579,344.737" style="fill:none;fill-rule:nonzero;stroke:rgb(184,0,56);stroke-width:1px;"/>
    </g>
    <g>
        <path d="M602.632,502.632L602.632,523.684L597.368,523.684L597.368,502.632L592.105,502.632L592.105,523.684L586.842,523.684L586.842,502.632L581.579,502.632L581.579,523.684L576.316,528.947L576.316,550L571.053,550L571.053,528.947L565.789,528.947L565.789,550L560.526,550L560.526,528.947L555.263,528.947L555.263,550" style="fill:none;fill-rule:nonzero;stroke:rgb(184,0,56);stroke-width:1px;"/>
    </g>
    <g>
        <path d="M555.263,497.368L555.263,476.316L560.526,476.316L560.526,497.368L565.789,497.368L565.789,476.316L571.053,476.316L571.053,497.368L576.316,497.368L576.316,476.316" style="fill:none;fill-rule:nonzero;stroke:rgb(184,0,56);stroke-width:1px;"/>
    </g>
    <g>
        <path d="M339.474,707.895L339.474,681.579L365.789,681.579L365.789,660.526L360.526,660.526L360.526,676.316L355.263,676.316L355.263,660.526L350,660.526L350,676.316L344.737,676.316L344.737,660.526L339.474,660.526L339.474,676.316L334.211,676.316L334.211,707.895L328.947,707.895L328.947,671.053L334.211,671.053L334.211,660.526L328.947,660.526L328.947,665.789L323.684,665.789L323.684,707.895L318.421,707.895L318.421,660.526L323.684,660.526" style="fill:none;fill-rule:nonzero;stroke:rgb(184,0,56);stroke-width:1px;"/>
    </g>
    <g>
        <path d="M713.158,707.895L713.158,660.526L718.421,660.526L718.421,707.895L723.684,707.895L723.684,660.526L728.947,660.526L728.947,707.895L734.211,707.895L734.211,660.526" style="fill:none;fill-rule:nonzero;stroke:rgb(184,0,56);stroke-width:1px;"/>
    </g>
    <g>
        <path d="M418.421,765.789L418.421,786.842L397.368,786.842L397.368,781.579L413.158,781.579L413.158,776.316L397.368,776.316L397.368,771.053L413.158,771.053L413.158,765.789L397.368,765.789L392.105,760.526L371.053,760.526L371.053,755.263L392.105,755.263L392.105,750L371.053,750L371.053,744.737L392.105,744.737L392.105,739.474L371.053,739.474" style="fill:none;fill-rule:nonzero;stroke:rgb(184,0,56);stroke-width:1px;"/>
    </g>
    <g>
        <path d="M681.579,786.842L660.526,786.842L660.526,765.789L665.789,765.789L665.789,781.579L671.053,781.579L671.053,765.789L676.316,765.789L676.316,781.579L681.579,781.579L681.579,765.789" style="fill:none;fill-rule:nonzero;stroke:rgb(184,0,56);stroke-width:1px;"/>
    </g>
    <g>
        <path d="M392.105,860.526L392.105,865.789L386.842,865.789L386.842,855.263L392.105,855.263L392.105,818.421L386.842,818.421L386.842,850L381.579,850L381.579,865.789L376.316,865.789L376.316,844.737L381.579,844.737L381.579,818.421L376.316,818.421L376.316,839.474L371.053,839.474L371.053,865.789L365.789,865.789L365.789,834.211L371.053,834.211L371.053,818.421L365.789,818.421L365.789,828.947L360.526,828.947L360.526,865.789L355.263,865.789L355.263,823.684L360.526,823.684L360.526,818.421L350,818.421L350,865.789L344.737,865.789L344.737,818.421L339.474,813.158L339.474,792.105L334.211,792.105L334.211,813.158L328.947,813.158L328.947,792.105L323.684,792.105L323.684,813.158L318.421,813.158L318.421,792.105" style="fill:none;fill-rule:nonzero;stroke:rgb(184,0,56);stroke-width:1px;"/>
    </g>
    <g>
        <path d="M602.632,818.421L602.632,839.474L597.368,839.474L597.368,818.421L592.105,818.421L592.105,839.474L586.842,839.474L586.842,818.421L581.579,818.421L581.579,839.474L576.316,844.737L576.316,892.105L571.053,892.105L571.053,844.737L565.789,844.737L565.789,892.105L560.526,892.105L560.526,844.737L555.263,844.737L555.263,892.105" style="fill:none;fill-rule:nonzero;stroke:rgb(184,0,56);stroke-width:1px;"/>
    </g>
    <g>
        <path d="M655.263,844.737L655.263,918.421L650,918.421L650,844.737L644.737,844.737L644.737,918.421L639.474,918.421L639.474,844.737L634.211,844.737L634.211,918.421L628.947,923.684L628.947,944.737L623.684,944.737L623.684,923.684L618.421,923.684L618.421,944.737L613.158,944.737L613.158,923.684L607.895,923.684L607.895,944.737" style="fill:none;fill-rule:nonzero;stroke:rgb(184,0,56);stroke-width:1px;"/>
    </g>
    <g>
        <path d="M444.737,207.895L423.684,207.895L423.684,186.842L428.947,186.842L428.947,202.632L434.211,202.632L434.211,186.842L439.474,186.842L439.474,202.632L444.737,202.632L444.737,186.842" style="fill:none;fill-rule:nonzero;stroke:rgb(248,248,248);stroke-width:1px;"/>
    </g>
    <g>
        <path d="M628.947,207.895L607.895,207.895L607.895,186.842L613.158,186.842L613.158,202.632L618.421,202.632L618.421,186.842L623.684,186.842L623.684,202.632L628.947,202.632L628.947,186.842" style="fill:none;fill-rule:nonzero;stroke:rgb(248,248,248);stroke-width:1px;"/>
    </g>
    <g>
        <path d="M471.053,339.474L450,339.474L450,318.421L455.263,318.421L455.263,334.211L460.526,334.211L460.526,318.421L465.789,318.421L465.789,334.211L471.053,334.211L471.053,318.421" style="fill:none;fill-rule:nonzero;stroke:rgb(248,248,248);stroke-width:1px;"/>
    </g>
    <g>
        <path d="M576.316,371.053L576.316,392.105L571.053,392.105L571.053,371.053L565.789,371.053L565.789,392.105L560.526,392.105L560.526,371.053L555.263,371.053L555.263,392.105L550,397.368L550,444.737L544.737,444.737L544.737,397.368L539.474,397.368L539.474,444.737L534.211,444.737L534.211,397.368L528.947,397.368L528.947,444.737" style="fill:none;fill-rule:nonzero;stroke:rgb(248,248,248);stroke-width:1px;"/>
    </g>
    <g>
        <path d="M502.632,365.789L502.632,344.737L507.895,344.737L507.895,365.789L513.158,365.789L513.158,344.737L518.421,344.737L518.421,365.789L523.684,365.789L523.684,344.737L528.947,344.737L528.947,365.789L534.211,365.789L534.211,344.737L539.474,344.737L539.474,365.789L544.737,365.789L544.737,344.737L550,344.737L550,365.789" style="fill:none;fill-rule:nonzero;stroke:rgb(248,248,248);stroke-width:1px;"/>
    </g>
    <g>
        <path d="M607.895,681.579L607.895,634.211L613.158,634.211L613.158,681.579L618.421,681.579L618.421,634.211L623.684,634.211L623.684,681.579L628.947,681.579L628.947,634.211L634.211,634.211L634.211,707.895L639.474,707.895L639.474,634.211L644.737,634.211L644.737,707.895L650,707.895L650,634.211L655.263,634.211L655.263,707.895" style="fill:none;fill-rule:nonzero;stroke:rgb(248,248,248);stroke-width:1px;"/>
    </g>
    <g>
        <path d="M418.421,734.211L418.421,707.895L444.737,707.895L444.737,686.842L439.474,686.842L439.474,702.632L434.211,702.632L434.211,686.842L428.947,686.842L428.947,702.632L423.684,702.632L423.684,686.842L418.421,686.842L418.421,702.632L413.158,702.632L413.158,734.211L407.895,734.211L407.895,697.368L413.158,697.368L413.158,686.842L407.895,686.842L407.895,692.105L402.632,692.105L402.632,734.211L397.368,734.211L397.368,686.842L402.632,686.842" style="fill:none;fill-rule:nonzero;stroke:rgb(248,248,248);stroke-width:1px;"/>
    </g>
    <g>
        <path d="M313.158,760.526L292.105,760.526L292.105,739.474L297.368,739.474L297.368,755.263L302.632,755.263L302.632,739.474L307.895,739.474L307.895,755.263L313.158,755.263L313.158,739.474" style="fill:none;fill-rule:nonzero;stroke:rgb(248,248,248);stroke-width:1px;"/>
    </g>
    <g>
        <path d="M581.579,918.421L581.579,871.053L586.842,871.053L586.842,918.421L592.105,918.421L592.105,871.053L597.368,871.053L597.368,918.421L602.632,918.421L602.632,871.053" style="fill:none;fill-rule:nonzero;stroke:rgb(248,248,248);stroke-width:1px;"/>
    </g>
    <g>
        <path d="M497.368,371.053L476.316,371.053L476.316,397.368L450,397.368L450,471.053L455.263,471.053L455.263,402.632L460.526,402.632L460.526,471.053L465.789,471.053L465.789,402.632L471.053,402.632L471.053,471.053L476.316,476.316L476.316,497.368L481.579,497.368L481.579,476.316L486.842,476.316L486.842,497.368L492.105,497.368L492.105,476.316L497.368,476.316L497.368,497.368L502.632,497.368L502.632,476.316L507.895,476.316L507.895,497.368L513.158,497.368L513.158,476.316L518.421,476.316L518.421,497.368L523.684,497.368L523.684,476.316L528.947,471.053L528.947,450L534.211,450L534.211,471.053L539.474,471.053L539.474,450L544.737,450L544.737,471.053L550,471.053L550,450L555.263,444.737L555.263,423.684L560.526,423.684L560.526,444.737L565.789,444.737L565.789,423.684L571.053,423.684L571.053,444.737L576.316,444.737L576.316,423.684" style="fill:none;fill-rule:nonzero;stroke:rgb(248,128,104);stroke-width:1px;"/>
    </g>
    <g>
        <path d="M628.947,392.105L607.895,392.105L607.895,371.053L613.158,371.053L613.158,386.842L618.421,386.842L618.421,371.053L623.684,371.053L623.684,386.842L628.947,386.842L628.947,371.053" style="fill:none;fill-rule:nonzero;stroke:rgb(248,128,104);stroke-width:1px;"/>
    </g>
    <g>
        <path d="M497.368,418.421L476.316,418.421L476.316,402.632L481.579,402.632L481.579,376.316L486.842,376.316L486.842,407.895L481.579,407.895L481.579,413.158L492.105,413.158L492.105,376.316L497.368,376.316L497.368,413.158" style="fill:none;fill-rule:nonzero;stroke:rgb(248,128,104);stroke-width:1px;"/>
    </g>
    <g>
        <path d="M392.105,555.263L392.105,576.316L386.842,576.316L386.842,555.263L381.579,555.263L381.579,576.316L376.316,576.316L376.316,555.263L371.053,555.263L371.053,576.316L365.789,581.579L365.789,602.632L360.526,602.632L360.526,581.579L355.263,581.579L355.263,602.632L350,602.632L350,581.579L344.737,581.579L344.737,602.632" style="fill:none;fill-rule:nonzero;stroke:rgb(248,128,104);stroke-width:1px;"/>
    </g>
    <g>
        <path d="M707.895,581.579L707.895,602.632L702.632,602.632L702.632,581.579L697.368,581.579L697.368,602.632L692.105,602.632L692.105,581.579L686.842,581.579L686.842,602.632L681.579,607.895L681.579,628.947L676.316,628.947L676.316,607.895L671.053,607.895L671.053,628.947L665.789,628.947L665.789,607.895L660.526,607.895L660.526,628.947" style="fill:none;fill-rule:nonzero;stroke:rgb(248,128,104);stroke-width:1px;"/>
    </g>
    <g>
        <path d="M660.526,576.316L660.526,555.263L665.789,555.263L665.789,576.316L671.053,576.316L671.053,555.263L676.316,555.263L676.316,576.316L681.579,576.316L681.579,555.263" style="fill:none;fill-rule:nonzero;stroke:rgb(248,128,104);stroke-width:1px;"/>
    </g>
    <g>
        <path d="M392.105,607.895L392.105,628.947L386.842,628.947L386.842,607.895L381.579,607.895L381.579,628.947L376.316,628.947L376.316,607.895L371.053,607.895L371.053,628.947L365.789,634.211L365.789,655.263L360.526,655.263L360.526,634.211L355.263,634.211L355.263,655.263L350,655.263L350,634.211L344.737,634.211L344.737,655.263" style="fill:none;fill-rule:nonzero;stroke:rgb(248,128,104);stroke-width:1px;"/>
    </g>
    <g>
        <path d="M313.158,707.895L292.105,707.895L292.105,686.842L297.368,686.842L297.368,702.632L302.632,702.632L302.632,686.842L307.895,686.842L307.895,702.632L313.158,702.632L313.158,686.842" style="fill:none;fill-rule:nonzero;stroke:rgb(248,128,104);stroke-width:1px;"/>
    </g>
    <g>
        <path d="M760.526,707.895L739.474,707.895L739.474,686.842L744.737,686.842L744.737,702.632L750,702.632L750,686.842L755.263,686.842L755.263,702.632L760.526,702.632L760.526,686.842" style="fill:none;fill-rule:nonzero;stroke:rgb(248,128,104);stroke-width:1px;"/>
    </g>
    <g>
        <path d="M681.579,392.105L660.526,392.105L660.526,371.053L665.789,371.053L665.789,386.842L671.053,386.842L671.053,371.053L676.316,371.053L676.316,386.842L681.579,386.842L681.579,371.053" style="fill:none;fill-rule:nonzero;stroke:rgb(40,24,32);stroke-width:1px;"/>
    </g>
    <g>
        <path d="M418.421,450L418.421,471.053L413.158,471.053L413.158,450L407.895,450L407.895,471.053L402.632,471.053L402.632,450L397.368,450L397.368,471.053L392.105,476.316L392.105,523.684L386.842,523.684L386.842,476.316L381.579,476.316L381.579,523.684L376.316,523.684L376.316,476.316L371.053,476.316L371.053,523.684" style="fill:none;fill-rule:nonzero;stroke:rgb(40,24,32);stroke-width:1px;"/>
    </g>
    <g>
        <path d="M707.895,476.316L707.895,497.368L702.632,497.368L702.632,476.316L697.368,476.316L697.368,497.368L692.105,497.368L692.105,476.316L686.842,476.316L686.842,497.368L681.579,502.632L681.579,523.684L676.316,523.684L676.316,502.632L671.053,502.632L671.053,523.684L665.789,523.684L665.789,502.632L660.526,502.632L660.526,523.684" style="fill:none;fill-rule:nonzero;stroke:rgb(40,24,32);stroke-width:1px;"/>
    </g>
    <g>
        <path d="M660.526,471.053L660.526,450L665.789,450L665.789,471.053L671.053,471.053L671.053,450L676.316,450L676.316,471.053L681.579,471.053L681.579,450" style="fill:none;fill-rule:nonzero;stroke:rgb(40,24,32);stroke-width:1px;"/>
    </g>
    <g>
        <path d="M502.632,444.737L502.632,397.368L507.895,397.368L507.895,444.737L513.158,444.737L513.158,397.368L518.421,397.368L518.421,444.737L523.684,444.737L523.684,397.368" style="fill:none;fill-rule:nonzero;stroke:rgb(8,56,56);stroke-width:1px;"/>
    </g>
    <g>
        <path d="M397.368,550L397.368,528.947L402.632,528.947L402.632,550L407.895,550L407.895,528.947L413.158,528.947L413.158,550L418.421,550L418.421,528.947L423.684,523.684L423.684,423.684L428.947,423.684L428.947,523.684L434.211,523.684L434.211,423.684L439.474,423.684L439.474,523.684L444.737,523.684L444.737,423.684" style="fill:none;fill-rule:nonzero;stroke:rgb(8,56,56);stroke-width:1px;"/>
    </g>
    <g>
        <path d="M655.263,528.947L655.263,550L634.211,550L634.211,544.737L650,544.737L650,539.474L634.211,539.474L634.211,534.211L650,534.211L650,528.947L634.211,528.947L628.947,523.684L607.895,523.684L607.895,518.421L628.947,518.421L628.947,513.158L607.895,513.158L607.895,507.895L628.947,507.895L628.947,502.632L607.895,502.632" style="fill:none;fill-rule:nonzero;stroke:rgb(8,56,56);stroke-width:1px;"/>
    </g>
    <g>
        <path d="M471.053,550L450,550L450,528.947L455.263,528.947L455.263,544.737L460.526,544.737L460.526,528.947L465.789,528.947L465.789,544.737L471.053,544.737L471.053,528.947" style="fill:none;fill-rule:nonzero;stroke:rgb(8,56,56);stroke-width:1px;"/>
    </g>
    <g>
        <path d="M602.632,550L581.579,550L581.579,528.947L586.842,528.947L586.842,544.737L592.105,544.737L592.105,528.947L597.368,528.947L597.368,544.737L602.632,544.737L602.632,528.947" style="fill:none;fill-rule:nonzero;stroke:rgb(8,56,56);stroke-width:1px;"/>
    </g>
    <g>
        <path d="M550,576.316L502.632,576.316L502.632,555.263L507.895,555.263L507.895,571.053L513.158,571.053L513.158,555.263L518.421,555.263L518.421,571.053L523.684,571.053L523.684,555.263L528.947,555.263L528.947,571.053L534.211,571.053L534.211,555.263L539.474,555.263L539.474,571.053L544.737,571.053L544.737,555.263L550,555.263L550,571.053" style="fill:none;fill-rule:nonzero;stroke:rgb(8,56,56);stroke-width:1px;"/>
    </g>
    <g>
        <path d="M497.368,723.684L497.368,734.211L476.316,734.211L476.316,728.947L492.105,728.947L492.105,723.684L476.316,723.684L476.316,718.421L497.368,718.421L497.368,713.158L476.316,713.158L476.316,707.895L497.368,707.895L497.368,702.632L471.053,702.632L471.053,707.895L450,707.895L450,702.632L465.789,702.632L465.789,697.368L497.368,697.368L497.368,692.105L460.526,692.105L460.526,697.368L450,697.368L450,692.105L455.263,692.105L455.263,686.842L497.368,686.842L502.632,681.579L523.684,681.579L523.684,676.316L502.632,676.316L502.632,671.053L523.684,671.053L523.684,665.789L502.632,665.789L502.632,660.526L523.684,660.526L523.684,655.263L502.632,655.263L502.632,650L523.684,650L523.684,644.737L502.632,644.737L502.632,639.474L523.684,639.474L523.684,634.211L502.632,634.211L497.368,628.947L450,628.947L450,623.684L497.368,623.684L497.368,618.421L450,618.421L450,613.158L497.368,613.158L497.368,607.895L450,607.895L444.737,602.632L423.684,602.632L423.684,597.368L444.737,597.368L444.737,592.105L423.684,592.105L423.684,586.842L444.737,586.842L444.737,581.579L423.684,581.579" style="fill:none;fill-rule:nonzero;stroke:rgb(8,56,56);stroke-width:1px;"/>
    </g>
    <g>
        <path d="M602.632,681.579L602.632,628.947L655.263,628.947L655.263,607.895L650,607.895L650,623.684L644.737,623.684L644.737,607.895L639.474,607.895L639.474,623.684L634.211,623.684L634.211,607.895L628.947,607.895L628.947,623.684L623.684,623.684L623.684,602.632L628.947,602.632L628.947,581.579L623.684,581.579L623.684,597.368L618.421,597.368L618.421,623.684L613.158,623.684L613.158,592.105L618.421,592.105L618.421,581.579L613.158,581.579L613.158,586.842L607.895,586.842L607.895,623.684L602.632,623.684L602.632,607.895L597.368,607.895L597.368,681.579L592.105,681.579L592.105,607.895L586.842,607.895L586.842,681.579L581.579,681.579L581.579,607.895L576.316,607.895L576.316,628.947L571.053,628.947L571.053,607.895L565.789,607.895L565.789,628.947L560.526,628.947L560.526,607.895L555.263,607.895L555.263,628.947" style="fill:none;fill-rule:nonzero;stroke:rgb(8,56,56);stroke-width:1px;"/>
    </g>
    <g>
        <path d="M450,686.842L444.737,681.579L397.368,681.579L397.368,660.526L402.632,660.526L402.632,676.316L407.895,676.316L407.895,660.526L413.158,660.526L413.158,676.316L418.421,676.316L418.421,660.526L423.684,660.526L423.684,676.316L428.947,676.316L428.947,660.526L434.211,660.526L434.211,676.316L439.474,676.316L439.474,660.526L444.737,660.526L444.737,676.316" style="fill:none;fill-rule:nonzero;stroke:rgb(8,56,56);stroke-width:1px;"/>
    </g>
    <g>
        <path d="M576.316,707.895L555.263,707.895L555.263,686.842L560.526,686.842L560.526,702.632L565.789,702.632L565.789,686.842L571.053,686.842L571.053,702.632L576.316,702.632L576.316,686.842" style="fill:none;fill-rule:nonzero;stroke:rgb(8,56,56);stroke-width:1px;"/>
    </g>
    <g>
        <path d="M444.737,765.789L444.737,786.842L423.684,786.842L423.684,781.579L439.474,781.579L439.474,776.316L423.684,776.316L423.684,771.053L439.474,771.053L439.474,765.789L423.684,765.789L418.421,760.526L397.368,760.526L397.368,755.263L418.421,755.263L418.421,750L397.368,750L397.368,744.737L418.421,744.737L418.421,739.474L397.368,739.474L392.105,734.211L371.053,734.211L371.053,728.947L392.105,728.947L392.105,723.684L371.053,723.684L371.053,718.421L392.105,718.421L392.105,713.158L371.053,713.158" style="fill:none;fill-rule:nonzero;stroke:rgb(8,56,56);stroke-width:1px;"/>
    </g>
    <g>
        <path d="M444.737,576.316L444.737,528.947L439.474,528.947L439.474,576.316L434.211,576.316L434.211,528.947L428.947,528.947L428.947,576.316L423.684,576.316L423.684,528.947L418.421,523.684L418.421,502.632L413.158,502.632L413.158,523.684L407.895,523.684L407.895,502.632L402.632,502.632L402.632,523.684L397.368,523.684L397.368,502.632" style="fill:none;fill-rule:nonzero;stroke:rgb(48,112,112);stroke-width:1px;"/>
    </g>
    <g>
        <path d="M655.263,502.632L655.263,523.684L650,523.684L650,502.632L644.737,502.632L644.737,523.684L639.474,523.684L639.474,502.632L634.211,502.632L634.211,523.684L628.947,528.947L628.947,576.316L623.684,576.316L623.684,528.947L618.421,528.947L618.421,576.316L613.158,576.316L613.158,528.947L607.895,528.947L607.895,576.316" style="fill:none;fill-rule:nonzero;stroke:rgb(48,112,112);stroke-width:1px;"/>
    </g>
    <g>
        <path d="M444.737,607.895L444.737,628.947L439.474,628.947L439.474,607.895L434.211,607.895L434.211,628.947L428.947,628.947L428.947,607.895L423.684,607.895L423.684,628.947L418.421,634.211L418.421,655.263L413.158,655.263L413.158,634.211L407.895,634.211L407.895,655.263L402.632,655.263L402.632,634.211L397.368,634.211L397.368,655.263" style="fill:none;fill-rule:nonzero;stroke:rgb(48,112,112);stroke-width:1px;"/>
    </g>
    <g>
        <path d="M497.368,655.263L476.316,655.263L476.316,634.211L481.579,634.211L481.579,650L486.842,650L486.842,634.211L492.105,634.211L492.105,650L497.368,650L497.368,634.211" style="fill:none;fill-rule:nonzero;stroke:rgb(48,112,112);stroke-width:1px;"/>
    </g>
    <g>
        <path d="M502.632,734.211L502.632,713.158L507.895,713.158L507.895,734.211L513.158,734.211L513.158,713.158L518.421,713.158L518.421,734.211L523.684,734.211L523.684,713.158L528.947,707.895L528.947,686.842L534.211,686.842L534.211,707.895L539.474,707.895L539.474,686.842L544.737,686.842L544.737,707.895L550,707.895L550,686.842L555.263,681.579L555.263,655.263L528.947,655.263L528.947,634.211L534.211,634.211L534.211,650L539.474,650L539.474,634.211L544.737,634.211L544.737,650L550,650L550,634.211L555.263,634.211L555.263,650L560.526,650L560.526,634.211L565.789,634.211L565.789,655.263L560.526,655.263L560.526,681.579L565.789,681.579L565.789,660.526L571.053,660.526L571.053,634.211L576.316,634.211L576.316,665.789L571.053,665.789L571.053,681.579L576.316,681.579L576.316,671.053" style="fill:none;fill-rule:nonzero;stroke:rgb(48,112,112);stroke-width:1px;"/>
    </g>
</svg>
