<?xml version="1.0" encoding="UTF-8" standalone="no"?>
<!DOCTYPE svg PUBLIC "-//W3C//DTD SVG 1.1//EN" "http://www.w3.org/Graphics/SVG/1.1/DTD/svg11.dtd">
<svg width="100%" height="100%" viewBox="0 0 1024 1024" version="1.1" xmlns="http://www.w3.org/2000/svg" xmlns:xlink="http://www.w3.org/1999/xlink" xml:space="preserve" xmlns:serif="http://www.serif.com/" style="fill-rule:evenodd;clip-rule:evenodd;stroke-linecap:round;stroke-linejoin:round;">
    <g>
        <path d="M323.75,423.75L313.75,423.75L313.75,413.75L316.25,413.75L316.25,421.25L318.75,421.25L318.75,413.75L321.25,413.75L321.25,421.25L323.75,421.25L323.75,413.75" style="fill:none;fill-rule:nonzero;stroke:rgb(255,238,164);stroke-width:1px;"/>
    </g>
    <g>
        <path d="M426.25,498.75L438.75,498.75L438.75,561.25L423.75,561.25L423.75,623.75L401.25,623.75L401.25,621.25L421.25,621.25L421.25,618.75L401.25,618.75L401.25,616.25L421.25,616.25L421.25,613.75L401.25,613.75L401.25,611.25L388.75,611.25L388.75,608.75L403.75,608.75L403.75,611.25L421.25,611.25L421.25,608.75L406.25,608.75L406.25,606.25L388.75,606.25L388.75,603.75L408.75,603.75L408.75,606.25L421.25,606.25L421.25,603.75L411.25,603.75L411.25,601.25L388.75,601.25L388.75,598.75L413.75,598.75L413.75,601.25L421.25,601.25L421.25,598.75L416.25,598.75L416.25,596.25L388.75,596.25L388.75,593.75L418.75,593.75L418.75,596.25L421.25,596.25L421.25,591.25L388.75,591.25L388.75,588.75L421.25,588.75L421.25,586.25L401.25,586.25L401.25,583.75L421.25,583.75L421.25,581.25L401.25,581.25L401.25,578.75L421.25,578.75L421.25,576.25L401.25,576.25L401.25,573.75L351.25,573.75L351.25,571.25L403.75,571.25L403.75,573.75L421.25,573.75L421.25,571.25L406.25,571.25L406.25,568.75L351.25,568.75L351.25,566.25L408.75,566.25L408.75,568.75L421.25,568.75L421.25,566.25L411.25,566.25L411.25,563.75L351.25,563.75L351.25,561.25L326.25,561.25L326.25,558.75L353.75,558.75L353.75,561.25L413.75,561.25L413.75,563.75L421.25,563.75L421.25,561.25L416.25,561.25L416.25,558.75L356.25,558.75L356.25,556.25L326.25,556.25L326.25,553.75L358.75,553.75L358.75,556.25L418.75,556.25L418.75,558.75L436.25,558.75L436.25,556.25L421.25,556.25L421.25,553.75L361.25,553.75L361.25,551.25L326.25,551.25L326.25,548.75L313.75,548.75L313.75,546.25L328.75,546.25L328.75,548.75L363.75,548.75L363.75,551.25L423.75,551.25L423.75,553.75L436.25,553.75L436.25,551.25L426.25,551.25L426.25,548.75L366.25,548.75L366.25,546.25L331.25,546.25L331.25,543.75L313.75,543.75L313.75,541.25L333.75,541.25L333.75,543.75L368.75,543.75L368.75,546.25L428.75,546.25L428.75,548.75L436.25,548.75L436.25,546.25L431.25,546.25L431.25,543.75L371.25,543.75L371.25,541.25L336.25,541.25L336.25,538.75L313.75,538.75L313.75,536.25L288.75,536.25L288.75,533.75L316.25,533.75L316.25,536.25L338.75,536.25L338.75,538.75L373.75,538.75L373.75,541.25L433.75,541.25L433.75,543.75L436.25,543.75L436.25,538.75L376.25,538.75L376.25,536.25L341.25,536.25L341.25,533.75L318.75,533.75L318.75,531.25L288.75,531.25L288.75,528.75L321.25,528.75L321.25,531.25L343.75,531.25L343.75,533.75L378.75,533.75L378.75,536.25L436.25,536.25L436.25,533.75L381.25,533.75L381.25,531.25L346.25,531.25L346.25,528.75L323.75,528.75L323.75,526.25L288.75,526.25L288.75,523.75L251.25,523.75L251.25,521.25L291.25,521.25L291.25,523.75L326.25,523.75L326.25,526.25L348.75,526.25L348.75,528.75L383.75,528.75L383.75,531.25L436.25,531.25L436.25,528.75L386.25,528.75L386.25,526.25L351.25,526.25L351.25,523.75L328.75,523.75L328.75,521.25L293.75,521.25L293.75,518.75L251.25,518.75L251.25,516.25L296.25,516.25L296.25,518.75L331.25,518.75L331.25,521.25L353.75,521.25L353.75,523.75L388.75,523.75L388.75,526.25L436.25,526.25L436.25,523.75L391.25,523.75L391.25,521.25L356.25,521.25L356.25,518.75L333.75,518.75L333.75,516.25L298.75,516.25L298.75,513.75L251.25,513.75L251.25,511.25L226.25,511.25L226.25,508.75L253.75,508.75L253.75,511.25L301.25,511.25L301.25,513.75L336.25,513.75L336.25,516.25L358.75,516.25L358.75,518.75L393.75,518.75L393.75,521.25L436.25,521.25L436.25,518.75L396.25,518.75L396.25,516.25L361.25,516.25L361.25,513.75L338.75,513.75L338.75,511.25L303.75,511.25L303.75,508.75L256.25,508.75L256.25,506.25L226.25,506.25L226.25,503.75L258.75,503.75L258.75,506.25L306.25,506.25L306.25,508.75L341.25,508.75L341.25,511.25L348.75,511.25L348.75,508.75L343.75,508.75L343.75,506.25L308.75,506.25L308.75,503.75L261.25,503.75L261.25,501.25L226.25,501.25L226.25,498.75L213.75,498.75L213.75,496.25L228.75,496.25L228.75,498.75L263.75,498.75L263.75,501.25L311.25,501.25L311.25,503.75L346.25,503.75L346.25,506.25L348.75,506.25L348.75,501.25L313.75,501.25" style="fill:none;fill-rule:nonzero;stroke:rgb(255,238,164);stroke-width:1px;"/>
    </g>
    <g>
        <path d="M363.75,451.25L363.75,463.75L338.75,463.75L338.75,476.25L326.25,476.25L326.25,498.75L328.75,498.75L328.75,478.75L331.25,478.75L331.25,498.75L333.75,498.75L333.75,478.75L336.25,478.75L336.25,498.75L338.75,498.75L338.75,478.75L341.25,478.75L341.25,466.25L343.75,466.25L343.75,481.25L341.25,481.25L341.25,498.75L343.75,498.75L343.75,483.75L346.25,483.75L346.25,466.25L348.75,466.25L348.75,486.25L346.25,486.25L346.25,498.75L348.75,498.75L348.75,488.75L351.25,488.75L351.25,466.25L353.75,466.25L353.75,491.25L351.25,491.25L351.25,498.75L353.75,498.75L353.75,493.75L356.25,493.75L356.25,466.25L358.75,466.25L358.75,496.25L356.25,496.25L356.25,498.75L361.25,498.75L361.25,466.25L363.75,466.25L363.75,486.25L366.25,486.25L366.25,451.25L368.75,451.25L368.75,486.25L371.25,486.25L371.25,451.25L373.75,451.25L373.75,486.25L376.25,486.25L376.25,438.75L378.75,438.75L378.75,486.25L381.25,486.25L381.25,438.75L383.75,438.75L383.75,486.25L386.25,486.25L386.25,438.75L388.75,438.75L388.75,486.25L391.25,486.25L391.25,438.75L393.75,438.75L393.75,486.25L396.25,486.25L396.25,438.75L398.75,438.75L398.75,486.25L401.25,486.25L401.25,438.75L403.75,438.75L403.75,486.25L406.25,486.25L406.25,438.75L408.75,438.75L408.75,486.25L411.25,486.25L411.25,438.75L413.75,438.75L413.75,486.25L416.25,486.25L416.25,438.75L418.75,438.75L418.75,486.25L421.25,486.25L421.25,438.75L423.75,438.75L423.75,486.25L426.25,486.25L426.25,451.25L428.75,451.25L428.75,488.75L426.25,488.75L426.25,496.25L428.75,496.25L428.75,491.25L431.25,491.25L431.25,451.25L433.75,451.25L433.75,493.75L431.25,493.75L431.25,496.25L436.25,496.25L436.25,451.25L438.75,451.25L438.75,496.25L441.25,496.25L441.25,451.25L443.75,451.25L443.75,498.75L441.25,498.75L441.25,561.25L443.75,561.25L443.75,501.25L446.25,501.25L446.25,451.25L448.75,451.25L448.75,503.75L446.25,503.75L446.25,561.25L448.75,561.25L448.75,506.25L451.25,506.25L451.25,476.25L453.75,476.25L453.75,508.75L451.25,508.75L451.25,536.25L453.75,536.25L453.75,511.25L456.25,511.25L456.25,476.25L458.75,476.25L458.75,513.75L456.25,513.75L456.25,536.25L458.75,536.25L458.75,516.25L461.25,516.25L461.25,476.25" style="fill:none;fill-rule:nonzero;stroke:rgb(255,238,164);stroke-width:1px;"/>
    </g>
    <g>
        <path d="M223.75,476.25L223.75,488.75L273.75,488.75L273.75,498.75L271.25,498.75L271.25,491.25L268.75,491.25L268.75,498.75L266.25,498.75L266.25,491.25L263.75,491.25L263.75,496.25L261.25,496.25L261.25,491.25L258.75,491.25L258.75,496.25L256.25,496.25L256.25,491.25L253.75,491.25L253.75,496.25L251.25,496.25L251.25,491.25L248.75,491.25L248.75,496.25L246.25,496.25L246.25,491.25L243.75,491.25L243.75,496.25L241.25,496.25L241.25,491.25L238.75,491.25L238.75,496.25L236.25,496.25L236.25,491.25L233.75,491.25L233.75,496.25L231.25,496.25L231.25,491.25L228.75,491.25L228.75,493.75L226.25,493.75L226.25,491.25L223.75,491.25L223.75,493.75L221.25,493.75L221.25,476.25L218.75,476.25L218.75,493.75L216.25,493.75L216.25,476.25L213.75,476.25L213.75,493.75" style="fill:none;fill-rule:nonzero;stroke:rgb(255,238,164);stroke-width:1px;"/>
    </g>
    <g>
        <path d="M411.25,501.25L411.25,513.75L436.25,513.75L436.25,516.25L408.75,516.25L408.75,501.25L406.25,501.25L406.25,516.25L403.75,516.25L403.75,501.25L401.25,501.25L401.25,516.25L398.75,516.25L398.75,501.25L396.25,501.25L396.25,513.75L393.75,513.75L393.75,501.25L391.25,501.25L391.25,513.75L388.75,513.75L388.75,501.25L386.25,501.25L386.25,513.75L383.75,513.75L383.75,501.25L381.25,501.25L381.25,513.75L378.75,513.75L378.75,501.25L376.25,501.25L376.25,513.75L363.75,513.75" style="fill:none;fill-rule:nonzero;stroke:rgb(255,238,164);stroke-width:1px;"/>
    </g>
    <g>
        <path d="M461.25,536.25L461.25,518.75L463.75,518.75L463.75,501.25L466.25,501.25L466.25,521.25L463.75,521.25L463.75,523.75L468.75,523.75L468.75,501.25L471.25,501.25L471.25,523.75L473.75,523.75L473.75,501.25" style="fill:none;fill-rule:nonzero;stroke:rgb(255,238,164);stroke-width:1px;"/>
    </g>
    <g>
        <path d="M473.75,576.25L426.25,576.25L426.25,611.25L428.75,611.25L428.75,578.75L431.25,578.75L431.25,611.25L433.75,611.25L433.75,578.75L436.25,578.75L436.25,611.25L438.75,613.75L438.75,636.25L441.25,636.25L441.25,613.75L443.75,613.75L443.75,636.25L446.25,636.25L446.25,613.75L448.75,613.75L448.75,636.25L451.25,636.25L451.25,613.75L453.75,613.75L453.75,636.25L456.25,636.25L456.25,613.75L458.75,613.75L458.75,636.25L461.25,636.25L461.25,613.75L463.75,613.75L463.75,636.25L466.25,636.25L466.25,613.75L468.75,613.75L468.75,636.25L471.25,636.25L471.25,613.75L473.75,613.75L473.75,636.25" style="fill:none;fill-rule:nonzero;stroke:rgb(255,238,164);stroke-width:1px;"/>
    </g>
    <g>
        <path d="M446.25,578.75L438.75,578.75L438.75,581.25L448.75,581.25L448.75,578.75L473.75,578.75L473.75,581.25L451.25,581.25L451.25,583.75L438.75,583.75L438.75,586.25L453.75,586.25L453.75,583.75L473.75,583.75L473.75,586.25L456.25,586.25L456.25,588.75L438.75,588.75L438.75,591.25L458.75,591.25L458.75,588.75L461.25,588.75L461.25,593.75L438.75,593.75L438.75,596.25L461.25,596.25L461.25,598.75L438.75,598.75" style="fill:none;fill-rule:nonzero;stroke:rgb(255,238,164);stroke-width:1px;"/>
    </g>
    <g>
        <path d="M476.25,623.75L476.25,601.25L478.75,601.25L478.75,623.75L481.25,623.75L481.25,601.25L483.75,601.25L483.75,623.75L486.25,623.75L486.25,601.25" style="fill:none;fill-rule:nonzero;stroke:rgb(255,238,164);stroke-width:1px;"/>
    </g>
    <g>
        <path d="M561.25,648.75L561.25,638.75L548.75,638.75L548.75,626.25L526.25,626.25L526.25,628.75L546.25,628.75L546.25,631.25L526.25,631.25L526.25,633.75L546.25,633.75L546.25,636.25L526.25,636.25L526.25,638.75L546.25,638.75L546.25,641.25L558.75,641.25L558.75,643.75L543.75,643.75L543.75,641.25L523.75,641.25L523.75,638.75L513.75,638.75L513.75,641.25L521.25,641.25L521.25,643.75L541.25,643.75L541.25,646.25L558.75,646.25L558.75,648.75L538.75,648.75L538.75,646.25L518.75,646.25L518.75,643.75L513.75,643.75L513.75,646.25L516.25,646.25L516.25,648.75L536.25,648.75L536.25,651.25L561.25,651.25L561.25,653.75L533.75,653.75L533.75,651.25L513.75,651.25L513.75,648.75L511.25,651.25L501.25,651.25L501.25,653.75L531.25,653.75L531.25,656.25L561.25,656.25L561.25,658.75L528.75,658.75L528.75,656.25L501.25,656.25L501.25,658.75L526.25,658.75L526.25,661.25L561.25,661.25L561.25,663.75L523.75,663.75L523.75,661.25L501.25,661.25L501.25,663.75L521.25,663.75L521.25,666.25L561.25,666.25L561.25,668.75L518.75,668.75L518.75,666.25L501.25,666.25L501.25,668.75L516.25,668.75L516.25,671.25L561.25,671.25L561.25,673.75L513.75,673.75L513.75,671.25L501.25,671.25L501.25,673.75L511.25,673.75L513.75,676.25L548.75,676.25L548.75,678.75L513.75,678.75L513.75,681.25L548.75,681.25L548.75,683.75L513.75,683.75L513.75,686.25L548.75,686.25" style="fill:none;fill-rule:nonzero;stroke:rgb(255,238,164);stroke-width:1px;"/>
    </g>
    <g>
        <path d="M311.25,436.25L301.25,436.25L301.25,426.25L303.75,426.25L303.75,433.75L306.25,433.75L306.25,426.25L308.75,426.25L308.75,433.75L311.25,433.75L311.25,426.25" style="fill:none;fill-rule:nonzero;stroke:rgb(230,205,106);stroke-width:1px;"/>
    </g>
    <g>
        <path d="M436.25,448.75L426.25,448.75L426.25,438.75L428.75,438.75L428.75,446.25L431.25,446.25L431.25,438.75L433.75,438.75L433.75,446.25L436.25,446.25L436.25,438.75" style="fill:none;fill-rule:nonzero;stroke:rgb(230,205,106);stroke-width:1px;"/>
    </g>
    <g>
        <path d="M361.25,461.25L351.25,461.25L351.25,451.25L353.75,451.25L353.75,458.75L356.25,458.75L356.25,451.25L358.75,451.25L358.75,458.75L361.25,458.75L361.25,451.25" style="fill:none;fill-rule:nonzero;stroke:rgb(230,205,106);stroke-width:1px;"/>
    </g>
    <g>
        <path d="M461.25,473.75L451.25,473.75L451.25,463.75L453.75,463.75L453.75,471.25L456.25,471.25L456.25,463.75L458.75,463.75L458.75,471.25L461.25,471.25L461.25,463.75" style="fill:none;fill-rule:nonzero;stroke:rgb(230,205,106);stroke-width:1px;"/>
    </g>
    <g>
        <path d="M286.25,498.75L276.25,498.75L276.25,488.75L278.75,488.75L278.75,496.25L281.25,496.25L281.25,488.75L283.75,488.75L283.75,496.25L286.25,496.25L286.25,488.75" style="fill:none;fill-rule:nonzero;stroke:rgb(230,205,106);stroke-width:1px;"/>
    </g>
    <g>
        <path d="M323.75,498.75L313.75,498.75L313.75,488.75L316.25,488.75L316.25,496.25L318.75,496.25L318.75,488.75L321.25,488.75L321.25,496.25L323.75,496.25L323.75,488.75" style="fill:none;fill-rule:nonzero;stroke:rgb(230,205,106);stroke-width:1px;"/>
    </g>
    <g>
        <path d="M473.75,498.75L463.75,498.75L463.75,488.75L466.25,488.75L466.25,496.25L468.75,496.25L468.75,488.75L471.25,488.75L471.25,496.25L473.75,496.25L473.75,488.75" style="fill:none;fill-rule:nonzero;stroke:rgb(230,205,106);stroke-width:1px;"/>
    </g>
    <g>
        <path d="M373.75,511.25L363.75,511.25L363.75,501.25L366.25,501.25L366.25,508.75L368.75,508.75L368.75,501.25L371.25,501.25L371.25,508.75L373.75,508.75L373.75,501.25" style="fill:none;fill-rule:nonzero;stroke:rgb(230,205,106);stroke-width:1px;"/>
    </g>
    <g>
        <path d="M423.75,511.25L413.75,511.25L413.75,501.25L416.25,501.25L416.25,508.75L418.75,508.75L418.75,501.25L421.25,501.25L421.25,508.75L423.75,508.75L423.75,501.25" style="fill:none;fill-rule:nonzero;stroke:rgb(230,205,106);stroke-width:1px;"/>
    </g>
    <g>
        <path d="M461.25,548.75L451.25,548.75L451.25,538.75L453.75,538.75L453.75,546.25L456.25,546.25L456.25,538.75L458.75,538.75L458.75,546.25L461.25,546.25L461.25,538.75" style="fill:none;fill-rule:nonzero;stroke:rgb(230,205,106);stroke-width:1px;"/>
    </g>
    <g>
        <path d="M436.25,573.75L426.25,573.75L426.25,563.75L428.75,563.75L428.75,571.25L431.25,571.25L431.25,563.75L433.75,563.75L433.75,571.25L436.25,571.25L436.25,563.75" style="fill:none;fill-rule:nonzero;stroke:rgb(230,205,106);stroke-width:1px;"/>
    </g>
    <g>
        <path d="M551.25,686.25L561.25,686.25L561.25,683.75L551.25,683.75L551.25,681.25L561.25,681.25L561.25,678.75L551.25,678.75L551.25,676.25L561.25,676.25L563.75,673.75L573.75,673.75L573.75,671.25L563.75,671.25L563.75,668.75L573.75,668.75L573.75,666.25L563.75,666.25L563.75,663.75L573.75,663.75L573.75,661.25L563.75,661.25L563.75,658.75L573.75,658.75L573.75,656.25L563.75,656.25L563.75,653.75L573.75,653.75L573.75,651.25L563.75,651.25L563.75,648.75L573.75,648.75L573.75,646.25L563.75,646.25L563.75,643.75L573.75,643.75L573.75,641.25L563.75,641.25L563.75,638.75L573.75,638.75L573.75,636.25L551.25,636.25L551.25,633.75L573.75,633.75L573.75,631.25L551.25,631.25L551.25,628.75L573.75,628.75L573.75,626.25L551.25,626.25L551.25,623.75L526.25,623.75L526.25,621.25L553.75,621.25L553.75,623.75L561.25,623.75L561.25,621.25L556.25,621.25L556.25,618.75L526.25,618.75L526.25,616.25L558.75,616.25L558.75,618.75L561.25,618.75L561.25,613.75L526.25,613.75L523.75,611.25L511.25,611.25L511.25,623.75L498.75,623.75L498.75,648.75L488.75,648.75L488.75,646.25L496.25,646.25L496.25,643.75L488.75,643.75L488.75,641.25L496.25,641.25L496.25,638.75L488.75,638.75L488.75,636.25L496.25,636.25L496.25,633.75L488.75,633.75L488.75,631.25L496.25,631.25L496.25,628.75L488.75,628.75L488.75,626.25L496.25,626.25L496.25,623.75L488.75,623.75L488.75,621.25L508.75,621.25L508.75,618.75L488.75,618.75L488.75,616.25L508.75,616.25L508.75,613.75L488.75,613.75L488.75,611.25L508.75,611.25L508.75,608.75L488.75,608.75L488.75,606.25L511.25,606.25L511.25,608.75L523.75,608.75L523.75,606.25L513.75,606.25L513.75,603.75L488.75,603.75L488.75,601.25L516.25,601.25L516.25,603.75L523.75,603.75L523.75,601.25L518.75,601.25" style="fill:none;fill-rule:nonzero;stroke:rgb(230,205,106);stroke-width:1px;"/>
    </g>
    <g>
        <path d="M486.25,576.25L486.25,588.75L511.25,588.75L511.25,598.75L508.75,598.75L508.75,591.25L506.25,591.25L506.25,598.75L503.75,598.75L503.75,591.25L501.25,591.25L501.25,598.75L498.75,598.75L498.75,591.25L496.25,591.25L496.25,598.75L493.75,598.75L493.75,591.25L491.25,591.25L491.25,598.75L488.75,598.75L488.75,591.25L486.25,591.25L486.25,598.75L483.75,598.75L483.75,576.25L481.25,576.25L481.25,598.75L478.75,598.75L478.75,576.25L476.25,576.25L476.25,598.75L473.75,601.25L473.75,611.25L471.25,611.25L471.25,601.25L468.75,601.25L468.75,611.25L466.25,611.25L466.25,601.25L463.75,601.25L463.75,611.25" style="fill:none;fill-rule:nonzero;stroke:rgb(230,205,106);stroke-width:1px;"/>
    </g>
    <g>
        <path d="M398.75,623.75L388.75,623.75L388.75,613.75L391.25,613.75L391.25,621.25L393.75,621.25L393.75,613.75L396.25,613.75L396.25,621.25L398.75,621.25L398.75,613.75" style="fill:none;fill-rule:nonzero;stroke:rgb(230,205,106);stroke-width:1px;"/>
    </g>
    <g>
        <path d="M423.75,636.25L413.75,636.25L413.75,626.25L416.25,626.25L416.25,633.75L418.75,633.75L418.75,626.25L421.25,626.25L421.25,633.75L423.75,633.75L423.75,626.25" style="fill:none;fill-rule:nonzero;stroke:rgb(230,205,106);stroke-width:1px;"/>
    </g>
    <g>
        <path d="M523.75,636.25L513.75,636.25L513.75,626.25L516.25,626.25L516.25,633.75L518.75,633.75L518.75,626.25L521.25,626.25L521.25,633.75L523.75,633.75L523.75,626.25" style="fill:none;fill-rule:nonzero;stroke:rgb(230,205,106);stroke-width:1px;"/>
    </g>
    <g>
        <path d="M473.75,648.75L451.25,648.75L451.25,638.75L453.75,638.75L453.75,646.25L456.25,646.25L456.25,638.75L458.75,638.75L458.75,646.25L461.25,646.25L461.25,638.75L463.75,638.75L463.75,646.25L466.25,646.25L466.25,638.75L468.75,638.75L468.75,646.25L471.25,646.25L471.25,638.75L473.75,638.75L473.75,646.25" style="fill:none;fill-rule:nonzero;stroke:rgb(230,205,106);stroke-width:1px;"/>
    </g>
    <g>
        <path d="M511.25,686.25L501.25,686.25L501.25,676.25L503.75,676.25L503.75,683.75L506.25,683.75L506.25,676.25L508.75,676.25L508.75,683.75L511.25,683.75L511.25,676.25" style="fill:none;fill-rule:nonzero;stroke:rgb(230,205,106);stroke-width:1px;"/>
    </g>
    <g>
        <path d="M561.25,723.75L538.75,723.75L538.75,713.75L541.25,713.75L541.25,721.25L543.75,721.25L543.75,713.75L546.25,713.75L546.25,721.25L548.75,721.25L548.75,713.75L551.25,713.75L551.25,721.25L553.75,721.25L553.75,713.75L556.25,713.75L556.25,721.25L558.75,721.25L558.75,713.75L561.25,713.75L561.25,721.25" style="fill:none;fill-rule:nonzero;stroke:rgb(230,205,106);stroke-width:1px;"/>
    </g>
    <g>
        <path d="M598.75,536.25L598.75,523.75L623.75,523.75L623.75,513.75L621.25,513.75L621.25,521.25L618.75,521.25L618.75,513.75L616.25,513.75L616.25,521.25L613.75,521.25L613.75,513.75L611.25,513.75L611.25,521.25L608.75,521.25L608.75,513.75L606.25,513.75L606.25,521.25L603.75,521.25L603.75,513.75L601.25,513.75L601.25,521.25L598.75,521.25L598.75,513.75L596.25,513.75L596.25,536.25L593.75,536.25L593.75,513.75L591.25,513.75L591.25,536.25L588.75,536.25L588.75,513.75L586.25,511.25L586.25,498.75L598.75,498.75L598.75,486.25L611.25,486.25L611.25,476.25L608.75,476.25L608.75,483.75L606.25,483.75L606.25,476.25L603.75,476.25L603.75,483.75L601.25,483.75L601.25,476.25L598.75,476.25L598.75,483.75L596.25,483.75L596.25,476.25L593.75,476.25L593.75,486.25L596.25,486.25L596.25,496.25L593.75,496.25L593.75,488.75L591.25,488.75L591.25,476.25L588.75,476.25L588.75,491.25L591.25,491.25L591.25,496.25L588.75,496.25L588.75,493.75L586.25,493.75L586.25,476.25L583.75,476.25L583.75,496.25L586.25,496.25L583.75,498.75L583.75,511.25L581.25,511.25L581.25,476.25L578.75,476.25L578.75,511.25L576.25,511.25L576.25,476.25L573.75,473.75L573.75,426.25L571.25,426.25L571.25,473.75L568.75,473.75L568.75,426.25L566.25,426.25L566.25,473.75L563.75,473.75L563.75,426.25" style="fill:none;fill-rule:nonzero;stroke:rgb(255,222,0);stroke-width:1px;"/>
    </g>
    <g>
        <path d="M523.75,448.75L513.75,448.75L513.75,438.75L516.25,438.75L516.25,446.25L518.75,446.25L518.75,438.75L521.25,438.75L521.25,446.25L523.75,446.25L523.75,438.75" style="fill:none;fill-rule:nonzero;stroke:rgb(255,222,0);stroke-width:1px;"/>
    </g>
    <g>
        <path d="M526.25,473.75L526.25,463.75L538.75,463.75L538.75,451.25L551.25,451.25L551.25,438.75L561.25,438.75L561.25,441.25L553.75,441.25L553.75,443.75L561.25,443.75L561.25,446.25L553.75,446.25L553.75,448.75L561.25,448.75L561.25,451.25L553.75,451.25L553.75,453.75L561.25,453.75L561.25,456.25L551.25,456.25L551.25,453.75L541.25,453.75L541.25,456.25L548.75,456.25L548.75,458.75L561.25,458.75L561.25,461.25L546.25,461.25L546.25,458.75L541.25,458.75L541.25,461.25L543.75,461.25L543.75,463.75L561.25,463.75L561.25,466.25L541.25,466.25L541.25,463.75L538.75,466.25L528.75,466.25L528.75,468.75L561.25,468.75L561.25,471.25L528.75,471.25L528.75,473.75L561.25,473.75" style="fill:none;fill-rule:nonzero;stroke:rgb(255,222,0);stroke-width:1px;"/>
    </g>
    <g>
        <path d="M511.25,473.75L501.25,473.75L501.25,463.75L503.75,463.75L503.75,471.25L506.25,471.25L506.25,463.75L508.75,463.75L508.75,471.25L511.25,471.25L511.25,463.75" style="fill:none;fill-rule:nonzero;stroke:rgb(255,222,0);stroke-width:1px;"/>
    </g>
    <g>
        <path d="M551.25,511.25L551.25,501.25L553.75,501.25L553.75,511.25L556.25,511.25L556.25,501.25L558.75,501.25L558.75,511.25L561.25,511.25L561.25,501.25L563.75,501.25L563.75,488.75L566.25,488.75L566.25,503.75L563.75,503.75L563.75,511.25L566.25,511.25L566.25,506.25L568.75,506.25L568.75,488.75L571.25,488.75L571.25,508.75L568.75,508.75L568.75,511.25L573.75,511.25L573.75,488.75" style="fill:none;fill-rule:nonzero;stroke:rgb(255,222,0);stroke-width:1px;"/>
    </g>
    <g>
        <path d="M511.25,511.25L501.25,511.25L501.25,501.25L503.75,501.25L503.75,508.75L506.25,508.75L506.25,501.25L508.75,501.25L508.75,508.75L511.25,508.75L511.25,501.25" style="fill:none;fill-rule:nonzero;stroke:rgb(255,222,0);stroke-width:1px;"/>
    </g>
    <g>
        <path d="M586.25,536.25L563.75,536.25L563.75,526.25L566.25,526.25L566.25,533.75L568.75,533.75L568.75,526.25L571.25,526.25L571.25,533.75L573.75,533.75L573.75,526.25L576.25,526.25L576.25,533.75L578.75,533.75L578.75,526.25L581.25,526.25L581.25,533.75L583.75,533.75L583.75,526.25L586.25,526.25L586.25,533.75" style="fill:none;fill-rule:nonzero;stroke:rgb(255,222,0);stroke-width:1px;"/>
    </g>
    <g>
        <path d="M311.25,413.75L311.25,423.75L308.75,423.75L308.75,413.75L306.25,413.75L306.25,423.75L303.75,423.75L303.75,413.75L301.25,413.75L301.25,423.75L298.75,426.25L298.75,436.25L296.25,436.25L296.25,426.25L293.75,426.25L293.75,436.25L291.25,436.25L291.25,426.25L288.75,426.25L288.75,436.25" style="fill:none;fill-rule:nonzero;stroke:rgb(123,98,32);stroke-width:1px;"/>
    </g>
    <g>
        <path d="M201.25,498.75L201.25,476.25L203.75,476.25L203.75,498.75L206.25,498.75L206.25,476.25L208.75,476.25L208.75,498.75L211.25,498.75L211.25,476.25" style="fill:none;fill-rule:nonzero;stroke:rgb(123,98,32);stroke-width:1px;"/>
    </g>
    <g>
        <path d="M436.25,501.25L436.25,511.25L426.25,511.25L426.25,508.75L433.75,508.75L433.75,506.25L426.25,506.25L426.25,503.75L433.75,503.75L433.75,501.25L426.25,501.25L423.75,498.75L413.75,498.75L413.75,496.25L423.75,496.25L423.75,493.75L413.75,493.75L413.75,491.25L423.75,491.25L423.75,488.75L413.75,488.75" style="fill:none;fill-rule:nonzero;stroke:rgb(123,98,32);stroke-width:1px;"/>
    </g>
    <g>
        <path d="M498.75,498.75L488.75,498.75L488.75,488.75L491.25,488.75L491.25,496.25L493.75,496.25L493.75,488.75L496.25,488.75L496.25,496.25L498.75,496.25L498.75,488.75" style="fill:none;fill-rule:nonzero;stroke:rgb(123,98,32);stroke-width:1px;"/>
    </g>
    <g>
        <path d="M523.75,501.25L523.75,511.25L521.25,511.25L521.25,501.25L518.75,501.25L518.75,511.25L516.25,511.25L516.25,501.25L513.75,501.25L513.75,511.25L511.25,513.75L511.25,523.75L508.75,523.75L508.75,513.75L506.25,513.75L506.25,523.75L503.75,523.75L503.75,513.75L501.25,513.75L501.25,523.75" style="fill:none;fill-rule:nonzero;stroke:rgb(123,98,32);stroke-width:1px;"/>
    </g>
    <g>
        <path d="M386.25,576.25L386.25,586.25L383.75,586.25L383.75,576.25L381.25,576.25L381.25,586.25L378.75,586.25L378.75,576.25L376.25,576.25L376.25,586.25L373.75,588.75L373.75,598.75L371.25,598.75L371.25,588.75L368.75,588.75L368.75,598.75L366.25,598.75L366.25,588.75L363.75,588.75L363.75,598.75" style="fill:none;fill-rule:nonzero;stroke:rgb(123,98,32);stroke-width:1px;"/>
    </g>
    <g>
        <path d="M348.75,598.75L338.75,598.75L338.75,588.75L341.25,588.75L341.25,596.25L343.75,596.25L343.75,588.75L346.25,588.75L346.25,596.25L348.75,596.25L348.75,588.75" style="fill:none;fill-rule:nonzero;stroke:rgb(123,98,32);stroke-width:1px;"/>
    </g>
    <g>
        <path d="M473.75,598.75L463.75,598.75L463.75,588.75L466.25,588.75L466.25,596.25L468.75,596.25L468.75,588.75L471.25,588.75L471.25,596.25L473.75,596.25L473.75,588.75" style="fill:none;fill-rule:nonzero;stroke:rgb(123,98,32);stroke-width:1px;"/>
    </g>
    <g>
        <path d="M573.75,613.75L573.75,623.75L563.75,623.75L563.75,621.25L571.25,621.25L571.25,618.75L563.75,618.75L563.75,616.25L571.25,616.25L571.25,613.75L563.75,613.75L561.25,611.25L526.25,611.25L526.25,608.75L561.25,608.75L561.25,606.25L526.25,606.25L526.25,603.75L561.25,603.75L561.25,601.25L526.25,601.25" style="fill:none;fill-rule:nonzero;stroke:rgb(123,98,32);stroke-width:1px;"/>
    </g>
    <g>
        <path d="M411.25,711.25L411.25,701.25L408.75,701.25L408.75,711.25L406.25,711.25L406.25,701.25L403.75,701.25L403.75,711.25L401.25,711.25L401.25,701.25L398.75,698.75L398.75,688.75L396.25,688.75L396.25,698.75L393.75,698.75L393.75,688.75L391.25,688.75L391.25,698.75L388.75,698.75L388.75,688.75L386.25,688.75L386.25,676.25L383.75,676.25L383.75,691.25L386.25,691.25L386.25,698.75L383.75,698.75L383.75,693.75L381.25,693.75L381.25,676.25L378.75,676.25L378.75,696.25L381.25,696.25L381.25,698.75L376.25,698.75L376.25,676.25L373.75,673.75L373.75,638.75L371.25,638.75L371.25,673.75L368.75,673.75L368.75,638.75L366.25,638.75L366.25,673.75L363.75,673.75L363.75,638.75" style="fill:none;fill-rule:nonzero;stroke:rgb(123,98,32);stroke-width:1px;"/>
    </g>
    <g>
        <path d="M363.75,623.75L363.75,613.75L373.75,613.75L373.75,616.25L366.25,616.25L366.25,618.75L373.75,618.75L373.75,621.25L366.25,621.25L366.25,623.75L373.75,623.75L376.25,626.25L386.25,626.25L386.25,628.75L376.25,628.75L376.25,631.25L386.25,631.25L386.25,633.75L376.25,633.75L376.25,636.25L386.25,636.25" style="fill:none;fill-rule:nonzero;stroke:rgb(123,98,32);stroke-width:1px;"/>
    </g>
    <g>
        <path d="M486.25,638.75L486.25,648.75L483.75,648.75L483.75,638.75L481.25,638.75L481.25,648.75L478.75,648.75L478.75,638.75L476.25,638.75L476.25,648.75L473.75,651.25L473.75,661.25L471.25,661.25L471.25,651.25L468.75,651.25L468.75,661.25L466.25,661.25L466.25,651.25L463.75,651.25L463.75,661.25L461.25,661.25L461.25,651.25L458.75,651.25L458.75,661.25L456.25,661.25L456.25,651.25L453.75,651.25L453.75,661.25L451.25,661.25L451.25,651.25" style="fill:none;fill-rule:nonzero;stroke:rgb(123,98,32);stroke-width:1px;"/>
    </g>
    <g>
        <path d="M511.25,701.25L511.25,711.25L501.25,711.25L501.25,708.75L508.75,708.75L508.75,706.25L501.25,706.25L501.25,703.75L508.75,703.75L508.75,701.25L501.25,701.25L498.75,698.75L488.75,698.75L488.75,696.25L498.75,696.25L498.75,693.75L488.75,693.75L488.75,691.25L498.75,691.25L498.75,688.75L488.75,688.75L488.75,686.25L498.75,686.25L498.75,683.75L488.75,683.75L488.75,681.25L498.75,681.25L498.75,678.75L488.75,678.75L488.75,676.25L498.75,676.25" style="fill:none;fill-rule:nonzero;stroke:rgb(123,98,32);stroke-width:1px;"/>
    </g>
    <g>
        <path d="M586.25,686.25L576.25,686.25L576.25,676.25L578.75,676.25L578.75,683.75L581.25,683.75L581.25,676.25L583.75,676.25L583.75,683.75L586.25,683.75L586.25,676.25" style="fill:none;fill-rule:nonzero;stroke:rgb(123,98,32);stroke-width:1px;"/>
    </g>
    <g>
        <path d="M548.75,736.25L538.75,736.25L538.75,726.25L541.25,726.25L541.25,733.75L543.75,733.75L543.75,726.25L546.25,726.25L546.25,733.75L548.75,733.75L548.75,726.25" style="fill:none;fill-rule:nonzero;stroke:rgb(123,98,32);stroke-width:1px;"/>
    </g>
    <g>
        <path d="M436.25,401.25L436.25,413.75L448.75,413.75L448.75,436.25L446.25,436.25L446.25,416.25L443.75,416.25L443.75,436.25L441.25,436.25L441.25,416.25L438.75,416.25L438.75,436.25L436.25,436.25L436.25,416.25L433.75,416.25L433.75,401.25L431.25,401.25L431.25,418.75L433.75,418.75L433.75,436.25L431.25,436.25L431.25,421.25L428.75,421.25L428.75,401.25L426.25,401.25L426.25,423.75L428.75,423.75L428.75,436.25L426.25,436.25L426.25,426.25L423.75,426.25L423.75,436.25L421.25,436.25L421.25,426.25L418.75,426.25L418.75,436.25L416.25,436.25L416.25,426.25L413.75,426.25L413.75,436.25" style="fill:none;fill-rule:nonzero;stroke:rgb(65,82,139);stroke-width:1px;"/>
    </g>
    <g>
        <path d="M226.25,463.75L226.25,473.75L238.75,473.75L238.75,486.25L288.75,486.25L288.75,498.75L311.25,498.75L311.25,496.25L291.25,496.25L291.25,493.75L311.25,493.75L311.25,491.25L291.25,491.25L291.25,488.75L311.25,488.75L311.25,486.25L323.75,486.25L323.75,483.75L308.75,483.75L308.75,486.25L291.25,486.25L291.25,483.75L306.25,483.75L306.25,481.25L323.75,481.25L323.75,478.75L303.75,478.75L303.75,481.25L288.75,481.25L288.75,483.75L241.25,483.75L241.25,481.25L286.25,481.25L286.25,478.75L301.25,478.75L301.25,476.25L323.75,476.25L323.75,473.75L336.25,473.75L336.25,471.25L321.25,471.25L321.25,473.75L298.75,473.75L298.75,476.25L283.75,476.25L283.75,478.75L241.25,478.75L241.25,476.25L281.25,476.25L281.25,473.75L296.25,473.75L296.25,471.25L318.75,471.25L318.75,468.75L336.25,468.75L336.25,466.25L316.25,466.25L316.25,468.75L293.75,468.75L293.75,471.25L278.75,471.25L278.75,473.75L241.25,473.75L241.25,471.25L276.25,471.25L276.25,468.75L291.25,468.75L291.25,466.25L313.75,466.25L313.75,463.75L336.25,463.75L336.25,461.25L348.75,461.25L348.75,458.75L333.75,458.75L333.75,461.25L311.25,461.25L311.25,463.75L288.75,463.75L288.75,466.25L273.75,466.25L273.75,468.75L238.75,468.75L238.75,471.25L228.75,471.25L228.75,468.75L236.25,468.75L236.25,466.25L271.25,466.25L271.25,463.75L286.25,463.75L286.25,461.25L308.75,461.25L308.75,458.75L331.25,458.75L331.25,456.25L348.75,456.25L348.75,453.75L328.75,453.75L328.75,456.25L306.25,456.25L306.25,458.75L283.75,458.75L283.75,461.25L276.25,461.25L276.25,458.75L281.25,458.75L281.25,456.25L303.75,456.25L303.75,453.75L326.25,453.75L326.25,451.25L348.75,451.25L348.75,448.75L373.75,448.75L373.75,446.25L346.25,446.25L346.25,448.75L323.75,448.75L323.75,451.25L301.25,451.25L301.25,453.75L278.75,453.75L278.75,456.25L276.25,456.25L276.25,451.25L298.75,451.25L301.25,448.75L321.25,448.75L321.25,446.25L343.75,446.25L343.75,443.75L373.75,443.75L373.75,441.25L341.25,441.25L341.25,443.75L318.75,443.75L318.75,446.25L301.25,446.25L301.25,443.75L316.25,443.75L316.25,441.25L338.75,441.25L338.75,438.75L373.75,438.75" style="fill:none;fill-rule:nonzero;stroke:rgb(65,82,139);stroke-width:1px;"/>
    </g>
    <g>
        <path d="M313.75,441.25L313.75,438.75L336.25,438.75L336.25,426.25L333.75,426.25L333.75,436.25L331.25,436.25L331.25,426.25L328.75,426.25L328.75,436.25L326.25,436.25L326.25,426.25L323.75,426.25L323.75,436.25L321.25,436.25L321.25,426.25L318.75,426.25L318.75,436.25L316.25,436.25L316.25,426.25L313.75,426.25L313.75,436.25L311.25,438.75L311.25,441.25L308.75,441.25L308.75,438.75L306.25,438.75L306.25,441.25L303.75,441.25L303.75,438.75L301.25,438.75L301.25,441.25" style="fill:none;fill-rule:nonzero;stroke:rgb(65,82,139);stroke-width:1px;"/>
    </g>
    <g>
        <path d="M268.75,463.75L228.75,463.75L228.75,466.25L233.75,466.25" style="fill:none;fill-rule:nonzero;stroke:rgb(65,82,139);stroke-width:1px;"/>
    </g>
    <g>
        <path d="M586.25,648.75L576.25,648.75L576.25,638.75L578.75,638.75L578.75,646.25L581.25,646.25L581.25,638.75L583.75,638.75L583.75,646.25L586.25,646.25L586.25,638.75" style="fill:none;fill-rule:nonzero;stroke:rgb(65,82,139);stroke-width:1px;"/>
    </g>
    <g>
        <path d="M548.75,523.75L548.75,498.75L561.25,498.75L561.25,486.25L573.75,486.25L573.75,476.25L571.25,476.25L571.25,483.75L568.75,483.75L568.75,476.25L566.25,476.25L566.25,483.75L563.75,483.75L563.75,476.25L561.25,476.25L561.25,483.75L558.75,483.75L558.75,476.25L556.25,476.25L556.25,486.25L558.75,486.25L558.75,496.25L556.25,496.25L556.25,488.75L553.75,488.75L553.75,476.25L551.25,476.25L551.25,491.25L553.75,491.25L553.75,496.25L551.25,496.25L551.25,493.75L548.75,493.75L548.75,476.25L546.25,476.25L546.25,496.25L548.75,496.25L546.25,498.75L546.25,523.75L543.75,523.75L543.75,476.25L541.25,476.25L541.25,523.75L538.75,523.75L538.75,476.25L536.25,476.25L536.25,486.25L533.75,486.25L533.75,476.25L531.25,476.25L531.25,486.25L528.75,486.25L528.75,476.25L526.25,476.25L526.25,486.25L523.75,486.25L523.75,451.25L521.25,451.25L521.25,488.75L523.75,488.75L523.75,498.75L521.25,498.75L521.25,491.25L518.75,491.25L518.75,451.25L516.25,451.25L516.25,493.75L518.75,493.75L518.75,498.75L516.25,498.75L516.25,496.25L513.75,496.25L513.75,451.25" style="fill:none;fill-rule:nonzero;stroke:white;stroke-width:1px;"/>
    </g>
    <g>
        <path d="M513.75,498.75L501.25,498.75L501.25,476.25L503.75,476.25L503.75,496.25L506.25,496.25L506.25,476.25L508.75,476.25L508.75,496.25L511.25,496.25L511.25,476.25" style="fill:none;fill-rule:nonzero;stroke:white;stroke-width:1px;"/>
    </g>
    <g>
        <path d="M586.25,523.75L563.75,523.75L563.75,513.75L566.25,513.75L566.25,521.25L568.75,521.25L568.75,513.75L571.25,513.75L571.25,521.25L573.75,521.25L573.75,513.75L576.25,513.75L576.25,521.25L578.75,521.25L578.75,513.75L581.25,513.75L581.25,521.25L583.75,521.25L583.75,513.75L586.25,513.75L586.25,521.25" style="fill:none;fill-rule:nonzero;stroke:white;stroke-width:1px;"/>
    </g>
    <g>
        <path d="M536.25,736.25L513.75,736.25L513.75,726.25L516.25,726.25L516.25,733.75L518.75,733.75L518.75,726.25L521.25,726.25L521.25,733.75L523.75,733.75L523.75,726.25L526.25,726.25L526.25,733.75L528.75,733.75L528.75,726.25L531.25,726.25L531.25,733.75L533.75,733.75L533.75,726.25L536.25,726.25L536.25,733.75" style="fill:none;fill-rule:nonzero;stroke:white;stroke-width:1px;"/>
    </g>
    <g>
        <path d="M398.75,711.25L376.25,711.25L376.25,701.25L378.75,701.25L378.75,708.75L381.25,708.75L381.25,701.25L383.75,701.25L383.75,708.75L386.25,708.75L386.25,701.25L388.75,701.25L388.75,708.75L391.25,708.75L391.25,701.25L393.75,701.25L393.75,708.75L396.25,708.75L396.25,701.25L398.75,701.25L398.75,708.75" style="fill:none;fill-rule:nonzero;stroke:rgb(172,172,172);stroke-width:1px;"/>
    </g>
    <g>
        <path d="M508.75,331.25L508.75,348.75L511.25,348.75L511.25,328.75L506.25,328.75L506.25,348.75L501.25,348.75L501.25,346.25L503.75,346.25L503.75,343.75L501.25,343.75L501.25,341.25L503.75,341.25L503.75,338.75L501.25,338.75L501.25,336.25L503.75,336.25L503.75,333.75L498.75,333.75L498.75,336.25L488.75,336.25L488.75,333.75L496.25,333.75L496.25,331.25L503.75,331.25L503.75,328.75L493.75,328.75L493.75,331.25L488.75,331.25L488.75,328.75L491.25,328.75L491.25,326.25L511.25,326.25L511.25,323.75L523.75,323.75L523.75,321.25L508.75,321.25L508.75,323.75L488.75,323.75L488.75,326.25L486.25,323.75L476.25,323.75L476.25,321.25L506.25,321.25L506.25,318.75L523.75,318.75L523.75,316.25L503.75,316.25L503.75,318.75L476.25,318.75L476.25,316.25L501.25,316.25L501.25,313.75L523.75,313.75L523.75,311.25L498.75,311.25L498.75,313.75L476.25,313.75L476.25,311.25L496.25,311.25L496.25,308.75L523.75,308.75L523.75,306.25L493.75,306.25L493.75,308.75L476.25,308.75L476.25,306.25L491.25,306.25L491.25,303.75L523.75,303.75L523.75,301.25L488.75,301.25L488.75,303.75L476.25,303.75L476.25,301.25L486.25,301.25L486.25,298.75L523.75,298.75L523.75,296.25L483.75,296.25L483.75,298.75L476.25,298.75L476.25,296.25L481.25,296.25L481.25,293.75L523.75,293.75L523.75,291.25L478.75,291.25L478.75,293.75L476.25,293.75L476.25,288.75L523.75,288.75L523.75,286.25L536.25,286.25L536.25,283.75L521.25,283.75L521.25,286.25L476.25,286.25L476.25,283.75L518.75,283.75L518.75,281.25L536.25,281.25L536.25,278.75L516.25,278.75L516.25,281.25L476.25,281.25L476.25,278.75L513.75,278.75L513.75,276.25L536.25,276.25L536.25,273.75L511.25,273.75L511.25,276.25L476.25,276.25L476.25,273.75L508.75,273.75L508.75,271.25L536.25,271.25L536.25,268.75L506.25,268.75L506.25,271.25L476.25,271.25L476.25,268.75L503.75,268.75L503.75,266.25L536.25,266.25L536.25,263.75L501.25,263.75L501.25,266.25L476.25,266.25L476.25,263.75L498.75,263.75" style="fill:none;fill-rule:nonzero;stroke:black;stroke-opacity:0;stroke-width:1px;"/>
    </g>
    <g>
        <path d="M648.75,273.75L636.25,273.75L636.25,286.25L623.75,286.25L623.75,298.75L613.75,298.75L613.75,296.25L621.25,296.25L621.25,293.75L613.75,293.75L613.75,291.25L621.25,291.25L621.25,288.75L613.75,288.75L613.75,286.25L601.25,286.25L601.25,283.75L616.25,283.75L616.25,286.25L621.25,286.25L621.25,283.75L618.75,283.75L618.75,281.25L601.25,281.25L601.25,278.75L621.25,278.75L621.25,281.25L623.75,281.25L623.75,283.75L633.75,283.75L633.75,281.25L626.25,281.25L626.25,278.75L623.75,278.75L623.75,276.25L601.25,276.25L601.25,273.75L586.25,273.75L586.25,286.25L573.75,286.25L573.75,311.25L563.75,311.25L563.75,308.75L571.25,308.75L571.25,306.25L563.75,306.25L563.75,303.75L571.25,303.75L571.25,301.25L563.75,301.25L563.75,298.75L571.25,298.75L571.25,296.25L563.75,296.25L563.75,293.75L571.25,293.75L571.25,291.25L563.75,291.25L563.75,288.75L571.25,288.75L571.25,286.25L551.25,286.25L551.25,283.75L583.75,283.75L583.75,281.25L551.25,281.25L551.25,278.75L583.75,278.75L583.75,276.25L551.25,276.25L551.25,273.75L583.75,273.75L583.75,271.25L551.25,271.25L551.25,268.75L586.25,268.75L586.25,271.25L603.75,271.25L603.75,273.75L626.25,273.75L626.25,276.25L628.75,276.25L628.75,278.75L633.75,278.75L633.75,276.25L631.25,276.25L631.25,273.75L628.75,273.75L628.75,271.25L606.25,271.25L606.25,268.75L588.75,268.75L588.75,266.25L551.25,266.25L551.25,263.75L591.25,263.75L591.25,266.25L608.75,266.25L608.75,268.75L631.25,268.75L631.25,271.25L633.75,271.25L633.75,273.75L636.25,271.25L648.75,271.25L648.75,268.75L633.75,268.75L633.75,266.25L611.25,266.25L611.25,263.75L593.75,263.75" style="fill:none;fill-rule:nonzero;stroke:black;stroke-opacity:0;stroke-width:1px;"/>
    </g>
    <g>
        <path d="M613.75,263.75L648.75,263.75L648.75,266.25L636.25,266.25" style="fill:none;fill-rule:nonzero;stroke:black;stroke-opacity:0;stroke-width:1px;"/>
    </g>
    <g>
        <path d="M686.25,348.75L663.75,348.75L663.75,338.75L666.25,338.75L666.25,346.25L668.75,346.25L668.75,338.75L671.25,338.75L671.25,346.25L673.75,346.25L673.75,338.75L676.25,338.75L676.25,346.25L678.75,346.25L678.75,338.75L681.25,338.75L681.25,346.25L683.75,346.25L683.75,338.75L686.25,338.75L686.25,346.25" style="fill:none;fill-rule:nonzero;stroke:black;stroke-opacity:0;stroke-width:1px;"/>
    </g>
    <g>
        <path d="M336.25,598.75L336.25,586.25L348.75,586.25L348.75,576.25L346.25,576.25L346.25,583.75L343.75,583.75L343.75,576.25L341.25,576.25L341.25,583.75L338.75,583.75L338.75,576.25L336.25,576.25L336.25,583.75L333.75,583.75L333.75,598.75L331.25,598.75L331.25,581.25L333.75,581.25L333.75,576.25L331.25,576.25L331.25,578.75L328.75,578.75L328.75,598.75L326.25,598.75L326.25,576.25L328.75,576.25" style="fill:none;fill-rule:nonzero;stroke:black;stroke-opacity:0;stroke-width:1px;"/>
    </g>
    <g>
        <path d="M673.75,643.75L673.75,608.75L671.25,608.75L671.25,576.25L673.75,576.25L673.75,606.25" style="fill:none;fill-rule:nonzero;stroke:black;stroke-opacity:0;stroke-width:1px;"/>
    </g>
    <g>
        <path d="M598.75,598.75L588.75,598.75L588.75,588.75L591.25,588.75L591.25,596.25L593.75,596.25L593.75,588.75L596.25,588.75L596.25,596.25L598.75,596.25L598.75,588.75" style="fill:none;fill-rule:nonzero;stroke:black;stroke-opacity:0;stroke-width:1px;"/>
    </g>
    <g>
        <path d="M373.75,636.25L363.75,636.25L363.75,626.25L366.25,626.25L366.25,633.75L368.75,633.75L368.75,626.25L371.25,626.25L371.25,633.75L373.75,633.75L373.75,626.25" style="fill:none;fill-rule:nonzero;stroke:black;stroke-opacity:0;stroke-width:1px;"/>
    </g>
    <g>
        <path d="M363.75,698.75L363.75,676.25L366.25,676.25L366.25,698.75L368.75,698.75L368.75,676.25L371.25,676.25L371.25,698.75L373.75,698.75L373.75,676.25" style="fill:none;fill-rule:nonzero;stroke:black;stroke-opacity:0;stroke-width:1px;"/>
    </g>
    <g>
        <path d="M643.75,483.75L748.75,483.75L748.75,473.75L773.75,473.75L773.75,463.75L771.25,463.75L771.25,471.25L768.75,471.25L768.75,463.75L766.25,463.75L766.25,471.25L763.75,471.25L763.75,463.75L761.25,463.75L761.25,471.25L758.75,471.25L758.75,463.75L756.25,463.75L756.25,471.25L753.75,471.25L753.75,463.75L751.25,463.75L751.25,471.25L748.75,471.25L748.75,463.75L746.25,463.75L746.25,481.25L743.75,481.25L743.75,463.75L741.25,463.75L741.25,481.25L738.75,481.25L738.75,463.75L736.25,463.75L736.25,481.25L733.75,481.25L733.75,463.75L731.25,463.75L731.25,481.25L728.75,481.25L728.75,463.75L726.25,463.75L726.25,481.25L723.75,481.25L723.75,448.75L736.25,448.75L736.25,436.25L748.75,436.25L748.75,423.75L761.25,423.75L761.25,413.75L758.75,413.75L758.75,421.25L756.25,421.25L756.25,413.75L753.75,413.75L753.75,421.25L751.25,421.25L751.25,413.75L748.75,413.75L748.75,421.25L746.25,421.25L746.25,413.75L743.75,413.75L743.75,423.75L746.25,423.75L746.25,433.75L743.75,433.75L743.75,426.25L741.25,426.25L741.25,413.75L738.75,413.75L738.75,428.75L741.25,428.75L741.25,433.75L738.75,433.75L738.75,431.25L736.25,431.25L736.25,413.75L733.75,413.75L733.75,433.75L736.25,433.75L733.75,436.25L733.75,446.25L731.25,446.25L731.25,413.75L728.75,413.75L728.75,446.25L726.25,446.25L726.25,413.75L723.75,413.75L723.75,446.25L721.25,446.25L721.25,413.75L718.75,413.75L718.75,448.75L721.25,448.75L721.25,481.25L718.75,481.25L718.75,451.25L716.25,451.25L716.25,413.75L713.75,413.75L713.75,453.75L716.25,453.75L716.25,481.25L713.75,481.25L713.75,456.25L711.25,456.25L711.25,413.75L708.75,413.75L708.75,458.75L711.25,458.75L711.25,481.25L708.75,481.25L708.75,461.25L706.25,461.25L706.25,413.75L703.75,413.75L703.75,463.75L706.25,463.75L706.25,481.25L703.75,481.25L703.75,466.25L701.25,466.25L701.25,413.75L698.75,413.75L698.75,468.75L701.25,468.75L701.25,481.25L698.75,481.25L698.75,471.25L696.25,471.25L696.25,413.75L693.75,413.75L693.75,473.75L696.25,473.75L696.25,481.25L693.75,481.25L693.75,476.25L691.25,476.25L691.25,413.75L688.75,413.75L688.75,478.75L691.25,478.75L691.25,481.25L686.25,481.25L686.25,413.75L683.75,413.75L683.75,481.25L681.25,481.25L681.25,413.75L678.75,413.75L678.75,481.25L676.25,481.25L676.25,413.75L673.75,413.75L673.75,398.75L686.25,398.75L686.25,386.25L698.75,386.25L698.75,361.25L711.25,361.25L711.25,351.25L708.75,351.25L708.75,358.75L706.25,358.75L706.25,351.25L703.75,351.25L703.75,358.75L701.25,358.75L701.25,351.25L698.75,351.25L698.75,358.75L696.25,358.75L696.25,351.25L693.75,351.25L693.75,361.25L696.25,361.25L696.25,383.75L693.75,383.75L693.75,363.75L691.25,363.75L691.25,351.25L688.75,351.25L688.75,366.25L691.25,366.25L691.25,383.75L688.75,383.75L688.75,368.75L686.25,368.75L686.25,363.75L683.75,363.75L683.75,371.25L686.25,371.25L686.25,383.75L683.75,383.75L683.75,373.75L681.25,373.75L681.25,363.75L678.75,363.75L678.75,376.25L681.25,376.25L681.25,386.25L683.75,386.25L683.75,396.25L681.25,396.25L681.25,388.75L678.75,388.75L678.75,378.75L676.25,378.75L676.25,363.75L673.75,363.75L673.75,381.25L676.25,381.25L676.25,391.25L678.75,391.25L678.75,396.25L676.25,396.25L676.25,393.75L673.75,393.75L673.75,383.75L671.25,383.75L671.25,363.75L668.75,363.75L668.75,386.25L671.25,386.25L671.25,396.25L673.75,396.25L671.25,398.75L671.25,416.25L673.75,416.25L673.75,481.25L671.25,481.25L671.25,418.75L668.75,418.75L668.75,388.75L666.25,388.75L666.25,363.75L663.75,363.75L663.75,391.25L666.25,391.25L666.25,421.25L668.75,421.25L668.75,481.25L666.25,481.25L666.25,423.75L663.75,423.75L663.75,393.75L661.25,393.75L661.25,376.25L658.75,376.25L658.75,396.25L661.25,396.25L661.25,426.25L663.75,426.25L663.75,481.25L661.25,481.25L661.25,428.75L658.75,428.75L658.75,398.75L656.25,398.75L656.25,376.25L653.75,376.25L653.75,401.25L656.25,401.25L656.25,431.25L658.75,431.25L658.75,481.25L656.25,481.25L656.25,433.75L653.75,433.75L653.75,403.75L651.25,403.75L651.25,376.25L648.75,376.25L648.75,406.25L651.25,406.25L651.25,436.25L653.75,436.25L653.75,481.25L651.25,481.25L651.25,438.75L648.75,438.75L648.75,408.75L646.25,408.75L646.25,376.25L643.75,376.25L643.75,411.25L646.25,411.25L646.25,441.25L648.75,441.25L648.75,448.75L646.25,448.75L646.25,443.75L643.75,443.75L643.75,413.75L641.25,413.75L641.25,376.25L638.75,376.25L638.75,416.25L641.25,416.25L641.25,446.25L643.75,446.25L643.75,448.75L638.75,448.75L638.75,418.75L636.25,418.75L636.25,388.75L633.75,388.75L633.75,421.25L636.25,421.25L636.25,448.75L633.75,448.75L633.75,423.75L631.25,423.75L631.25,388.75L628.75,388.75L628.75,426.25L631.25,426.25L631.25,448.75L628.75,448.75L628.75,428.75L626.25,428.75L626.25,388.75L623.75,388.75L623.75,431.25L626.25,431.25L626.25,448.75L623.75,448.75L623.75,433.75L621.25,433.75L621.25,388.75L618.75,388.75L618.75,436.25L621.25,436.25L621.25,448.75L618.75,448.75L618.75,438.75L616.25,438.75L616.25,388.75L613.75,388.75L613.75,441.25L616.25,441.25L616.25,448.75L613.75,448.75L613.75,443.75L611.25,443.75L611.25,363.75L608.75,363.75L608.75,446.25L611.25,446.25L611.25,448.75L606.25,448.75L606.25,363.75L603.75,363.75L603.75,448.75L601.25,448.75L601.25,363.75L598.75,361.25L598.75,348.75L611.25,348.75L611.25,336.25L648.75,336.25L648.75,288.75L646.25,288.75L646.25,333.75L643.75,333.75L643.75,288.75L641.25,288.75L641.25,333.75L638.75,333.75L638.75,288.75" style="fill:none;fill-rule:nonzero;stroke:rgb(255,90,0);stroke-width:1px;"/>
    </g>
    <g>
        <path d="M626.25,301.25L626.25,313.75L576.25,313.75L576.25,338.75L526.25,338.75L526.25,351.25L513.75,351.25L513.75,376.25L488.75,376.25L488.75,388.75L451.25,388.75L451.25,411.25L453.75,411.25L453.75,391.25L456.25,391.25L456.25,411.25L458.75,411.25L458.75,391.25L461.25,391.25L461.25,411.25L463.75,411.25L463.75,423.75L466.25,423.75L466.25,408.75L463.75,408.75L463.75,391.25L466.25,391.25L466.25,406.25L468.75,406.25L468.75,423.75L471.25,423.75L471.25,403.75L468.75,403.75L468.75,391.25L471.25,391.25L471.25,401.25L473.75,401.25L473.75,423.75L476.25,423.75L476.25,448.75L478.75,448.75L478.75,421.25L476.25,421.25L476.25,398.75L473.75,398.75L473.75,391.25L476.25,391.25L476.25,396.25L478.75,396.25L478.75,418.75L481.25,418.75L481.25,448.75L483.75,448.75L483.75,416.25L481.25,416.25L481.25,393.75L478.75,393.75L478.75,391.25L483.75,391.25L483.75,413.75L486.25,413.75L486.25,448.75L488.75,448.75L488.75,461.25L491.25,461.25L491.25,446.25L488.75,446.25L488.75,411.25L486.25,411.25L486.25,391.25L488.75,391.25L488.75,408.75L491.25,408.75L491.25,443.75L493.75,443.75L493.75,461.25L496.25,461.25L496.25,441.25L493.75,441.25L493.75,406.25L491.25,406.25L491.25,378.75L493.75,378.75L493.75,403.75L496.25,403.75L496.25,438.75L498.75,438.75L498.75,461.25" style="fill:none;fill-rule:nonzero;stroke:rgb(255,90,0);stroke-width:1px;"/>
    </g>
    <g>
        <path d="M548.75,288.75L548.75,313.75L561.25,313.75L561.25,336.25L558.75,336.25L558.75,316.25L556.25,316.25L556.25,336.25L553.75,336.25L553.75,316.25L551.25,316.25L551.25,336.25L548.75,336.25L548.75,316.25L546.25,316.25L546.25,288.75L543.75,288.75L543.75,318.75L546.25,318.75L546.25,336.25L543.75,336.25L543.75,321.25L541.25,321.25L541.25,288.75L538.75,288.75L538.75,323.75L541.25,323.75L541.25,336.25L538.75,336.25L538.75,326.25L536.25,326.25L536.25,336.25L533.75,336.25L533.75,326.25L531.25,326.25L531.25,336.25L528.75,336.25L528.75,326.25L526.25,326.25L526.25,336.25" style="fill:none;fill-rule:nonzero;stroke:rgb(255,90,0);stroke-width:1px;"/>
    </g>
    <g>
        <path d="M598.75,288.75L598.75,301.25L611.25,301.25L611.25,311.25L608.75,311.25L608.75,303.75L606.25,303.75L606.25,311.25L603.75,311.25L603.75,303.75L601.25,303.75L601.25,311.25L598.75,311.25L598.75,303.75L596.25,303.75L596.25,288.75L593.75,288.75L593.75,306.25L596.25,306.25L596.25,311.25L593.75,311.25L593.75,308.75L591.25,308.75L591.25,288.75L588.75,288.75L588.75,311.25L591.25,311.25" style="fill:none;fill-rule:nonzero;stroke:rgb(255,90,0);stroke-width:1px;"/>
    </g>
    <g>
        <path d="M561.25,423.75L561.25,411.25L573.75,411.25L573.75,398.75L598.75,398.75L598.75,376.25L596.25,376.25L596.25,396.25L593.75,396.25L593.75,376.25L591.25,376.25L591.25,396.25L588.75,396.25L588.75,376.25L586.25,373.75L586.25,361.25L596.25,361.25L596.25,346.25L608.75,346.25L608.75,333.75L636.25,333.75L636.25,301.25L633.75,301.25L633.75,331.25L631.25,331.25L631.25,301.25L628.75,301.25L628.75,331.25L626.25,331.25L626.25,316.25L623.75,316.25L623.75,331.25L621.25,331.25L621.25,316.25L618.75,316.25L618.75,331.25L616.25,331.25L616.25,316.25L613.75,316.25L613.75,331.25L611.25,331.25L611.25,316.25L608.75,316.25L608.75,331.25L606.25,331.25L606.25,316.25L603.75,316.25L603.75,333.75L606.25,333.75L606.25,343.75L603.75,343.75L603.75,336.25L601.25,336.25L601.25,316.25L598.75,316.25L598.75,338.75L601.25,338.75L601.25,343.75L598.75,343.75L598.75,341.25L596.25,341.25L596.25,316.25L593.75,316.25L593.75,343.75L596.25,343.75L593.75,346.25L593.75,358.75L591.25,358.75L591.25,316.25L588.75,316.25L588.75,358.75L586.25,358.75L586.25,316.25L583.75,316.25L583.75,373.75L581.25,373.75L581.25,316.25L578.75,316.25L578.75,373.75L576.25,373.75L576.25,341.25L573.75,341.25L573.75,361.25L571.25,361.25L571.25,341.25L568.75,341.25L568.75,361.25L566.25,361.25L566.25,341.25L563.75,341.25L563.75,361.25L561.25,361.25L561.25,341.25L558.75,341.25L558.75,363.75L561.25,363.75L561.25,376.25L573.75,376.25L573.75,388.75L586.25,388.75L586.25,396.25L583.75,396.25L583.75,391.25L581.25,391.25L581.25,396.25L578.75,396.25L578.75,391.25L576.25,391.25L576.25,396.25L573.75,396.25L573.75,391.25L571.25,391.25L571.25,378.75L568.75,378.75L568.75,393.75L571.25,393.75L571.25,408.75L568.75,408.75L568.75,396.25L566.25,396.25L566.25,378.75L563.75,378.75L563.75,398.75L566.25,398.75L566.25,408.75L563.75,408.75L563.75,401.25L561.25,401.25L561.25,378.75L558.75,378.75L558.75,366.25L556.25,366.25L556.25,341.25L553.75,341.25L553.75,368.75L556.25,368.75L556.25,381.25L558.75,381.25L558.75,403.75L561.25,403.75L561.25,408.75L558.75,408.75L558.75,406.25L556.25,406.25L556.25,383.75L553.75,383.75L553.75,371.25L551.25,371.25L551.25,341.25L548.75,341.25L548.75,373.75L551.25,373.75L551.25,386.25L553.75,386.25L553.75,408.75L556.25,408.75L556.25,411.25L558.75,411.25L558.75,423.75L556.25,423.75L556.25,413.75L553.75,413.75L553.75,411.25L551.25,411.25L551.25,388.75L548.75,388.75L548.75,376.25L546.25,376.25L546.25,341.25L543.75,341.25L543.75,378.75L546.25,378.75L546.25,391.25L548.75,391.25L548.75,398.75L546.25,398.75L546.25,393.75L543.75,393.75L543.75,381.25L541.25,381.25L541.25,341.25L538.75,341.25L538.75,383.75L541.25,383.75L541.25,396.25L543.75,396.25L543.75,398.75L538.75,398.75L538.75,386.25L536.25,386.25L536.25,341.25L533.75,341.25L533.75,388.75L536.25,388.75L536.25,423.75L533.75,423.75L533.75,391.25L531.25,391.25L531.25,341.25L528.75,341.25L528.75,393.75L531.25,393.75L531.25,423.75L528.75,423.75L528.75,396.25L526.25,396.25L526.25,353.75L523.75,353.75L523.75,398.75L526.25,398.75L526.25,423.75" style="fill:none;fill-rule:nonzero;stroke:rgb(255,90,0);stroke-width:1px;"/>
    </g>
    <g>
        <path d="M636.25,373.75L626.25,373.75L626.25,338.75L628.75,338.75L628.75,371.25L631.25,371.25L631.25,338.75L633.75,338.75L633.75,371.25L636.25,371.25L636.25,338.75L638.75,338.75L638.75,361.25L641.25,361.25L641.25,338.75L643.75,338.75L643.75,361.25L646.25,361.25L646.25,338.75L648.75,338.75L648.75,361.25L651.25,361.25L651.25,351.25L653.75,351.25L653.75,361.25L656.25,361.25L656.25,351.25L658.75,351.25L658.75,361.25L661.25,361.25L661.25,351.25" style="fill:none;fill-rule:nonzero;stroke:rgb(255,90,0);stroke-width:1px;"/>
    </g>
    <g>
        <path d="M488.75,373.75L488.75,351.25L491.25,351.25L491.25,373.75L493.75,373.75L493.75,351.25L496.25,351.25L496.25,373.75L498.75,373.75L498.75,351.25" style="fill:none;fill-rule:nonzero;stroke:rgb(255,90,0);stroke-width:1px;"/>
    </g>
    <g>
        <path d="M521.25,353.75L521.25,401.25L523.75,401.25L523.75,411.25L521.25,411.25L521.25,403.75L518.75,403.75L518.75,353.75L516.25,353.75L516.25,406.25L518.75,406.25L518.75,411.25L516.25,411.25L516.25,408.75L513.75,408.75L513.75,378.75L511.25,378.75L511.25,411.25L513.75,411.25L511.25,413.75L511.25,436.25L508.75,436.25L508.75,378.75L506.25,378.75L506.25,436.25L503.75,436.25L503.75,378.75L501.25,378.75L501.25,436.25L498.75,436.25L498.75,378.75L496.25,378.75L496.25,401.25" style="fill:none;fill-rule:nonzero;stroke:rgb(255,90,0);stroke-width:1px;"/>
    </g>
    <g>
        <path d="M461.25,363.75L461.25,376.25L473.75,376.25L473.75,386.25L471.25,386.25L471.25,378.75L468.75,378.75L468.75,386.25L466.25,386.25L466.25,378.75L463.75,378.75L463.75,386.25L461.25,386.25L461.25,378.75L458.75,378.75L458.75,363.75L456.25,363.75L456.25,381.25L458.75,381.25L458.75,386.25L456.25,386.25L456.25,383.75L453.75,383.75L453.75,363.75L451.25,363.75L451.25,386.25L453.75,386.25" style="fill:none;fill-rule:nonzero;stroke:rgb(255,90,0);stroke-width:1px;"/>
    </g>
    <g>
        <path d="M588.75,448.75L588.75,401.25L591.25,401.25L591.25,448.75L593.75,448.75L593.75,401.25L596.25,401.25L596.25,448.75L598.75,448.75L598.75,401.25" style="fill:none;fill-rule:nonzero;stroke:rgb(255,90,0);stroke-width:1px;"/>
    </g>
    <g>
        <path d="M553.75,423.75L551.25,423.75L551.25,413.75L553.75,416.25L553.75,421.25" style="fill:none;fill-rule:nonzero;stroke:rgb(255,90,0);stroke-width:1px;"/>
    </g>
    <g>
        <path d="M613.75,553.75L673.75,553.75L673.75,561.25L671.25,561.25L671.25,556.25L668.75,556.25L668.75,561.25L666.25,561.25L666.25,556.25L663.75,556.25L663.75,561.25L661.25,561.25L661.25,556.25L658.75,556.25L658.75,561.25L656.25,561.25L656.25,556.25L653.75,556.25L653.75,561.25L651.25,561.25L651.25,556.25L648.75,556.25L648.75,561.25L646.25,561.25L646.25,556.25L643.75,556.25L643.75,561.25L641.25,561.25L641.25,556.25L638.75,556.25L638.75,561.25L636.25,561.25L636.25,556.25L633.75,556.25L633.75,561.25L631.25,561.25L631.25,556.25L628.75,556.25L628.75,561.25L626.25,561.25L626.25,556.25L623.75,556.25L623.75,586.25L621.25,586.25L621.25,556.25L618.75,556.25L618.75,586.25L616.25,586.25L616.25,556.25L613.75,556.25L613.75,586.25L611.25,586.25L611.25,551.25L673.75,551.25L673.75,548.75L711.25,548.75L711.25,538.75L708.75,538.75L708.75,546.25L706.25,546.25L706.25,538.75L703.75,538.75L703.75,546.25L701.25,546.25L701.25,538.75L698.75,538.75L698.75,546.25L696.25,546.25L696.25,538.75L693.75,538.75L693.75,546.25L691.25,546.25L691.25,538.75L688.75,538.75L688.75,546.25L686.25,546.25L686.25,526.25L683.75,526.25L683.75,546.25L681.25,546.25L681.25,526.25L678.75,526.25L678.75,546.25L676.25,546.25L676.25,526.25L673.75,526.25L673.75,546.25L671.25,546.25L671.25,548.75L668.75,548.75L668.75,543.75L671.25,543.75L671.25,523.75L673.75,523.75L673.75,511.25L698.75,511.25L698.75,498.75L723.75,498.75L723.75,486.25L748.75,486.25" style="fill:none;fill-rule:nonzero;stroke:rgb(255,90,0);stroke-width:1px;"/>
    </g>
    <g>
        <path d="M666.25,548.75L666.25,541.25L668.75,541.25L668.75,521.25L671.25,521.25L671.25,508.75L696.25,508.75L696.25,496.25L721.25,496.25L721.25,486.25L718.75,486.25L718.75,493.75L716.25,493.75L716.25,486.25L713.75,486.25L713.75,493.75L711.25,493.75L711.25,486.25L708.75,486.25L708.75,493.75L706.25,493.75L706.25,486.25L703.75,486.25L703.75,493.75L701.25,493.75L701.25,486.25L698.75,486.25L698.75,493.75L696.25,493.75L696.25,486.25L693.75,486.25L693.75,506.25L691.25,506.25L691.25,486.25L688.75,486.25L688.75,506.25L686.25,506.25L686.25,486.25L683.75,486.25L683.75,506.25L681.25,506.25L681.25,486.25L678.75,486.25L678.75,506.25L676.25,506.25L676.25,486.25L673.75,486.25L673.75,506.25L671.25,506.25L671.25,486.25L668.75,486.25L668.75,518.75L666.25,518.75L666.25,538.75L663.75,538.75L663.75,548.75L661.25,548.75L661.25,536.25L663.75,536.25L663.75,516.25L666.25,516.25L666.25,486.25L663.75,486.25L663.75,513.75L661.25,513.75L661.25,533.75L658.75,533.75L658.75,548.75L656.25,548.75L656.25,531.25L658.75,531.25L658.75,511.25L661.25,511.25L661.25,501.25L658.75,501.25L658.75,508.75L656.25,508.75L656.25,528.75L653.75,528.75L653.75,548.75L651.25,548.75L651.25,526.25L653.75,526.25L653.75,506.25L656.25,506.25L656.25,501.25L653.75,501.25L653.75,503.75L651.25,503.75L651.25,523.75L648.75,523.75L648.75,536.25L646.25,536.25L646.25,521.25L648.75,521.25L648.75,513.75L646.25,513.75L646.25,518.75L643.75,518.75L643.75,536.25L641.25,536.25L641.25,516.25L643.75,516.25L643.75,513.75L638.75,513.75L638.75,536.25L636.25,536.25L636.25,526.25L633.75,526.25L633.75,536.25L631.25,536.25L631.25,526.25L628.75,526.25L628.75,536.25L626.25,536.25L626.25,526.25" style="fill:none;fill-rule:nonzero;stroke:rgb(255,90,0);stroke-width:1px;"/>
    </g>
    <g>
        <path d="M661.25,486.25L626.25,486.25L626.25,476.25L628.75,476.25L628.75,483.75L631.25,483.75L631.25,476.25L633.75,476.25L633.75,483.75L636.25,483.75L636.25,476.25L638.75,476.25L638.75,463.75L641.25,463.75L641.25,478.75L638.75,478.75L638.75,483.75L641.25,483.75L641.25,481.25L643.75,481.25L643.75,463.75L646.25,463.75L646.25,481.25L648.75,481.25L648.75,463.75" style="fill:none;fill-rule:nonzero;stroke:rgb(255,90,0);stroke-width:1px;"/>
    </g>
    <g>
        <path d="M588.75,573.75L588.75,563.75L591.25,563.75L591.25,573.75L593.75,573.75L593.75,563.75L596.25,563.75L596.25,573.75L598.75,573.75L598.75,563.75L601.25,563.75L601.25,551.25L603.75,551.25L603.75,566.25L601.25,566.25L601.25,586.25L603.75,586.25L603.75,568.75L606.25,568.75L606.25,551.25L608.75,551.25L608.75,571.25L606.25,571.25L606.25,586.25L608.75,586.25L608.75,573.75" style="fill:none;fill-rule:nonzero;stroke:rgb(255,90,0);stroke-width:1px;"/>
    </g>
    <g>
        <path d="M448.75,401.25L448.75,411.25L438.75,411.25L438.75,408.75L446.25,408.75L446.25,406.25L438.75,406.25L438.75,403.75L446.25,403.75L446.25,401.25L438.75,401.25L436.25,398.75L413.75,398.75L413.75,396.25L436.25,396.25L436.25,393.75L413.75,393.75L413.75,391.25L436.25,391.25L436.25,388.75L413.75,388.75L411.25,386.25L401.25,386.25L401.25,383.75L411.25,383.75L411.25,381.25L401.25,381.25L401.25,378.75L411.25,378.75L411.25,376.25L401.25,376.25" style="fill:none;fill-rule:nonzero;stroke:rgb(41,65,98);stroke-width:1px;"/>
    </g>
    <g>
        <path d="M461.25,426.25L451.25,426.25L451.25,438.75L438.75,438.75L438.75,448.75L441.25,448.75L441.25,441.25L443.75,441.25L443.75,448.75L446.25,448.75L446.25,441.25L448.75,441.25L448.75,448.75L451.25,448.75L451.25,441.25L453.75,441.25L453.75,428.75L456.25,428.75L456.25,443.75L453.75,443.75L453.75,451.25L451.25,451.25L451.25,461.25L453.75,461.25L453.75,453.75L456.25,453.75L456.25,446.25L458.75,446.25L458.75,428.75L461.25,428.75L461.25,448.75L458.75,448.75L458.75,456.25L456.25,456.25L456.25,461.25L458.75,461.25L458.75,458.75L461.25,458.75L461.25,451.25L463.75,451.25L463.75,461.25L461.25,461.25L463.75,463.75L463.75,486.25L466.25,486.25L466.25,451.25L468.75,451.25L468.75,486.25L471.25,486.25L471.25,451.25L473.75,451.25L473.75,486.25" style="fill:none;fill-rule:nonzero;stroke:rgb(41,65,98);stroke-width:1px;"/>
    </g>
    <g>
        <path d="M293.75,438.75L276.25,438.75L276.25,441.25L296.25,441.25L296.25,438.75L298.75,438.75L298.75,443.75L276.25,443.75L276.25,446.25L298.75,446.25L298.75,448.75L276.25,448.75L273.75,451.25L226.25,451.25L226.25,453.75L273.75,453.75L273.75,456.25L226.25,456.25L226.25,458.75L273.75,458.75L273.75,461.25L226.25,461.25L223.75,463.75L213.75,463.75L213.75,466.25L223.75,466.25L223.75,468.75L213.75,468.75L213.75,471.25L223.75,471.25L223.75,473.75L213.75,473.75" style="fill:none;fill-rule:nonzero;stroke:rgb(41,65,98);stroke-width:1px;"/>
    </g>
    <g>
        <path d="M536.25,596.25L513.75,596.25L513.75,598.75L538.75,598.75L538.75,593.75L513.75,593.75L513.75,586.25L501.25,586.25L501.25,573.75L438.75,573.75L438.75,563.75L441.25,563.75L441.25,571.25L443.75,571.25L443.75,563.75L446.25,563.75L446.25,571.25L448.75,571.25L448.75,563.75L451.25,563.75L451.25,571.25L453.75,571.25L453.75,563.75L456.25,563.75L456.25,571.25L458.75,571.25L458.75,563.75L461.25,563.75L461.25,571.25L463.75,571.25L463.75,551.25L466.25,551.25L466.25,571.25L468.75,571.25L468.75,551.25L471.25,551.25L471.25,571.25L473.75,571.25L473.75,551.25L476.25,551.25L476.25,571.25L478.75,571.25L478.75,548.75L476.25,548.75L476.25,526.25L478.75,526.25L478.75,546.25L481.25,546.25L481.25,571.25L483.75,571.25L483.75,543.75L481.25,543.75L481.25,526.25L483.75,526.25L483.75,541.25L486.25,541.25L486.25,571.25L488.75,571.25L488.75,538.75L486.25,538.75L486.25,526.25L488.75,526.25L488.75,536.25L491.25,536.25L491.25,571.25L493.75,571.25L493.75,533.75L491.25,533.75L491.25,523.75L488.75,523.75L488.75,501.25L491.25,501.25L491.25,521.25L493.75,521.25L493.75,531.25L496.25,531.25L496.25,571.25L498.75,571.25L498.75,528.75L496.25,528.75L496.25,518.75L493.75,518.75L493.75,501.25L496.25,501.25L496.25,516.25L498.75,516.25L498.75,526.25L501.25,526.25L501.25,571.25L503.75,571.25L503.75,583.75L506.25,583.75L506.25,568.75L503.75,568.75L503.75,526.25L506.25,526.25L506.25,566.25L508.75,566.25L508.75,583.75L511.25,583.75L511.25,563.75L508.75,563.75L508.75,526.25L511.25,526.25L511.25,561.25L513.75,561.25L513.75,583.75L516.25,583.75L516.25,591.25L518.75,591.25L518.75,581.25L516.25,581.25L516.25,558.75L513.75,558.75L513.75,513.75L516.25,513.75L516.25,556.25L518.75,556.25L518.75,578.75L521.25,578.75L521.25,591.25L523.75,591.25L523.75,576.25L521.25,576.25L521.25,553.75L518.75,553.75L518.75,513.75L521.25,513.75L521.25,551.25L523.75,551.25L523.75,573.75L526.25,573.75L526.25,591.25L528.75,591.25L528.75,571.25L526.25,571.25L526.25,548.75L523.75,548.75L523.75,513.75L526.25,513.75L526.25,546.25L528.75,546.25L528.75,568.75L531.25,568.75L531.25,591.25L533.75,591.25L533.75,566.25L531.25,566.25L531.25,543.75L528.75,543.75L528.75,511.25L526.25,511.25L526.25,501.25L528.75,501.25L528.75,508.75L531.25,508.75L531.25,541.25L533.75,541.25L533.75,563.75L536.25,563.75L536.25,591.25L538.75,591.25L538.75,561.25L536.25,561.25L536.25,538.75L533.75,538.75L533.75,506.25L531.25,506.25L531.25,501.25L533.75,501.25L533.75,503.75L536.25,503.75L536.25,536.25L538.75,536.25L538.75,558.75L541.25,558.75L541.25,598.75L543.75,598.75L543.75,556.25L541.25,556.25L541.25,533.75L538.75,533.75L538.75,526.25L541.25,526.25L541.25,531.25L543.75,531.25L543.75,553.75L546.25,553.75L546.25,598.75L548.75,598.75L548.75,551.25L546.25,551.25L546.25,528.75L543.75,528.75L543.75,526.25L548.75,526.25L548.75,548.75L551.25,548.75L551.25,598.75L553.75,598.75L553.75,546.25L551.25,546.25L551.25,526.25L553.75,526.25L553.75,543.75L556.25,543.75L556.25,598.75L558.75,598.75L558.75,541.25L556.25,541.25L556.25,526.25L558.75,526.25L558.75,538.75L561.25,538.75L561.25,598.75L563.75,598.75L563.75,611.25L566.25,611.25L566.25,596.25L563.75,596.25L563.75,551.25L566.25,551.25L566.25,593.75L568.75,593.75L568.75,611.25L571.25,611.25L571.25,591.25L568.75,591.25L568.75,551.25L571.25,551.25L571.25,588.75L573.75,588.75L573.75,611.25L576.25,611.25L576.25,636.25L578.75,636.25L578.75,608.75L576.25,608.75L576.25,601.25L578.75,601.25L578.75,606.25L581.25,606.25L581.25,636.25L583.75,636.25L583.75,603.75L581.25,603.75L581.25,601.25L586.25,601.25L586.25,636.25" style="fill:none;fill-rule:nonzero;stroke:rgb(41,65,98);stroke-width:1px;"/>
    </g>
    <g>
        <path d="M498.75,513.75L498.75,501.25" style="fill:none;fill-rule:nonzero;stroke:rgb(41,65,98);stroke-width:1px;"/>
    </g>
    <g>
        <path d="M561.25,536.25L561.25,526.25" style="fill:none;fill-rule:nonzero;stroke:rgb(41,65,98);stroke-width:1px;"/>
    </g>
    <g>
        <path d="M573.75,586.25L573.75,561.25L586.25,561.25L586.25,551.25L583.75,551.25L583.75,558.75L581.25,558.75L581.25,551.25L578.75,551.25L578.75,558.75L576.25,558.75L576.25,551.25L573.75,551.25L573.75,558.75" style="fill:none;fill-rule:nonzero;stroke:rgb(41,65,98);stroke-width:1px;"/>
    </g>
    <g>
        <path d="M411.25,388.75L411.25,401.25L423.75,401.25L423.75,423.75L421.25,423.75L421.25,403.75L418.75,403.75L418.75,423.75L416.25,423.75L416.25,403.75L413.75,403.75L413.75,423.75L411.25,423.75L411.25,436.25L408.75,436.25L408.75,421.25L411.25,421.25L411.25,403.75L408.75,403.75L408.75,418.75L406.25,418.75L406.25,436.25L403.75,436.25L403.75,416.25L406.25,416.25L406.25,401.25L408.75,401.25L408.75,388.75L406.25,388.75L406.25,398.75L403.75,398.75L403.75,413.75L401.25,413.75L401.25,436.25L398.75,436.25L398.75,411.25L401.25,411.25L401.25,396.25L403.75,396.25L403.75,388.75L401.25,388.75L401.25,393.75L398.75,393.75L398.75,408.75L396.25,408.75L396.25,436.25L393.75,436.25L393.75,406.25L396.25,406.25L396.25,391.25L398.75,391.25L398.75,388.75L393.75,388.75L393.75,403.75L391.25,403.75L391.25,436.25L388.75,436.25L388.75,401.25L391.25,401.25L391.25,388.75L388.75,388.75L388.75,398.75L386.25,398.75L386.25,436.25L383.75,436.25L383.75,396.25L386.25,396.25L386.25,388.75L383.75,388.75L383.75,393.75L381.25,393.75L381.25,436.25L378.75,436.25L378.75,391.25L381.25,391.25L381.25,388.75L376.25,388.75L376.25,436.25L373.75,436.25L373.75,388.75L371.25,388.75L371.25,436.25L368.75,436.25L368.75,388.75L366.25,388.75L366.25,436.25L363.75,436.25L363.75,388.75L361.25,388.75L361.25,436.25L358.75,436.25L358.75,388.75L356.25,388.75L356.25,436.25L353.75,436.25L353.75,388.75L351.25,388.75L351.25,436.25L348.75,436.25L348.75,401.25L346.25,401.25L346.25,436.25L343.75,436.25L343.75,401.25L341.25,401.25L341.25,436.25L338.75,436.25L338.75,401.25L336.25,401.25L336.25,423.75L333.75,423.75L333.75,401.25L331.25,401.25L331.25,423.75L328.75,423.75L328.75,401.25L326.25,401.25L326.25,423.75" style="fill:none;fill-rule:nonzero;stroke:rgb(98,131,189);stroke-width:1px;"/>
    </g>
    <g>
        <path d="M536.25,498.75L526.25,498.75L526.25,488.75L528.75,488.75L528.75,496.25L531.25,496.25L531.25,488.75L533.75,488.75L533.75,496.25L536.25,496.25L536.25,488.75" style="fill:none;fill-rule:nonzero;stroke:rgb(98,131,189);stroke-width:1px;"/>
    </g>
    <g>
        <path d="M561.25,523.75L551.25,523.75L551.25,513.75L553.75,513.75L553.75,521.25L556.25,521.25L556.25,513.75L558.75,513.75L558.75,521.25L561.25,521.25L561.25,513.75" style="fill:none;fill-rule:nonzero;stroke:rgb(98,131,189);stroke-width:1px;"/>
    </g>
    <g>
        <path d="M573.75,548.75L563.75,548.75L563.75,538.75L566.25,538.75L566.25,546.25L568.75,546.25L568.75,538.75L571.25,538.75L571.25,546.25L573.75,546.25L573.75,538.75" style="fill:none;fill-rule:nonzero;stroke:rgb(98,131,189);stroke-width:1px;"/>
    </g>
    <g>
        <path d="M606.25,508.75L648.75,508.75L648.75,498.75L661.25,498.75L661.25,488.75L658.75,488.75L658.75,496.25L656.25,496.25L656.25,488.75L653.75,488.75L653.75,496.25L651.25,496.25L651.25,488.75L648.75,488.75L648.75,496.25L646.25,496.25L646.25,488.75L643.75,488.75L643.75,498.75L646.25,498.75L646.25,506.25L643.75,506.25L643.75,501.25L641.25,501.25L641.25,488.75L638.75,488.75L638.75,503.75L641.25,503.75L641.25,506.25L636.25,506.25L636.25,488.75L633.75,488.75L633.75,506.25L631.25,506.25L631.25,488.75L628.75,488.75L628.75,506.25L626.25,506.25L626.25,488.75L623.75,488.75L623.75,473.75L636.25,473.75L636.25,461.25L648.75,461.25L648.75,451.25L646.25,451.25L646.25,458.75L643.75,458.75L643.75,451.25L641.25,451.25L641.25,458.75L638.75,458.75L638.75,451.25L636.25,451.25L636.25,458.75L633.75,458.75L633.75,451.25L631.25,451.25L631.25,461.25L633.75,461.25L633.75,471.25L631.25,471.25L631.25,463.75L628.75,463.75L628.75,451.25L626.25,451.25L626.25,466.25L628.75,466.25L628.75,471.25L626.25,471.25L626.25,468.75L623.75,468.75L623.75,451.25L621.25,451.25L621.25,471.25L623.75,471.25L621.25,473.75L621.25,491.25L623.75,491.25L623.75,506.25L621.25,506.25L621.25,493.75L618.75,493.75L618.75,451.25L616.25,451.25L616.25,496.25L618.75,496.25L618.75,506.25L616.25,506.25L616.25,498.75L613.75,498.75L613.75,451.25L611.25,451.25L611.25,473.75L608.75,473.75L608.75,451.25L606.25,451.25L606.25,473.75L603.75,473.75L603.75,451.25L601.25,451.25L601.25,473.75L598.75,473.75L598.75,451.25L596.25,451.25L596.25,473.75L593.75,473.75L593.75,451.25L591.25,451.25L591.25,473.75L588.75,473.75L588.75,451.25L586.25,451.25L586.25,401.25L583.75,401.25L583.75,453.75L586.25,453.75L586.25,473.75L583.75,473.75L583.75,456.25L581.25,456.25L581.25,401.25L578.75,401.25L578.75,458.75L581.25,458.75L581.25,473.75L578.75,473.75L578.75,461.25L576.25,461.25L576.25,401.25" style="fill:none;fill-rule:nonzero;stroke:rgb(255,156,0);stroke-width:1px;"/>
    </g>
    <g>
        <path d="M513.75,433.75L513.75,436.25L526.25,436.25L526.25,461.25L536.25,461.25L536.25,458.75L528.75,458.75L528.75,456.25L536.25,456.25L536.25,453.75L528.75,453.75L528.75,451.25L536.25,451.25L536.25,448.75L528.75,448.75L528.75,446.25L538.75,446.25L538.75,448.75L548.75,448.75L548.75,446.25L541.25,446.25L541.25,443.75L528.75,443.75L528.75,441.25L543.75,441.25L543.75,443.75L548.75,443.75L548.75,441.25L546.25,441.25L546.25,438.75L528.75,438.75L528.75,436.25L548.75,436.25L548.75,438.75L551.25,436.25L561.25,436.25L561.25,433.75L516.25,433.75L516.25,431.25L513.75,431.25L513.75,428.75L518.75,428.75L518.75,431.25L561.25,431.25L561.25,428.75L521.25,428.75L521.25,426.25L513.75,426.25L513.75,423.75L523.75,423.75L523.75,426.25L561.25,426.25L563.75,423.75L573.75,423.75L573.75,421.25L563.75,421.25L563.75,418.75L573.75,418.75L573.75,416.25L563.75,416.25L563.75,413.75L573.75,413.75" style="fill:none;fill-rule:nonzero;stroke:rgb(255,156,0);stroke-width:1px;"/>
    </g>
    <g>
        <path d="M548.75,423.75L538.75,423.75L538.75,401.25L541.25,401.25L541.25,421.25L543.75,421.25L543.75,401.25L546.25,401.25L546.25,421.25L548.75,421.25L548.75,401.25" style="fill:none;fill-rule:nonzero;stroke:rgb(255,156,0);stroke-width:1px;"/>
    </g>
    <g>
        <path d="M513.75,421.25L513.75,413.75L516.25,413.75L516.25,421.25L518.75,421.25L518.75,413.75L521.25,413.75L521.25,421.25L523.75,421.25L523.75,413.75" style="fill:none;fill-rule:nonzero;stroke:rgb(255,156,0);stroke-width:1px;"/>
    </g>
    <g>
        <path d="M498.75,486.25L488.75,486.25L488.75,463.75L491.25,463.75L491.25,483.75L493.75,483.75L493.75,463.75L496.25,463.75L496.25,483.75L498.75,483.75L498.75,463.75L501.25,461.25L501.25,438.75L503.75,438.75L503.75,461.25L506.25,461.25L506.25,438.75L508.75,438.75L508.75,461.25L511.25,461.25L511.25,438.75" style="fill:none;fill-rule:nonzero;stroke:rgb(255,156,0);stroke-width:1px;"/>
    </g>
    <g>
        <path d="M576.25,473.75L576.25,463.75" style="fill:none;fill-rule:nonzero;stroke:rgb(255,156,0);stroke-width:1px;"/>
    </g>
    <g>
        <path d="M601.25,526.25L601.25,538.75L576.25,538.75L576.25,548.75L578.75,548.75L578.75,541.25L581.25,541.25L581.25,548.75L583.75,548.75L583.75,541.25L586.25,541.25L586.25,548.75L588.75,548.75L588.75,541.25L591.25,541.25L591.25,548.75L593.75,548.75L593.75,541.25L596.25,541.25L596.25,548.75L598.75,548.75L598.75,541.25L601.25,541.25L601.25,548.75L603.75,548.75L603.75,526.25L606.25,526.25L606.25,548.75L608.75,548.75L608.75,526.25L611.25,526.25L611.25,548.75L613.75,548.75L613.75,526.25L616.25,526.25L616.25,548.75L618.75,548.75L618.75,526.25L621.25,526.25L621.25,548.75L623.75,548.75L623.75,526.25L626.25,523.75L626.25,511.25L588.75,511.25L588.75,501.25L591.25,501.25L591.25,508.75L593.75,508.75L593.75,501.25L596.25,501.25L596.25,508.75L598.75,508.75L598.75,501.25L601.25,501.25L601.25,488.75L603.75,488.75L603.75,503.75L601.25,503.75L601.25,508.75L603.75,508.75L603.75,506.25L606.25,506.25L606.25,488.75L608.75,488.75L608.75,506.25L611.25,506.25L611.25,488.75" style="fill:none;fill-rule:nonzero;stroke:rgb(255,156,0);stroke-width:1px;"/>
    </g>
    <g>
        <path d="M613.75,506.25L613.75,501.25" style="fill:none;fill-rule:nonzero;stroke:rgb(255,156,0);stroke-width:1px;"/>
    </g>
    <g>
        <path d="M648.75,511.25L628.75,511.25L628.75,523.75L631.25,523.75L631.25,513.75L633.75,513.75L633.75,523.75L636.25,523.75L636.25,513.75" style="fill:none;fill-rule:nonzero;stroke:rgb(255,156,0);stroke-width:1px;"/>
    </g>
    <g>
        <path d="M648.75,548.75L626.25,548.75L626.25,538.75L628.75,538.75L628.75,546.25L631.25,546.25L631.25,538.75L633.75,538.75L633.75,546.25L636.25,546.25L636.25,538.75L638.75,538.75L638.75,546.25L641.25,546.25L641.25,538.75L643.75,538.75L643.75,546.25L646.25,546.25L646.25,538.75L648.75,538.75L648.75,546.25" style="fill:none;fill-rule:nonzero;stroke:rgb(255,156,0);stroke-width:1px;"/>
    </g>
    <g>
        <path d="M723.75,338.75L723.75,361.25L721.25,361.25L721.25,338.75L718.75,338.75L718.75,361.25L716.25,361.25L716.25,338.75L713.75,338.75L713.75,361.25L711.25,363.75L711.25,386.25L708.75,386.25L708.75,363.75L706.25,363.75L706.25,386.25L703.75,386.25L703.75,363.75L701.25,363.75L701.25,386.25L698.75,388.75L698.75,401.25L786.25,401.25L786.25,411.25L783.75,411.25L783.75,403.75L781.25,403.75L781.25,411.25L778.75,411.25L778.75,403.75L776.25,403.75L776.25,411.25L773.75,411.25L773.75,403.75L771.25,403.75L771.25,413.75L773.75,413.75L773.75,423.75L771.25,423.75L771.25,416.25L768.75,416.25L768.75,403.75L766.25,403.75L766.25,418.75L768.75,418.75L768.75,423.75L766.25,423.75L766.25,421.25L763.75,421.25L763.75,403.75L761.25,403.75L761.25,411.25L758.75,411.25L758.75,403.75L756.25,403.75L756.25,411.25L753.75,411.25L753.75,403.75L751.25,403.75L751.25,411.25L748.75,411.25L748.75,403.75L746.25,403.75L746.25,411.25L743.75,411.25L743.75,403.75L741.25,403.75L741.25,411.25L738.75,411.25L738.75,403.75L736.25,403.75L736.25,411.25L733.75,411.25L733.75,403.75L731.25,403.75L731.25,411.25L728.75,411.25L728.75,403.75L726.25,403.75L726.25,411.25L723.75,411.25L723.75,403.75L721.25,403.75L721.25,411.25L718.75,411.25L718.75,403.75L716.25,403.75L716.25,411.25L713.75,411.25L713.75,403.75L711.25,403.75L711.25,411.25L708.75,411.25L708.75,403.75L706.25,403.75L706.25,411.25L703.75,411.25L703.75,403.75L701.25,403.75L701.25,411.25L698.75,411.25L698.75,403.75L696.25,403.75L696.25,388.75L693.75,388.75L693.75,406.25L696.25,406.25L696.25,411.25L693.75,411.25L693.75,408.75L691.25,408.75L691.25,388.75L688.75,388.75L688.75,411.25L691.25,411.25" style="fill:none;fill-rule:nonzero;stroke:rgb(222,0,0);stroke-width:1px;"/>
    </g>
    <g>
        <path d="M711.25,348.75L711.25,338.75L688.75,338.75L688.75,341.25L708.75,341.25L708.75,343.75L688.75,343.75L688.75,346.25L708.75,346.25L708.75,348.75L688.75,348.75L686.25,351.25L663.75,351.25L663.75,353.75L686.25,353.75L686.25,356.25L663.75,356.25L663.75,358.75L686.25,358.75L686.25,361.25L663.75,361.25L661.25,363.75L638.75,363.75L638.75,366.25L661.25,366.25L661.25,368.75L638.75,368.75L638.75,371.25L661.25,371.25L661.25,373.75L638.75,373.75L636.25,376.25L623.75,376.25L623.75,338.75L613.75,338.75L613.75,341.25L621.25,341.25L621.25,343.75L613.75,343.75L613.75,346.25L621.25,346.25L621.25,348.75L613.75,348.75L613.75,351.25L621.25,351.25L621.25,353.75L611.25,353.75L611.25,351.25L601.25,351.25L601.25,353.75L608.75,353.75L608.75,356.25L621.25,356.25L621.25,358.75L606.25,358.75L606.25,356.25L601.25,356.25L601.25,358.75L603.75,358.75L603.75,361.25L621.25,361.25L621.25,363.75L613.75,363.75L613.75,366.25L621.25,366.25L621.25,368.75L613.75,368.75L613.75,371.25L621.25,371.25L621.25,373.75L613.75,373.75L613.75,376.25L621.25,376.25L621.25,378.75L636.25,378.75L636.25,381.25L618.75,381.25L618.75,378.75L613.75,378.75L613.75,381.25L616.25,381.25L616.25,383.75L636.25,383.75L636.25,386.25L613.75,386.25L613.75,383.75" style="fill:none;fill-rule:nonzero;stroke:rgb(222,0,0);stroke-width:1px;"/>
    </g>
    <g>
        <path d="M478.75,343.75L478.75,386.25L476.25,386.25L476.25,373.75L463.75,373.75L463.75,371.25L476.25,371.25L476.25,368.75L463.75,368.75L463.75,366.25L476.25,366.25L476.25,363.75L463.75,363.75L461.25,361.25L448.75,361.25L448.75,398.75L438.75,398.75L438.75,396.25L446.25,396.25L446.25,393.75L438.75,393.75L438.75,391.25L446.25,391.25L446.25,388.75L438.75,388.75L438.75,386.25L446.25,386.25L446.25,383.75L438.75,383.75L438.75,381.25L446.25,381.25L446.25,378.75L438.75,378.75L438.75,376.25L446.25,376.25L446.25,373.75L438.75,373.75L438.75,371.25L446.25,371.25L446.25,368.75L438.75,368.75L438.75,366.25L446.25,366.25L446.25,363.75L438.75,363.75L438.75,361.25L446.25,361.25L446.25,358.75L438.75,358.75L438.75,356.25L448.75,356.25L448.75,358.75L461.25,358.75L461.25,356.25L451.25,356.25L451.25,353.75L438.75,353.75L438.75,351.25L453.75,351.25L453.75,353.75L461.25,353.75L461.25,351.25L456.25,351.25L456.25,348.75L438.75,348.75L438.75,346.25L458.75,346.25L458.75,348.75L461.25,348.75L461.25,343.75L438.75,343.75L438.75,341.25L461.25,341.25L461.25,338.75L438.75,338.75L438.75,336.25L448.75,336.25L448.75,333.75L438.75,333.75L438.75,331.25L448.75,331.25L448.75,328.75L438.75,328.75L438.75,326.25L448.75,326.25" style="fill:none;fill-rule:nonzero;stroke:rgb(222,0,0);stroke-width:1px;"/>
    </g>
    <g>
        <path d="M613.75,311.25L623.75,311.25L623.75,308.75L613.75,308.75L613.75,306.25L623.75,306.25L623.75,303.75L613.75,303.75L613.75,301.25L623.75,301.25L626.25,298.75L636.25,298.75L636.25,296.25L626.25,296.25L626.25,293.75L636.25,293.75L636.25,291.25L626.25,291.25L626.25,288.75L636.25,288.75L638.75,286.25L651.25,286.25L651.25,348.75L661.25,348.75L661.25,346.25L653.75,346.25L653.75,343.75L661.25,343.75L661.25,341.25L653.75,341.25L653.75,338.75L661.25,338.75L661.25,336.25L653.75,336.25L653.75,333.75L661.25,333.75L661.25,331.25L653.75,331.25L653.75,328.75L661.25,328.75L661.25,326.25L653.75,326.25L653.75,323.75L661.25,323.75L661.25,321.25L653.75,321.25L653.75,318.75L661.25,318.75L661.25,316.25L653.75,316.25L653.75,313.75L661.25,313.75L661.25,311.25L653.75,311.25L653.75,308.75L661.25,308.75L661.25,306.25L653.75,306.25L653.75,303.75L661.25,303.75L661.25,301.25L653.75,301.25L653.75,298.75L661.25,298.75L661.25,296.25L653.75,296.25L653.75,293.75L661.25,293.75L661.25,291.25L653.75,291.25L653.75,288.75L661.25,288.75L661.25,286.25L653.75,286.25L653.75,283.75L638.75,283.75L638.75,281.25L656.25,281.25L656.25,283.75L661.25,283.75L661.25,281.25L658.75,281.25L658.75,278.75L638.75,278.75L638.75,276.25L661.25,276.25L661.25,278.75" style="fill:none;fill-rule:nonzero;stroke:rgb(222,0,0);stroke-width:1px;"/>
    </g>
    <g>
        <path d="M548.75,263.75L548.75,286.25L546.25,286.25L546.25,263.75L543.75,263.75L543.75,286.25L541.25,286.25L541.25,263.75L538.75,263.75L538.75,286.25L536.25,288.75L536.25,323.75L533.75,323.75L533.75,288.75L531.25,288.75L531.25,323.75L528.75,323.75L528.75,288.75L526.25,288.75L526.25,323.75L523.75,326.25L523.75,348.75L521.25,348.75L521.25,326.25L518.75,326.25L518.75,348.75L516.25,348.75L516.25,326.25L513.75,326.25L513.75,348.75L511.25,351.25L511.25,373.75L508.75,373.75L508.75,351.25L506.25,351.25L506.25,373.75L503.75,373.75L503.75,351.25L501.25,351.25L501.25,373.75" style="fill:none;fill-rule:nonzero;stroke:rgb(222,0,0);stroke-width:1px;"/>
    </g>
    <g>
        <path d="M661.25,273.75L651.25,273.75L651.25,263.75L653.75,263.75L653.75,271.25L656.25,271.25L656.25,263.75L658.75,263.75L658.75,271.25L661.25,271.25L661.25,263.75" style="fill:none;fill-rule:nonzero;stroke:rgb(222,0,0);stroke-width:1px;"/>
    </g>
    <g>
        <path d="M598.75,276.25L598.75,286.25L596.25,286.25L596.25,276.25L593.75,276.25L593.75,286.25L591.25,286.25L591.25,276.25L588.75,276.25L588.75,286.25L586.25,288.75L586.25,311.25L583.75,311.25L583.75,288.75L581.25,288.75L581.25,311.25L578.75,311.25L578.75,288.75L576.25,288.75L576.25,311.25L573.75,313.75L573.75,336.25L571.25,336.25L571.25,313.75L568.75,313.75L568.75,336.25L566.25,336.25L566.25,313.75L563.75,313.75L563.75,336.25" style="fill:none;fill-rule:nonzero;stroke:rgb(222,0,0);stroke-width:1px;"/>
    </g>
    <g>
        <path d="M551.25,311.25L551.25,288.75L553.75,288.75L553.75,311.25L556.25,311.25L556.25,288.75L558.75,288.75L558.75,311.25L561.25,311.25L561.25,288.75" style="fill:none;fill-rule:nonzero;stroke:rgb(222,0,0);stroke-width:1px;"/>
    </g>
    <g>
        <path d="M611.25,298.75L601.25,298.75L601.25,288.75L603.75,288.75L603.75,296.25L606.25,296.25L606.25,288.75L608.75,288.75L608.75,296.25L611.25,296.25L611.25,288.75" style="fill:none;fill-rule:nonzero;stroke:rgb(222,0,0);stroke-width:1px;"/>
    </g>
    <g>
        <path d="M486.25,386.25L481.25,386.25L481.25,341.25L476.25,341.25L476.25,326.25L478.75,326.25L478.75,338.75L481.25,338.75L481.25,326.25L483.75,326.25L483.75,383.75L486.25,383.75L486.25,326.25" style="fill:none;fill-rule:nonzero;stroke:rgb(222,0,0);stroke-width:1px;"/>
    </g>
    <g>
        <path d="M498.75,348.75L488.75,348.75L488.75,338.75L491.25,338.75L491.25,346.25L493.75,346.25L493.75,338.75L496.25,338.75L496.25,346.25L498.75,346.25L498.75,338.75" style="fill:none;fill-rule:nonzero;stroke:rgb(222,0,0);stroke-width:1px;"/>
    </g>
    <g>
        <path d="M476.25,361.25L476.25,343.75" style="fill:none;fill-rule:nonzero;stroke:rgb(222,0,0);stroke-width:1px;"/>
    </g>
    <g>
        <path d="M576.25,386.25L586.25,386.25L586.25,383.75L576.25,383.75L576.25,381.25L586.25,381.25L586.25,378.75L576.25,378.75L576.25,376.25L586.25,376.25L588.75,373.75L598.75,373.75L598.75,371.25L588.75,371.25L588.75,368.75L598.75,368.75L598.75,366.25L588.75,366.25L588.75,363.75L598.75,363.75L601.25,361.25" style="fill:none;fill-rule:nonzero;stroke:rgb(222,0,0);stroke-width:1px;"/>
    </g>
    <g>
        <path d="M573.75,373.75L563.75,373.75L563.75,363.75L566.25,363.75L566.25,371.25L568.75,371.25L568.75,363.75L571.25,363.75L571.25,371.25L573.75,371.25L573.75,363.75" style="fill:none;fill-rule:nonzero;stroke:rgb(222,0,0);stroke-width:1px;"/>
    </g>
    <g>
        <path d="M686.25,411.25L676.25,411.25L676.25,401.25L678.75,401.25L678.75,408.75L681.25,408.75L681.25,401.25L683.75,401.25L683.75,408.75L686.25,408.75L686.25,401.25" style="fill:none;fill-rule:nonzero;stroke:rgb(222,0,0);stroke-width:1px;"/>
    </g>
    <g>
        <path d="M601.25,598.75L636.25,598.75L636.25,596.25L601.25,596.25L601.25,593.75L636.25,593.75L636.25,591.25L601.25,591.25L601.25,588.75L636.25,588.75L636.25,586.25L626.25,586.25L626.25,583.75L636.25,583.75L636.25,581.25L626.25,581.25L626.25,578.75L636.25,578.75L636.25,576.25L626.25,576.25L626.25,573.75L673.75,573.75L673.75,571.25L626.25,571.25L626.25,568.75L673.75,568.75L673.75,566.25L626.25,566.25L626.25,563.75L673.75,563.75L676.25,561.25L736.25,561.25L736.25,558.75L676.25,558.75L676.25,556.25L736.25,556.25L736.25,553.75L676.25,553.75L676.25,551.25L736.25,551.25" style="fill:none;fill-rule:nonzero;stroke:rgb(222,0,0);stroke-width:1px;"/>
    </g>
    <g>
        <path d="M723.75,538.75L723.75,548.75L713.75,548.75L713.75,546.25L721.25,546.25L721.25,543.75L713.75,543.75L713.75,541.25L721.25,541.25L721.25,538.75L713.75,538.75L711.25,536.25L688.75,536.25L688.75,533.75L711.25,533.75L711.25,531.25L688.75,531.25L688.75,528.75L711.25,528.75L711.25,526.25L688.75,526.25L688.75,523.75L698.75,523.75L698.75,521.25L686.25,521.25L686.25,523.75L676.25,523.75L676.25,521.25L683.75,521.25L683.75,518.75L698.75,518.75L698.75,516.25L681.25,516.25L681.25,518.75L676.25,518.75L676.25,516.25L678.75,516.25L678.75,513.75L698.75,513.75L701.25,511.25L723.75,511.25L723.75,508.75L701.25,508.75L701.25,506.25L723.75,506.25L723.75,503.75L701.25,503.75L701.25,501.25L723.75,501.25L726.25,498.75L748.75,498.75L748.75,496.25L726.25,496.25L726.25,493.75L748.75,493.75L748.75,491.25L726.25,491.25L726.25,488.75L748.75,488.75L751.25,486.25L773.75,486.25L773.75,483.75L751.25,483.75L751.25,481.25L773.75,481.25L773.75,478.75L751.25,478.75L751.25,476.25L773.75,476.25L776.25,473.75L798.75,473.75L798.75,471.25L776.25,471.25L776.25,468.75L798.75,468.75L798.75,466.25L776.25,466.25L776.25,463.75L798.75,463.75" style="fill:none;fill-rule:nonzero;stroke:rgb(222,0,0);stroke-width:1px;"/>
    </g>
    <g>
        <path d="M763.75,423.75L761.25,426.25L761.25,436.25L758.75,436.25L758.75,426.25L756.25,426.25L756.25,436.25L753.75,436.25L753.75,426.25L751.25,426.25L751.25,436.25L748.75,438.75L748.75,451.25L773.75,451.25L773.75,461.25L771.25,461.25L771.25,453.75L768.75,453.75L768.75,461.25L766.25,461.25L766.25,453.75L763.75,453.75L763.75,461.25L761.25,461.25L761.25,453.75L758.75,453.75L758.75,461.25L756.25,461.25L756.25,453.75L753.75,453.75L753.75,461.25L751.25,461.25L751.25,453.75L748.75,453.75L748.75,461.25L746.25,461.25L746.25,438.75L743.75,438.75L743.75,461.25L741.25,461.25L741.25,438.75L738.75,438.75L738.75,461.25L736.25,461.25L736.25,451.25L733.75,451.25L733.75,461.25L731.25,461.25L731.25,451.25L728.75,451.25L728.75,461.25L726.25,461.25L726.25,451.25" style="fill:none;fill-rule:nonzero;stroke:rgb(222,0,0);stroke-width:1px;"/>
    </g>
    <g>
        <path d="M598.75,551.25L598.75,561.25L596.25,561.25L596.25,551.25L593.75,551.25L593.75,561.25L591.25,561.25L591.25,551.25L588.75,551.25L588.75,561.25L586.25,563.75L586.25,573.75L583.75,573.75L583.75,563.75L581.25,563.75L581.25,573.75L578.75,573.75L578.75,563.75L576.25,563.75L576.25,573.75" style="fill:none;fill-rule:nonzero;stroke:rgb(222,0,0);stroke-width:1px;"/>
    </g>
    <g>
        <path d="M598.75,586.25L588.75,586.25L588.75,576.25L591.25,576.25L591.25,583.75L593.75,583.75L593.75,576.25L596.25,576.25L596.25,583.75L598.75,583.75L598.75,576.25" style="fill:none;fill-rule:nonzero;stroke:rgb(222,0,0);stroke-width:1px;"/>
    </g>
    <g>
        <path d="M236.25,486.25L226.25,486.25L226.25,476.25L228.75,476.25L228.75,483.75L231.25,483.75L231.25,476.25L233.75,476.25L233.75,483.75L236.25,483.75L236.25,476.25" style="fill:none;fill-rule:nonzero;stroke:rgb(205,172,82);stroke-width:1px;"/>
    </g>
    <g>
        <path d="M361.25,588.75L351.25,588.75L351.25,601.25L338.75,601.25L338.75,623.75L341.25,623.75L341.25,603.75L343.75,603.75L343.75,623.75L346.25,623.75L346.25,603.75L348.75,603.75L348.75,623.75L351.25,623.75L351.25,603.75L353.75,603.75L353.75,591.25L356.25,591.25L356.25,606.25L353.75,606.25L353.75,623.75L356.25,623.75L356.25,608.75L358.75,608.75L358.75,591.25L361.25,591.25L361.25,611.25L358.75,611.25L358.75,623.75L361.25,623.75L361.25,613.75L363.75,611.25L363.75,601.25L366.25,601.25L366.25,611.25L368.75,611.25L368.75,601.25L371.25,601.25L371.25,611.25L373.75,611.25L373.75,601.25L376.25,598.75L376.25,588.75L378.75,588.75L378.75,598.75L381.25,598.75L381.25,588.75L383.75,588.75L383.75,598.75L386.25,598.75L386.25,588.75L388.75,586.25L388.75,576.25L391.25,576.25L391.25,586.25L393.75,586.25L393.75,576.25L396.25,576.25L396.25,586.25L398.75,586.25L398.75,576.25" style="fill:none;fill-rule:nonzero;stroke:rgb(205,172,82);stroke-width:1px;"/>
    </g>
    <g>
        <path d="M498.75,586.25L488.75,586.25L488.75,576.25L491.25,576.25L491.25,583.75L493.75,583.75L493.75,576.25L496.25,576.25L496.25,583.75L498.75,583.75L498.75,576.25" style="fill:none;fill-rule:nonzero;stroke:rgb(205,172,82);stroke-width:1px;"/>
    </g>
    <g>
        <path d="M376.25,638.75L376.25,673.75L388.75,673.75L388.75,686.25L401.25,686.25L401.25,698.75L413.75,698.75L413.75,711.25L448.75,711.25L448.75,708.75L416.25,708.75L416.25,706.25L448.75,706.25L448.75,703.75L416.25,703.75L416.25,701.25L448.75,701.25L451.25,698.75L486.25,698.75L486.25,696.25L451.25,696.25L451.25,693.75L486.25,693.75L486.25,691.25L451.25,691.25L451.25,688.75L486.25,688.75L486.25,686.25L426.25,686.25L426.25,683.75L486.25,683.75L486.25,681.25L426.25,681.25L426.25,678.75L486.25,678.75L486.25,676.25L426.25,676.25L426.25,673.75L486.25,673.75L486.25,671.25L423.75,671.25L423.75,673.75L413.75,673.75L413.75,671.25L421.25,671.25L421.25,668.75L486.25,668.75L486.25,666.25L418.75,666.25L418.75,668.75L413.75,668.75L413.75,666.25L416.25,666.25L416.25,663.75L486.25,663.75L486.25,661.25L476.25,661.25L476.25,658.75L486.25,658.75L486.25,656.25L476.25,656.25L476.25,653.75L486.25,653.75L486.25,651.25L476.25,651.25" style="fill:none;fill-rule:nonzero;stroke:rgb(205,172,82);stroke-width:1px;"/>
    </g>
    <g>
        <path d="M448.75,651.25L448.75,661.25L446.25,661.25L446.25,651.25L443.75,651.25L443.75,661.25L441.25,661.25L441.25,651.25L438.75,651.25L438.75,661.25L436.25,661.25L436.25,638.75L433.75,638.75L433.75,661.25L431.25,661.25L431.25,638.75L428.75,638.75L428.75,661.25L426.25,661.25L426.25,638.75L423.75,638.75L423.75,661.25L421.25,661.25L421.25,638.75L418.75,638.75L418.75,661.25L416.25,661.25L416.25,638.75L413.75,638.75L413.75,663.75L411.25,661.25L411.25,626.25L408.75,626.25L408.75,661.25L406.25,661.25L406.25,626.25L403.75,626.25L403.75,661.25L401.25,661.25L401.25,626.25L398.75,626.25L398.75,636.25L396.25,636.25L396.25,626.25L393.75,626.25L393.75,636.25L391.25,636.25L391.25,626.25L388.75,626.25L388.75,636.25L386.25,638.75L386.25,663.75L398.75,663.75L398.75,676.25L411.25,676.25L411.25,688.75L423.75,688.75L423.75,698.75L421.25,698.75L421.25,691.25L418.75,691.25L418.75,698.75L416.25,698.75L416.25,691.25L413.75,691.25L413.75,696.25L411.25,696.25L411.25,691.25L408.75,691.25L408.75,678.75L406.25,678.75L406.25,693.75L408.75,693.75L408.75,696.25L403.75,696.25L403.75,678.75L401.25,678.75L401.25,683.75L398.75,683.75L398.75,678.75L396.25,678.75L396.25,666.25L393.75,666.25L393.75,681.25L396.25,681.25L396.25,683.75L391.25,683.75L391.25,666.25L388.75,666.25L388.75,671.25L386.25,671.25L386.25,666.25L383.75,666.25L383.75,638.75L381.25,638.75L381.25,668.75L383.75,668.75L383.75,671.25L378.75,671.25L378.75,638.75" style="fill:none;fill-rule:nonzero;stroke:rgb(205,172,82);stroke-width:1px;"/>
    </g>
    <g>
        <path d="M486.25,636.25L476.25,636.25L476.25,626.25L478.75,626.25L478.75,633.75L481.25,633.75L481.25,626.25L483.75,626.25L483.75,633.75L486.25,633.75L486.25,626.25" style="fill:none;fill-rule:nonzero;stroke:rgb(205,172,82);stroke-width:1px;"/>
    </g>
    <g>
        <path d="M501.25,698.75L501.25,688.75L503.75,688.75L503.75,698.75L506.25,698.75L506.25,688.75L508.75,688.75L508.75,698.75L511.25,698.75L511.25,688.75L513.75,688.75L513.75,711.25L516.25,711.25L516.25,688.75L518.75,688.75L518.75,711.25L521.25,711.25L521.25,688.75L523.75,688.75L523.75,711.25L526.25,711.25L526.25,688.75L528.75,688.75L528.75,711.25L531.25,711.25L531.25,688.75L533.75,688.75L533.75,711.25L536.25,711.25L536.25,688.75L538.75,688.75L538.75,711.25L541.25,711.25L541.25,688.75L543.75,688.75L543.75,711.25L546.25,711.25L546.25,688.75L548.75,688.75L548.75,711.25L551.25,711.25L551.25,688.75L553.75,688.75L553.75,711.25L556.25,711.25L556.25,688.75L558.75,688.75L558.75,711.25L561.25,711.25L561.25,688.75L563.75,688.75L563.75,676.25L566.25,676.25L566.25,691.25L563.75,691.25L563.75,723.75L566.25,723.75L566.25,693.75L568.75,693.75L568.75,676.25L571.25,676.25L571.25,696.25L568.75,696.25L568.75,723.75L571.25,723.75L571.25,698.75L573.75,698.75L573.75,676.25L576.25,673.75L576.25,651.25L578.75,651.25L578.75,673.75L581.25,673.75L581.25,651.25L583.75,651.25L583.75,673.75L586.25,673.75L586.25,651.25" style="fill:none;fill-rule:nonzero;stroke:rgb(205,172,82);stroke-width:1px;"/>
    </g>
    <g>
        <path d="M573.75,723.75L573.75,701.25" style="fill:none;fill-rule:nonzero;stroke:rgb(205,172,82);stroke-width:1px;"/>
    </g>
    <g>
        <path d="M561.25,736.25L551.25,736.25L551.25,726.25L553.75,726.25L553.75,733.75L556.25,733.75L556.25,726.25L558.75,726.25L558.75,733.75L561.25,733.75L561.25,726.25" style="fill:none;fill-rule:nonzero;stroke:rgb(205,172,82);stroke-width:1px;"/>
    </g>
    <g>
        <path d="M393.75,376.25L351.25,376.25L351.25,378.75L396.25,378.75L396.25,376.25L398.75,376.25L398.75,381.25L351.25,381.25L351.25,383.75L398.75,383.75L398.75,386.25L351.25,386.25L348.75,388.75L326.25,388.75L326.25,391.25L348.75,391.25L348.75,393.75L326.25,393.75L326.25,396.25L348.75,396.25L348.75,398.75L326.25,398.75L323.75,401.25L313.75,401.25L313.75,403.75L323.75,403.75L323.75,406.25L313.75,406.25L313.75,408.75L323.75,408.75L323.75,411.25L313.75,411.25" style="fill:none;fill-rule:nonzero;stroke:rgb(16,16,16);stroke-width:1px;"/>
    </g>
    <g>
        <path d="M486.25,451.25L486.25,523.75L483.75,523.75L483.75,451.25L481.25,451.25L481.25,523.75L478.75,523.75L478.75,451.25L476.25,451.25L476.25,523.75L473.75,526.25L473.75,548.75L471.25,548.75L471.25,526.25L468.75,526.25L468.75,548.75L466.25,548.75L466.25,526.25L463.75,526.25L463.75,548.75L461.25,551.25L461.25,561.25L458.75,561.25L458.75,551.25L456.25,551.25L456.25,561.25L453.75,561.25L453.75,551.25L451.25,551.25L451.25,561.25" style="fill:none;fill-rule:nonzero;stroke:rgb(16,16,16);stroke-width:1px;"/>
    </g>
    <g>
        <path d="M451.25,423.75L451.25,413.75L461.25,413.75L461.25,416.25L453.75,416.25L453.75,418.75L461.25,418.75L461.25,421.25L453.75,421.25L453.75,423.75L461.25,423.75L463.75,426.25L473.75,426.25L473.75,428.75L463.75,428.75L463.75,431.25L473.75,431.25L473.75,433.75L463.75,433.75L463.75,436.25L473.75,436.25L473.75,438.75L463.75,438.75L463.75,441.25L473.75,441.25L473.75,443.75L463.75,443.75L463.75,446.25L473.75,446.25L473.75,448.75L463.75,448.75" style="fill:none;fill-rule:nonzero;stroke:rgb(16,16,16);stroke-width:1px;"/>
    </g>
    <g>
        <path d="M406.25,488.75L363.75,488.75L363.75,491.25L408.75,491.25L408.75,488.75L411.25,488.75L411.25,493.75L363.75,493.75L363.75,496.25L411.25,496.25L411.25,498.75L363.75,498.75L361.25,501.25L351.25,501.25L351.25,503.75L361.25,503.75L361.25,506.25L351.25,506.25L351.25,508.75L361.25,508.75L361.25,511.25L351.25,511.25" style="fill:none;fill-rule:nonzero;stroke:rgb(16,16,16);stroke-width:1px;"/>
    </g>
    <g>
        <path d="M373.75,586.25L351.25,586.25L351.25,583.75L373.75,583.75L373.75,581.25L351.25,581.25L351.25,578.75L373.75,578.75L373.75,576.25L351.25,576.25L348.75,573.75L326.25,573.75L326.25,571.25L348.75,571.25L348.75,568.75L326.25,568.75L326.25,566.25L348.75,566.25L348.75,563.75L326.25,563.75L323.75,561.25L313.75,561.25L313.75,558.75L323.75,558.75L323.75,556.25L313.75,556.25L313.75,553.75L323.75,553.75L323.75,551.25L313.75,551.25L311.25,548.75L288.75,548.75L288.75,546.25L311.25,546.25L311.25,543.75L288.75,543.75L288.75,541.25L311.25,541.25L311.25,538.75L288.75,538.75L286.25,536.25L251.25,536.25L251.25,533.75L286.25,533.75L286.25,531.25L251.25,531.25L251.25,528.75L286.25,528.75L286.25,526.25L251.25,526.25L248.75,523.75L226.25,523.75L226.25,521.25L248.75,521.25L248.75,518.75L226.25,518.75L226.25,516.25L248.75,516.25L248.75,513.75L226.25,513.75L223.75,511.25L213.75,511.25L213.75,508.75L223.75,508.75L223.75,506.25L213.75,506.25L213.75,503.75L223.75,503.75L223.75,501.25L213.75,501.25" style="fill:none;fill-rule:nonzero;stroke:rgb(16,16,16);stroke-width:1px;"/>
    </g>
    <g>
        <path d="M598.75,673.75L598.75,601.25L596.25,601.25L596.25,673.75L593.75,673.75L593.75,601.25L591.25,601.25L591.25,673.75L588.75,673.75L588.75,601.25L586.25,598.75L586.25,576.25L583.75,576.25L583.75,598.75L581.25,598.75L581.25,576.25L578.75,576.25L578.75,598.75L576.25,598.75L576.25,576.25" style="fill:none;fill-rule:nonzero;stroke:rgb(16,16,16);stroke-width:1px;"/>
    </g>
    <g>
        <path d="M361.25,636.25L338.75,636.25L338.75,633.75L361.25,633.75L361.25,631.25L338.75,631.25L338.75,628.75L361.25,628.75L361.25,626.25L338.75,626.25L336.25,623.75L326.25,623.75L326.25,621.25L336.25,621.25L336.25,618.75L326.25,618.75L326.25,616.25L336.25,616.25L336.25,613.75L326.25,613.75L326.25,611.25L336.25,611.25L336.25,608.75L326.25,608.75L326.25,606.25L336.25,606.25L336.25,603.75L326.25,603.75L326.25,601.25L336.25,601.25" style="fill:none;fill-rule:nonzero;stroke:rgb(16,16,16);stroke-width:1px;"/>
    </g>
    <g>
        <path d="M376.25,623.75L376.25,601.25L378.75,601.25L378.75,623.75L381.25,623.75L381.25,601.25L383.75,601.25L383.75,623.75L386.25,623.75L386.25,601.25" style="fill:none;fill-rule:nonzero;stroke:rgb(16,16,16);stroke-width:1px;"/>
    </g>
    <g>
        <path d="M456.25,601.25L438.75,601.25L438.75,603.75L458.75,603.75L458.75,601.25L461.25,601.25L461.25,606.25L438.75,606.25L438.75,608.75L461.25,608.75L461.25,611.25L438.75,611.25L436.25,613.75L426.25,613.75L426.25,616.25L436.25,616.25L436.25,618.75L426.25,618.75L426.25,621.25L436.25,621.25L436.25,623.75L426.25,623.75L426.25,626.25L436.25,626.25L436.25,628.75L426.25,628.75L426.25,631.25L436.25,631.25L436.25,633.75L426.25,633.75L426.25,636.25L436.25,636.25L438.75,638.75L448.75,638.75L448.75,641.25L438.75,641.25L438.75,643.75L448.75,643.75L448.75,646.25L438.75,646.25L438.75,648.75L448.75,648.75" style="fill:none;fill-rule:nonzero;stroke:rgb(16,16,16);stroke-width:1px;"/>
    </g>
    <g>
        <path d="M523.75,613.75L523.75,623.75L521.25,623.75L521.25,613.75L518.75,613.75L518.75,623.75L516.25,623.75L516.25,613.75L513.75,613.75L513.75,623.75L511.25,626.25L511.25,648.75L508.75,648.75L508.75,626.25L506.25,626.25L506.25,648.75L503.75,648.75L503.75,626.25L501.25,626.25L501.25,648.75L498.75,651.25L498.75,673.75L496.25,673.75L496.25,651.25L493.75,651.25L493.75,673.75L491.25,673.75L491.25,651.25L488.75,651.25L488.75,673.75" style="fill:none;fill-rule:nonzero;stroke:rgb(16,16,16);stroke-width:1px;"/>
    </g>
    <g>
        <path d="M493.75,701.25L451.25,701.25L451.25,703.75L496.25,703.75L496.25,701.25L498.75,701.25L498.75,706.25L451.25,706.25L451.25,708.75L498.75,708.75L498.75,711.25L451.25,711.25L448.75,713.75L373.75,713.75L373.75,701.25L363.75,701.25L363.75,703.75L371.25,703.75L371.25,706.25L363.75,706.25L363.75,708.75L371.25,708.75L371.25,711.25L363.75,711.25L363.75,713.75L371.25,713.75L371.25,716.25L363.75,716.25L363.75,718.75L373.75,718.75L373.75,716.25L448.75,716.25L448.75,718.75L376.25,718.75L376.25,721.25L363.75,721.25L363.75,723.75L378.75,723.75L378.75,721.25L448.75,721.25L448.75,723.75L381.25,723.75" style="fill:none;fill-rule:nonzero;stroke:rgb(16,16,16);stroke-width:1px;"/>
    </g>
    <g>
        <path d="M448.75,698.75L426.25,698.75L426.25,696.25L448.75,696.25L448.75,693.75L426.25,693.75L426.25,691.25L448.75,691.25L448.75,688.75L426.25,688.75L423.75,686.25L413.75,686.25L413.75,683.75L423.75,683.75L423.75,681.25L413.75,681.25L413.75,678.75L423.75,678.75L423.75,676.25L413.75,676.25L411.25,673.75L401.25,673.75L401.25,671.25L411.25,671.25L411.25,668.75L401.25,668.75L401.25,666.25L411.25,666.25L411.25,663.75L401.25,663.75L398.75,661.25L388.75,661.25L388.75,658.75L398.75,658.75L398.75,656.25L388.75,656.25L388.75,653.75L398.75,653.75L398.75,651.25L388.75,651.25L388.75,648.75L398.75,648.75L398.75,646.25L388.75,646.25L388.75,643.75L398.75,643.75L398.75,641.25L388.75,641.25L388.75,638.75L398.75,638.75" style="fill:none;fill-rule:nonzero;stroke:rgb(16,16,16);stroke-width:1px;"/>
    </g>
    <g>
        <path d="M586.25,688.75L586.25,723.75L583.75,723.75L583.75,688.75L581.25,688.75L581.25,723.75L578.75,723.75L578.75,688.75L576.25,688.75L576.25,723.75L573.75,726.25L573.75,736.25L571.25,736.25L571.25,726.25L568.75,726.25L568.75,736.25L566.25,736.25L566.25,726.25L563.75,726.25L563.75,736.25L561.25,738.75L561.25,748.75L558.75,748.75L558.75,738.75L556.25,738.75L556.25,748.75L553.75,748.75L553.75,738.75L551.25,738.75L551.25,748.75L548.75,748.75L548.75,738.75L546.25,738.75L546.25,748.75L543.75,748.75L543.75,738.75L541.25,738.75L541.25,748.75L538.75,748.75L538.75,738.75L536.25,738.75L536.25,748.75L533.75,748.75L533.75,738.75L531.25,738.75L531.25,748.75L528.75,748.75L528.75,738.75L526.25,738.75L526.25,748.75L523.75,748.75L523.75,738.75L521.25,738.75L521.25,748.75L518.75,748.75L518.75,738.75L516.25,738.75L516.25,748.75L513.75,748.75L513.75,738.75L511.25,738.75L511.25,726.25L508.75,726.25L508.75,741.25L511.25,741.25L511.25,748.75L508.75,748.75L508.75,743.75L506.25,743.75L506.25,726.25L503.75,726.25L503.75,746.25L506.25,746.25L506.25,748.75L501.25,748.75L501.25,726.25" style="fill:none;fill-rule:nonzero;stroke:rgb(16,16,16);stroke-width:1px;"/>
    </g>
    <g>
        <path d="M536.25,723.75L513.75,723.75L513.75,713.75L516.25,713.75L516.25,721.25L518.75,721.25L518.75,713.75L521.25,713.75L521.25,721.25L523.75,721.25L523.75,713.75L526.25,713.75L526.25,721.25L528.75,721.25L528.75,713.75L531.25,713.75L531.25,721.25L533.75,721.25L533.75,713.75L536.25,713.75L536.25,721.25" style="fill:none;fill-rule:nonzero;stroke:rgb(16,16,16);stroke-width:1px;"/>
    </g>
</svg>
