<?xml version="1.0" encoding="UTF-8" standalone="no"?>
<!DOCTYPE svg PUBLIC "-//W3C//DTD SVG 1.1//EN" "http://www.w3.org/Graphics/SVG/1.1/DTD/svg11.dtd">
<svg width="100%" height="100%" viewBox="0 0 1024 1024" version="1.1" xmlns="http://www.w3.org/2000/svg" xmlns:xlink="http://www.w3.org/1999/xlink" xml:space="preserve" xmlns:serif="http://www.serif.com/" style="fill-rule:evenodd;clip-rule:evenodd;stroke-linecap:round;stroke-linejoin:round;">
    <g>
        <path d="M440.741,285.185L337.037,285.185L337.037,292.593L448.148,292.593L448.148,277.778L337.037,277.778L337.037,255.556L300,255.556L300,188.889L307.407,188.889L307.407,248.148L314.815,248.148L314.815,188.889L322.222,188.889L322.222,248.148L329.63,248.148L329.63,188.889L337.037,188.889L337.037,248.148L344.444,248.148L344.444,270.37L351.852,270.37L351.852,240.741L344.444,240.741L344.444,181.481L337.037,181.481L337.037,151.852L344.444,151.852L344.444,174.074L351.852,174.074L351.852,233.333L359.259,233.333L359.259,270.37L366.667,270.37L366.667,225.926L359.259,225.926L359.259,166.667L351.852,166.667L351.852,151.852L359.259,151.852L359.259,159.259L366.667,159.259L366.667,218.519L374.074,225.926L374.074,270.37L381.481,270.37L381.481,225.926L388.889,225.926L388.889,270.37L396.296,270.37L396.296,225.926L403.704,225.926L403.704,270.37L411.111,270.37L411.111,262.963L418.519,262.963L418.519,270.37L425.926,270.37L425.926,262.963L433.333,262.963L433.333,270.37L440.741,270.37L440.741,262.963L448.148,262.963L448.148,270.37L455.556,270.37L455.556,292.593L462.963,292.593L462.963,262.963L455.556,262.963L455.556,255.556L448.148,255.556L448.148,225.926L455.556,225.926L455.556,248.148L462.963,248.148L462.963,255.556L470.37,255.556L470.37,292.593L477.778,292.593L477.778,248.148L470.37,248.148L470.37,240.741L462.963,240.741L462.963,225.926L470.37,225.926L470.37,233.333L477.778,233.333L477.778,240.741L485.185,240.741L485.185,255.556L492.593,255.556L492.593,233.333L485.185,233.333L485.185,225.926L477.778,225.926" style="fill:none;fill-rule:nonzero;stroke:rgb(68,133,11);stroke-width:1px;"/>
    </g>
    <g>
        <path d="M366.667,151.852L403.704,151.852L403.704,181.481L396.296,181.481L396.296,159.259L388.889,159.259L388.889,181.481L381.481,181.481L381.481,159.259L374.074,159.259L374.074,181.481" style="fill:none;fill-rule:nonzero;stroke:rgb(68,133,11);stroke-width:1px;"/>
    </g>
    <g>
        <path d="M477.778,181.481L448.148,181.481L448.148,151.852L455.556,151.852L455.556,174.074L462.963,174.074L462.963,151.852L470.37,151.852L470.37,174.074L477.778,174.074L477.778,151.852" style="fill:none;fill-rule:nonzero;stroke:rgb(68,133,11);stroke-width:1px;"/>
    </g>
    <g>
        <path d="M588.889,292.593L588.889,225.926L581.481,225.926L581.481,292.593L574.074,292.593L574.074,225.926L566.667,225.926L566.667,292.593L559.259,292.593L559.259,225.926L551.852,218.519L551.852,188.889L544.444,188.889L544.444,218.519L537.037,218.519L537.037,188.889L529.63,188.889L529.63,218.519L522.222,218.519L522.222,188.889" style="fill:none;fill-rule:nonzero;stroke:rgb(68,133,11);stroke-width:1px;"/>
    </g>
    <g>
        <path d="M492.593,225.926L514.815,225.926L514.815,255.556L507.407,255.556L507.407,233.333L500,233.333L500,255.556" style="fill:none;fill-rule:nonzero;stroke:rgb(68,133,11);stroke-width:1px;"/>
    </g>
    <g>
        <path d="M255.556,551.852L225.926,551.852L225.926,522.222L233.333,522.222L233.333,544.444L240.741,544.444L240.741,522.222L248.148,522.222L248.148,544.444L255.556,544.444L255.556,522.222" style="fill:none;fill-rule:nonzero;stroke:rgb(68,133,11);stroke-width:1px;"/>
    </g>
    <g>
        <path d="M588.889,737.037L588.889,707.407L559.259,707.407L559.259,714.815L581.481,714.815L581.481,722.222L559.259,722.222L559.259,729.63L581.481,729.63L581.481,737.037L559.259,737.037L551.852,744.444L485.185,744.444L485.185,751.852L551.852,751.852L551.852,759.259L485.185,759.259L485.185,766.667L551.852,766.667L551.852,774.074L485.185,774.074L477.778,781.481L448.148,781.481L448.148,788.889L477.778,788.889L477.778,796.296L448.148,796.296L448.148,803.704L477.778,803.704L477.778,811.111L448.148,811.111" style="fill:none;fill-rule:nonzero;stroke:rgb(68,133,11);stroke-width:1px;"/>
    </g>
    <g>
        <path d="M522.222,625.926L522.222,596.296L551.852,596.296L551.852,603.704L529.63,603.704L529.63,611.111L551.852,611.111L551.852,618.519L529.63,618.519L529.63,625.926L551.852,625.926L559.259,633.333L588.889,633.333L588.889,640.741L559.259,640.741L559.259,648.148L588.889,648.148L588.889,655.556L559.259,655.556L559.259,662.963L588.889,662.963" style="fill:none;fill-rule:nonzero;stroke:rgb(68,133,11);stroke-width:1px;"/>
    </g>
    <g>
        <path d="M440.741,700L411.111,700L411.111,670.37L418.519,670.37L418.519,692.593L425.926,692.593L425.926,670.37L433.333,670.37L433.333,692.593L440.741,692.593L440.741,670.37" style="fill:none;fill-rule:nonzero;stroke:rgb(68,133,11);stroke-width:1px;"/>
    </g>
    <g>
        <path d="M551.852,700L522.222,700L522.222,670.37L529.63,670.37L529.63,692.593L537.037,692.593L537.037,670.37L544.444,670.37L544.444,692.593L551.852,692.593L551.852,670.37" style="fill:none;fill-rule:nonzero;stroke:rgb(68,133,11);stroke-width:1px;"/>
    </g>
    <g>
        <path d="M440.741,774.074L411.111,774.074L411.111,744.444L418.519,744.444L418.519,766.667L425.926,766.667L425.926,744.444L433.333,744.444L433.333,766.667L440.741,766.667L440.741,744.444" style="fill:none;fill-rule:nonzero;stroke:rgb(68,133,11);stroke-width:1px;"/>
    </g>
    <g>
        <path d="M329.63,477.778L329.63,440.741L366.667,440.741L366.667,411.111L359.259,411.111L359.259,433.333L351.852,433.333L351.852,411.111L344.444,411.111L344.444,433.333L337.037,433.333L337.037,411.111L329.63,411.111L329.63,433.333L322.222,433.333L322.222,477.778L314.815,477.778L314.815,425.926L322.222,425.926L322.222,411.111L314.815,411.111L314.815,418.519L307.407,418.519L307.407,477.778L300,477.778L300,411.111L307.407,411.111" style="fill:none;fill-rule:nonzero;stroke:rgb(247,247,247);stroke-width:1px;"/>
    </g>
    <g>
        <path d="M485.185,477.778L485.185,440.741L448.148,440.741L448.148,411.111L455.556,411.111L455.556,433.333L462.963,433.333L462.963,411.111L470.37,411.111L470.37,433.333L477.778,433.333L477.778,411.111L485.185,411.111L485.185,433.333L492.593,433.333L492.593,411.111L500,411.111L500,440.741L492.593,440.741L492.593,477.778L500,477.778L500,448.148L507.407,448.148L507.407,411.111L514.815,411.111L514.815,455.556L507.407,455.556L507.407,477.778L514.815,477.778L514.815,462.963" style="fill:none;fill-rule:nonzero;stroke:rgb(247,247,247);stroke-width:1px;"/>
    </g>
    <g>
        <path d="M366.667,611.111L366.667,811.111L359.259,811.111L359.259,603.704L366.667,603.704L366.667,596.296L351.852,596.296L351.852,811.111L344.444,811.111L344.444,596.296L337.037,596.296L337.037,811.111L329.63,818.519L329.63,848.148L322.222,848.148L322.222,818.519L314.815,818.519L314.815,848.148L307.407,848.148L307.407,818.519L300,818.519L300,848.148L292.593,855.556L292.593,885.185L285.185,885.185L285.185,855.556L277.778,855.556L277.778,885.185L270.37,885.185L270.37,855.556L262.963,855.556L262.963,885.185L255.556,885.185L255.556,855.556L248.148,855.556L248.148,885.185L240.741,885.185L240.741,855.556L233.333,855.556L233.333,885.185L225.926,885.185L225.926,855.556L218.519,848.148L218.519,818.519L211.111,818.519L211.111,848.148L203.704,848.148L203.704,818.519L196.296,818.519L196.296,848.148L188.889,848.148L188.889,818.519L181.481,811.111L181.481,662.963L329.63,662.963L329.63,633.333L322.222,633.333L322.222,655.556L314.815,655.556L314.815,633.333L307.407,633.333L307.407,655.556L300,655.556L300,633.333L292.593,633.333L292.593,655.556L285.185,655.556L285.185,633.333L277.778,633.333L277.778,655.556L270.37,655.556L270.37,633.333L262.963,633.333L262.963,655.556L255.556,655.556L255.556,633.333L248.148,633.333L248.148,655.556L240.741,655.556L240.741,633.333L233.333,633.333L233.333,655.556L225.926,655.556L225.926,633.333L218.519,633.333L218.519,655.556L211.111,655.556L211.111,633.333L203.704,633.333L203.704,655.556L196.296,655.556L196.296,633.333L188.889,633.333L188.889,655.556L181.481,655.556L181.481,596.296L174.074,596.296L174.074,811.111L166.667,811.111L166.667,596.296L159.259,596.296L159.259,811.111L151.852,811.111L151.852,596.296" style="fill:none;fill-rule:nonzero;stroke:rgb(247,247,247);stroke-width:1px;"/>
    </g>
    <g>
        <path d="M114.815,596.296L114.815,811.111L122.222,811.111L122.222,596.296L129.63,596.296L129.63,811.111L137.037,811.111L137.037,596.296L144.444,596.296L144.444,811.111L151.852,818.519L151.852,848.148L159.259,848.148L159.259,818.519L166.667,818.519L166.667,848.148L174.074,848.148L174.074,818.519L181.481,818.519L181.481,848.148L188.889,855.556L188.889,885.185L196.296,885.185L196.296,855.556L203.704,855.556L203.704,885.185L211.111,885.185L211.111,855.556L218.519,855.556L218.519,885.185L225.926,892.593L225.926,922.222L233.333,922.222L233.333,892.593L240.741,892.593L240.741,922.222L248.148,922.222L248.148,892.593L255.556,892.593L255.556,922.222L262.963,922.222L262.963,892.593L270.37,892.593L270.37,922.222L277.778,922.222L277.778,892.593L285.185,892.593L285.185,922.222L292.593,922.222L292.593,892.593L300,885.185L300,855.556L307.407,855.556L307.407,885.185L314.815,885.185L314.815,855.556L322.222,855.556L322.222,885.185L329.63,885.185L329.63,855.556L337.037,848.148L337.037,818.519L344.444,818.519L344.444,848.148L351.852,848.148L351.852,818.519L359.259,818.519L359.259,848.148L366.667,848.148L366.667,818.519L374.074,811.111L374.074,596.296L381.481,596.296L381.481,811.111L388.889,811.111L388.889,596.296L396.296,596.296L396.296,811.111L403.704,811.111L403.704,596.296" style="fill:none;fill-rule:nonzero;stroke:rgb(46,46,46);stroke-width:1px;"/>
    </g>
    <g>
        <path d="M366.667,559.259L366.667,588.889L359.259,588.889L359.259,559.259L351.852,559.259L351.852,588.889L344.444,588.889L344.444,559.259L337.037,559.259L337.037,588.889L329.63,596.296L329.63,625.926L322.222,625.926L322.222,596.296L314.815,596.296L314.815,625.926L307.407,625.926L307.407,596.296L300,596.296L300,625.926L292.593,625.926L292.593,596.296L285.185,596.296L285.185,625.926L277.778,625.926L277.778,596.296L270.37,596.296L270.37,625.926L262.963,625.926L262.963,596.296L255.556,596.296L255.556,625.926L248.148,625.926L248.148,596.296L240.741,596.296L240.741,625.926L233.333,625.926L233.333,596.296L225.926,596.296L225.926,625.926L218.519,625.926L218.519,596.296L211.111,596.296L211.111,625.926L203.704,625.926L203.704,596.296L196.296,596.296L196.296,625.926L188.889,625.926L188.889,596.296L181.481,588.889L181.481,559.259L174.074,559.259L174.074,588.889L166.667,588.889L166.667,559.259L159.259,559.259L159.259,588.889L151.852,588.889L151.852,559.259" style="fill:none;fill-rule:nonzero;stroke:rgb(46,46,46);stroke-width:1px;"/>
    </g>
    <g>
        <path d="M292.593,811.111L225.926,811.111L225.926,707.407L233.333,707.407L233.333,803.704L240.741,803.704L240.741,707.407L248.148,707.407L248.148,803.704L255.556,803.704L255.556,707.407L262.963,707.407L262.963,803.704L270.37,803.704L270.37,707.407L277.778,707.407L277.778,803.704L285.185,803.704L285.185,707.407L292.593,707.407L292.593,803.704" style="fill:none;fill-rule:nonzero;stroke:rgb(117,117,238);stroke-width:1px;"/>
    </g>
    <g>
        <path d="M411.111,255.556L411.111,218.519L374.074,218.519L374.074,188.889L381.481,188.889L381.481,211.111L388.889,211.111L388.889,188.889L396.296,188.889L396.296,211.111L403.704,211.111L403.704,188.889L411.111,188.889L411.111,211.111L418.519,211.111L418.519,255.556L425.926,255.556L425.926,203.704L418.519,203.704L418.519,181.481L411.111,181.481L411.111,151.852L418.519,151.852L418.519,174.074L425.926,174.074L425.926,196.296L433.333,196.296L433.333,255.556L440.741,255.556L440.741,188.889L433.333,188.889L433.333,166.667L425.926,166.667L425.926,151.852L433.333,151.852L433.333,159.259L440.741,159.259L440.741,181.481L448.148,188.889L448.148,218.519L455.556,218.519L455.556,188.889L462.963,188.889L462.963,218.519L470.37,218.519L470.37,188.889L477.778,188.889L477.778,218.519L485.185,218.519L485.185,188.889L492.593,188.889L492.593,218.519L500,218.519L500,188.889L507.407,188.889L507.407,218.519L514.815,218.519L514.815,188.889" style="fill:none;fill-rule:nonzero;stroke:rgb(108,176,24);stroke-width:1px;"/>
    </g>
    <g>
        <path d="M218.519,514.815L188.889,514.815L188.889,485.185L196.296,485.185L196.296,507.407L203.704,507.407L203.704,485.185L211.111,485.185L211.111,507.407L218.519,507.407L218.519,485.185" style="fill:none;fill-rule:nonzero;stroke:rgb(108,176,24);stroke-width:1px;"/>
    </g>
    <g>
        <path d="M411.111,662.963L411.111,633.333L418.519,633.333L418.519,662.963L425.926,662.963L425.926,633.333L433.333,633.333L433.333,662.963L440.741,662.963L440.741,633.333L448.148,633.333L448.148,596.296L455.556,596.296L455.556,640.741L448.148,640.741L448.148,700L455.556,700L455.556,648.148L462.963,648.148L462.963,596.296L470.37,596.296L470.37,655.556L462.963,655.556L462.963,700L470.37,700L470.37,662.963L477.778,662.963L477.778,596.296L485.185,596.296L485.185,670.37L477.778,670.37L477.778,700L485.185,700L485.185,677.778L492.593,677.778L492.593,596.296L500,596.296L500,685.185L492.593,685.185L492.593,700L500,700L500,692.593L507.407,692.593L507.407,596.296L514.815,596.296L514.815,700L507.407,700" style="fill:none;fill-rule:nonzero;stroke:rgb(108,176,24);stroke-width:1px;"/>
    </g>
    <g>
        <path d="M551.852,662.963L522.222,662.963L522.222,633.333L529.63,633.333L529.63,655.556L537.037,655.556L537.037,633.333L544.444,633.333L544.444,655.556L551.852,655.556L551.852,633.333" style="fill:none;fill-rule:nonzero;stroke:rgb(108,176,24);stroke-width:1px;"/>
    </g>
    <g>
        <path d="M892.593,151.852L922.222,151.852L922.222,159.259L892.593,159.259L892.593,166.667L922.222,166.667L922.222,174.074L892.593,174.074L892.593,181.481L922.222,181.481L922.222,188.889L744.444,188.889L744.444,196.296L922.222,196.296L922.222,203.704L744.444,203.704L744.444,211.111L922.222,211.111L922.222,218.519L744.444,218.519L744.444,225.926L707.407,225.926L707.407,233.333L751.852,233.333L751.852,225.926L885.185,225.926L885.185,233.333L759.259,233.333L759.259,240.741L707.407,240.741L707.407,248.148L766.667,248.148L766.667,240.741L885.185,240.741L885.185,248.148L774.074,248.148L774.074,255.556L707.407,255.556L707.407,262.963L670.37,262.963L670.37,270.37L714.815,270.37L714.815,262.963L774.074,262.963L774.074,270.37L722.222,270.37L722.222,277.778L670.37,277.778L670.37,285.185L729.63,285.185L729.63,277.778L774.074,277.778L774.074,285.185L737.037,285.185L737.037,292.593L670.37,292.593L670.37,300L737.037,300L737.037,307.407L670.37,307.407L670.37,314.815L737.037,314.815L737.037,322.222L670.37,322.222L670.37,329.63L737.037,329.63L737.037,337.037L670.37,337.037L670.37,344.444L737.037,344.444L737.037,351.852L670.37,351.852L670.37,359.259L737.037,359.259L737.037,366.667L670.37,366.667L670.37,374.074L737.037,374.074L737.037,381.481L670.37,381.481L670.37,388.889L737.037,388.889L737.037,396.296L670.37,396.296L670.37,403.704L737.037,403.704" style="fill:none;fill-rule:nonzero;stroke:rgb(68,92,159);stroke-width:1px;"/>
    </g>
    <g>
        <path d="M885.185,255.556L781.481,255.556" style="fill:none;fill-rule:nonzero;stroke:rgb(68,92,159);stroke-width:1px;"/>
    </g>
    <g>
        <path d="M774.074,292.593L744.444,292.593" style="fill:none;fill-rule:nonzero;stroke:rgb(68,92,159);stroke-width:1px;"/>
    </g>
    <g>
        <path d="M700,440.741L670.37,440.741L670.37,411.111L677.778,411.111L677.778,433.333L685.185,433.333L685.185,411.111L692.593,411.111L692.593,433.333L700,433.333L700,411.111" style="fill:none;fill-rule:nonzero;stroke:rgb(68,92,159);stroke-width:1px;"/>
    </g>
    <g>
        <path d="M588.889,403.704L588.889,374.074L581.481,374.074L581.481,403.704L574.074,403.704L574.074,374.074L566.667,374.074L566.667,403.704L559.259,403.704L559.259,374.074L551.852,366.667L551.852,300L544.444,300L544.444,366.667L537.037,366.667L537.037,300L529.63,300L529.63,366.667L522.222,366.667L522.222,300L514.815,300L514.815,366.667L507.407,366.667L507.407,300L500,300L500,366.667L492.593,366.667L492.593,300L485.185,300L485.185,366.667L477.778,366.667L477.778,337.037L470.37,337.037L470.37,366.667L462.963,366.667L462.963,337.037L455.556,337.037L455.556,366.667L448.148,366.667L448.148,337.037L440.741,337.037L440.741,366.667L433.333,366.667L433.333,337.037L425.926,337.037L425.926,366.667L418.519,366.667L418.519,337.037L411.111,337.037L411.111,366.667L403.704,366.667L403.704,337.037L396.296,337.037L396.296,366.667L388.889,366.667L388.889,337.037L381.481,337.037L381.481,366.667L374.074,366.667L374.074,337.037L366.667,337.037L366.667,366.667L359.259,366.667L359.259,337.037L351.852,337.037L351.852,366.667L344.444,366.667L344.444,337.037L337.037,337.037L337.037,366.667L329.63,366.667L329.63,300L322.222,300L322.222,366.667L314.815,366.667L314.815,300L307.407,300L307.407,366.667L300,366.667L300,300L292.593,300L292.593,366.667L285.185,366.667L285.185,300L277.778,300L277.778,366.667L270.37,366.667L270.37,300L262.963,300L262.963,366.667L255.556,374.074L255.556,403.704L248.148,403.704L248.148,374.074L240.741,374.074L240.741,403.704L233.333,403.704L233.333,374.074L225.926,374.074L225.926,403.704" style="fill:none;fill-rule:nonzero;stroke:rgb(238,211,53);stroke-width:1px;"/>
    </g>
    <g>
        <path d="M255.556,329.63L225.926,329.63L225.926,262.963L233.333,262.963L233.333,322.222L240.741,322.222L240.741,262.963L248.148,262.963L248.148,322.222L255.556,322.222L255.556,262.963" style="fill:none;fill-rule:nonzero;stroke:rgb(238,211,53);stroke-width:1px;"/>
    </g>
    <g>
        <path d="M448.148,774.074L477.778,774.074L477.778,766.667L448.148,766.667L448.148,759.259L477.778,759.259L477.778,751.852L448.148,751.852L448.148,744.444L477.778,744.444L485.185,737.037L551.852,737.037L551.852,729.63L485.185,729.63L485.185,722.222L551.852,722.222L551.852,714.815L485.185,714.815L485.185,707.407L551.852,707.407L559.259,700L588.889,700L588.889,692.593L559.259,692.593L559.259,685.185L588.889,685.185L588.889,677.778L559.259,677.778L559.259,670.37L588.889,670.37" style="fill:none;fill-rule:nonzero;stroke:rgb(238,211,53);stroke-width:1px;"/>
    </g>
    <g>
        <path d="M440.741,737.037L411.111,737.037L411.111,707.407L418.519,707.407L418.519,729.63L425.926,729.63L425.926,707.407L433.333,707.407L433.333,729.63L440.741,729.63L440.741,707.407" style="fill:none;fill-rule:nonzero;stroke:rgb(238,211,53);stroke-width:1px;"/>
    </g>
    <g>
        <path d="M292.593,848.148L225.926,848.148L225.926,840.741L292.593,840.741L292.593,833.333L225.926,833.333L225.926,825.926L292.593,825.926L292.593,818.519L225.926,818.519L218.519,811.111L188.889,811.111L188.889,803.704L218.519,803.704L218.519,796.296L188.889,796.296L188.889,788.889L218.519,788.889L218.519,781.481L188.889,781.481L188.889,774.074L218.519,774.074L218.519,766.667L188.889,766.667L188.889,759.259L218.519,759.259L218.519,751.852L188.889,751.852L188.889,744.444L218.519,744.444L218.519,737.037L188.889,737.037L188.889,729.63L218.519,729.63L218.519,722.222L188.889,722.222L188.889,714.815L218.519,714.815L218.519,707.407L188.889,707.407L188.889,700L300,700L300,811.111L329.63,811.111L329.63,803.704L307.407,803.704L307.407,796.296L329.63,796.296L329.63,788.889L307.407,788.889L307.407,781.481L329.63,781.481L329.63,774.074L307.407,774.074L307.407,766.667L329.63,766.667L329.63,759.259L307.407,759.259L307.407,751.852L329.63,751.852L329.63,744.444L307.407,744.444L307.407,737.037L329.63,737.037L329.63,729.63L307.407,729.63L307.407,722.222L329.63,722.222L329.63,714.815L307.407,714.815L307.407,707.407L329.63,707.407L329.63,700L307.407,700L307.407,692.593L188.889,692.593L188.889,685.185L314.815,685.185L314.815,692.593L329.63,692.593L329.63,685.185L322.222,685.185L322.222,677.778L188.889,677.778L188.889,670.37L329.63,670.37L329.63,677.778" style="fill:none;fill-rule:nonzero;stroke:rgb(31,31,193);stroke-width:1px;"/>
    </g>
    <g>
        <path d="M670.37,114.815L922.222,114.815L922.222,122.222L670.37,122.222L670.37,129.63L922.222,129.63L922.222,137.037L670.37,137.037L670.37,144.444L922.222,144.444L929.63,151.852L959.259,151.852L959.259,159.259L929.63,159.259L929.63,166.667L959.259,166.667L959.259,174.074L929.63,174.074L929.63,181.481L959.259,181.481L959.259,188.889L929.63,188.889L929.63,196.296L959.259,196.296L959.259,203.704L929.63,203.704L929.63,211.111L959.259,211.111L959.259,218.519L929.63,218.519L929.63,225.926L892.593,225.926L892.593,233.333L937.037,233.333L937.037,225.926L959.259,225.926L959.259,233.333L944.444,233.333L944.444,240.741L892.593,240.741L892.593,248.148L951.852,248.148L951.852,240.741L959.259,240.741L959.259,255.556L892.593,255.556L892.593,262.963L781.481,262.963L781.481,270.37L900,270.37L900,262.963L922.222,262.963L922.222,270.37L907.407,270.37L907.407,277.778L781.481,277.778L781.481,285.185L914.815,285.185L914.815,277.778L922.222,277.778L922.222,292.593L781.481,292.593L774.074,300L744.444,300L744.444,307.407L774.074,307.407L774.074,314.815L744.444,314.815L744.444,322.222L774.074,322.222L774.074,329.63L744.444,329.63L744.444,337.037L774.074,337.037L774.074,344.444L744.444,344.444L744.444,351.852L774.074,351.852L774.074,359.259L744.444,359.259L744.444,366.667L774.074,366.667L774.074,374.074L744.444,374.074L744.444,381.481L774.074,381.481L774.074,388.889L744.444,388.889L744.444,396.296L774.074,396.296L774.074,403.704L744.444,403.704L744.444,411.111L707.407,411.111L707.407,418.519L751.852,418.519L751.852,411.111L774.074,411.111L774.074,418.519L759.259,418.519L759.259,425.926L707.407,425.926L707.407,433.333L766.667,433.333L766.667,425.926L774.074,425.926L774.074,440.741L707.407,440.741L707.407,448.148L625.926,448.148L625.926,188.889L559.259,188.889L559.259,196.296L618.519,196.296L618.519,203.704L559.259,203.704L559.259,211.111L618.519,211.111L618.519,218.519L559.259,218.519L551.852,225.926L522.222,225.926L522.222,233.333L551.852,233.333L551.852,240.741L522.222,240.741L522.222,248.148L551.852,248.148L551.852,255.556L522.222,255.556L522.222,262.963L485.185,262.963L485.185,270.37L529.63,270.37L529.63,262.963L551.852,262.963L551.852,270.37L537.037,270.37L537.037,277.778L485.185,277.778L485.185,285.185L544.444,285.185L544.444,277.778L551.852,277.778L551.852,292.593L485.185,292.593L477.778,300L337.037,300L337.037,307.407L477.778,307.407L477.778,314.815L337.037,314.815L337.037,322.222L477.778,322.222L477.778,329.63L337.037,329.63" style="fill:none;fill-rule:nonzero;stroke:rgb(31,31,31);stroke-width:1px;"/>
    </g>
    <g>
        <path d="M477.778,114.815L337.037,114.815L337.037,122.222L477.778,122.222L477.778,129.63L337.037,129.63L337.037,137.037L477.778,137.037L477.778,144.444L337.037,144.444L329.63,151.852L300,151.852L300,159.259L329.63,159.259L329.63,166.667L300,166.667L300,174.074L329.63,174.074L329.63,181.481L300,181.481L292.593,188.889L262.963,188.889L262.963,196.296L292.593,196.296L292.593,203.704L262.963,203.704L262.963,211.111L292.593,211.111L292.593,218.519L262.963,218.519L262.963,225.926L225.926,225.926L225.926,233.333L270.37,233.333L270.37,225.926L292.593,225.926L292.593,233.333L277.778,233.333L277.778,240.741L225.926,240.741L225.926,248.148L285.185,248.148L285.185,240.741L292.593,240.741L292.593,255.556L225.926,255.556L218.519,262.963L188.889,262.963L188.889,270.37L218.519,270.37L218.519,277.778L188.889,277.778L188.889,285.185L218.519,285.185L218.519,292.593L188.889,292.593L188.889,300L218.519,300L218.519,307.407L188.889,307.407L188.889,314.815L218.519,314.815L218.519,322.222L188.889,322.222L188.889,329.63L218.519,329.63L225.926,337.037L255.556,337.037L255.556,344.444L225.926,344.444L225.926,351.852L255.556,351.852L255.556,359.259L225.926,359.259L225.926,366.667L255.556,366.667L262.963,374.074L551.852,374.074L551.852,381.481L262.963,381.481L262.963,388.889L551.852,388.889L551.852,396.296L262.963,396.296L262.963,403.704L551.852,403.704L559.259,411.111L596.296,411.111L596.296,225.926L618.519,225.926L618.519,233.333L603.704,233.333L603.704,240.741L618.519,240.741L618.519,248.148L603.704,248.148L603.704,255.556L618.519,255.556L618.519,262.963L603.704,262.963L603.704,270.37L618.519,270.37L618.519,277.778L603.704,277.778L603.704,285.185L618.519,285.185L618.519,292.593L603.704,292.593L603.704,300L618.519,300L618.519,307.407L603.704,307.407L603.704,314.815L618.519,314.815L618.519,322.222L603.704,322.222L603.704,329.63L618.519,329.63L618.519,337.037L603.704,337.037L603.704,344.444L618.519,344.444L618.519,351.852L603.704,351.852L603.704,359.259L618.519,359.259L618.519,366.667L603.704,366.667L603.704,374.074L618.519,374.074L618.519,381.481L603.704,381.481L603.704,388.889L618.519,388.889L618.519,396.296L603.704,396.296L603.704,403.704L618.519,403.704L618.519,411.111L603.704,411.111L603.704,418.519L559.259,418.519L559.259,425.926L611.111,425.926L611.111,418.519L618.519,418.519L618.519,433.333L559.259,433.333L559.259,440.741L618.519,440.741L618.519,448.148L596.296,448.148L596.296,455.556L714.815,455.556L714.815,448.148L737.037,448.148L737.037,455.556L722.222,455.556L722.222,462.963L596.296,462.963L596.296,470.37L729.63,470.37L729.63,462.963L737.037,462.963L737.037,477.778L596.296,477.778L588.889,485.185L559.259,485.185L559.259,492.593L588.889,492.593L588.889,500L559.259,500L559.259,507.407L588.889,507.407L588.889,514.815L559.259,514.815L551.852,522.222L522.222,522.222L522.222,529.63L551.852,529.63L551.852,537.037L522.222,537.037L522.222,544.444L551.852,544.444L551.852,551.852L522.222,551.852L522.222,559.259L448.148,559.259L448.148,566.667L529.63,566.667L529.63,559.259L551.852,559.259L551.852,566.667L537.037,566.667L537.037,574.074L448.148,574.074L448.148,581.481L544.444,581.481L544.444,574.074L551.852,574.074L551.852,588.889L448.148,588.889L440.741,596.296L411.111,596.296L411.111,603.704L440.741,603.704L440.741,611.111L411.111,611.111L411.111,618.519L440.741,618.519L440.741,625.926L411.111,625.926" style="fill:none;fill-rule:nonzero;stroke:rgb(31,31,31);stroke-width:1px;"/>
    </g>
    <g>
        <path d="M551.852,181.481L485.185,181.481L485.185,151.852L492.593,151.852L492.593,174.074L500,174.074L500,151.852L507.407,151.852L507.407,174.074L514.815,174.074L514.815,151.852L522.222,151.852L522.222,174.074L529.63,174.074L529.63,151.852L537.037,151.852L537.037,174.074L544.444,174.074L544.444,151.852L551.852,151.852L551.852,174.074" style="fill:none;fill-rule:nonzero;stroke:rgb(31,31,31);stroke-width:1px;"/>
    </g>
    <g>
        <path d="M662.963,181.481L633.333,181.481L633.333,151.852L640.741,151.852L640.741,174.074L648.148,174.074L648.148,151.852L655.556,151.852L655.556,174.074L662.963,174.074L662.963,151.852" style="fill:none;fill-rule:nonzero;stroke:rgb(31,31,31);stroke-width:1px;"/>
    </g>
    <g>
        <path d="M181.481,255.556L181.481,225.926L151.852,225.926L151.852,233.333L174.074,233.333L174.074,240.741L151.852,240.741L151.852,248.148L174.074,248.148L174.074,255.556L151.852,255.556L144.444,262.963L114.815,262.963L114.815,270.37L144.444,270.37L144.444,277.778L114.815,277.778L114.815,285.185L144.444,285.185L144.444,292.593L114.815,292.593L114.815,300L144.444,300L144.444,307.407L114.815,307.407L114.815,314.815L144.444,314.815L144.444,322.222L114.815,322.222L114.815,329.63L144.444,329.63L144.444,337.037L114.815,337.037L114.815,344.444L144.444,344.444L144.444,351.852L114.815,351.852L114.815,359.259L144.444,359.259L144.444,366.667L114.815,366.667L114.815,374.074L144.444,374.074L144.444,381.481L114.815,381.481L114.815,388.889L144.444,388.889L144.444,396.296L114.815,396.296L114.815,403.704L144.444,403.704L151.852,411.111L181.481,411.111L181.481,418.519L151.852,418.519L151.852,425.926L181.481,425.926L181.481,433.333L151.852,433.333L151.852,440.741L181.481,440.741L188.889,448.148L218.519,448.148L218.519,455.556L188.889,455.556L188.889,462.963L218.519,462.963L218.519,470.37L188.889,470.37L188.889,477.778L218.519,477.778L225.926,485.185L255.556,485.185L255.556,492.593L225.926,492.593L225.926,500L255.556,500L255.556,507.407L225.926,507.407L225.926,514.815L255.556,514.815L262.963,522.222L292.593,522.222L292.593,529.63L262.963,529.63L262.963,537.037L292.593,537.037L292.593,544.444L262.963,544.444L262.963,551.852L292.593,551.852L292.593,559.259L329.63,559.259L329.63,566.667L285.185,566.667L285.185,559.259L188.889,559.259L188.889,566.667L277.778,566.667L277.778,574.074L329.63,574.074L329.63,581.481L270.37,581.481L270.37,574.074L188.889,574.074L188.889,581.481L262.963,581.481L262.963,588.889L329.63,588.889" style="fill:none;fill-rule:nonzero;stroke:rgb(31,31,31);stroke-width:1px;"/>
    </g>
    <g>
        <path d="M329.63,292.593L262.963,292.593L262.963,262.963L270.37,262.963L270.37,285.185L277.778,285.185L277.778,262.963L285.185,262.963L285.185,285.185L292.593,285.185L292.593,262.963L300,262.963L300,285.185L307.407,285.185L307.407,262.963L314.815,262.963L314.815,285.185L322.222,285.185L322.222,262.963L329.63,262.963L329.63,285.185" style="fill:none;fill-rule:nonzero;stroke:rgb(31,31,31);stroke-width:1px;"/>
    </g>
    <g>
        <path d="M559.259,366.667L559.259,300L566.667,300L566.667,366.667L574.074,366.667L574.074,300L581.481,300L581.481,366.667L588.889,366.667L588.889,300" style="fill:none;fill-rule:nonzero;stroke:rgb(31,31,31);stroke-width:1px;"/>
    </g>
    <g>
        <path d="M255.556,411.111L255.556,440.741L225.926,440.741L225.926,433.333L248.148,433.333L248.148,425.926L225.926,425.926L225.926,418.519L248.148,418.519L248.148,411.111L225.926,411.111L218.519,403.704L188.889,403.704L188.889,396.296L218.519,396.296L218.519,388.889L188.889,388.889L188.889,381.481L218.519,381.481L218.519,374.074L188.889,374.074" style="fill:none;fill-rule:nonzero;stroke:rgb(31,31,31);stroke-width:1px;"/>
    </g>
    <g>
        <path d="M337.037,514.815L337.037,448.148L344.444,448.148L344.444,514.815L351.852,514.815L351.852,448.148L359.259,448.148L359.259,514.815L366.667,514.815L366.667,448.148" style="fill:none;fill-rule:nonzero;stroke:rgb(31,31,31);stroke-width:1px;"/>
    </g>
    <g>
        <path d="M448.148,514.815L448.148,448.148L455.556,448.148L455.556,514.815L462.963,514.815L462.963,448.148L470.37,448.148L470.37,514.815L477.778,514.815L477.778,448.148" style="fill:none;fill-rule:nonzero;stroke:rgb(31,31,31);stroke-width:1px;"/>
    </g>
    <g>
        <path d="M181.481,485.185L181.481,514.815L174.074,514.815L174.074,485.185L166.667,485.185L166.667,514.815L159.259,514.815L159.259,485.185L151.852,485.185L151.852,514.815L144.444,522.222L144.444,588.889L137.037,588.889L137.037,522.222L129.63,522.222L129.63,588.889L122.222,588.889L122.222,522.222L114.815,522.222L114.815,588.889" style="fill:none;fill-rule:nonzero;stroke:rgb(31,31,31);stroke-width:1px;"/>
    </g>
    <g>
        <path d="M559.259,625.926L559.259,596.296L625.926,596.296L625.926,603.704L566.667,603.704L566.667,611.111L625.926,611.111L625.926,618.519L566.667,618.519L566.667,625.926L625.926,625.926L625.926,633.333L596.296,633.333L596.296,640.741L625.926,640.741L625.926,648.148L596.296,648.148L596.296,655.556L625.926,655.556L625.926,662.963L596.296,662.963L596.296,670.37L625.926,670.37L625.926,677.778L596.296,677.778L596.296,685.185L625.926,685.185L625.926,692.593L596.296,692.593L596.296,700L625.926,700L625.926,707.407L596.296,707.407L596.296,714.815L625.926,714.815L625.926,722.222L596.296,722.222L596.296,729.63L625.926,729.63L625.926,737.037L596.296,737.037L596.296,744.444L625.926,744.444L625.926,751.852L588.889,751.852L588.889,744.444L559.259,744.444L559.259,751.852L581.481,751.852L581.481,759.259L625.926,759.259L625.926,766.667L574.074,766.667L574.074,759.259L559.259,759.259L559.259,766.667L566.667,766.667L566.667,774.074L625.926,774.074L625.926,781.481L596.296,781.481L596.296,788.889L625.926,788.889L625.926,796.296L596.296,796.296L596.296,803.704L625.926,803.704L625.926,811.111L596.296,811.111L588.889,818.519L551.852,818.519L551.852,781.481L485.185,781.481L485.185,788.889L544.444,788.889L544.444,796.296L485.185,796.296L485.185,803.704L544.444,803.704L544.444,811.111L485.185,811.111L485.185,818.519L544.444,818.519L544.444,825.926L588.889,825.926L588.889,833.333L537.037,833.333L537.037,825.926L477.778,825.926L477.778,818.519L440.741,818.519L440.741,781.481L411.111,781.481L411.111,788.889L433.333,788.889L433.333,796.296L411.111,796.296L411.111,803.704L433.333,803.704L433.333,811.111L411.111,811.111L411.111,818.519L433.333,818.519L433.333,825.926L470.37,825.926L470.37,833.333L529.63,833.333L529.63,840.741L588.889,840.741L588.889,848.148L522.222,848.148L522.222,840.741L462.963,840.741L462.963,833.333L425.926,833.333L425.926,825.926L403.704,825.926L403.704,818.519L374.074,818.519L374.074,825.926L396.296,825.926L396.296,833.333L418.519,833.333L418.519,840.741L455.556,840.741L455.556,848.148L514.815,848.148L514.815,855.556L448.148,855.556L448.148,848.148L411.111,848.148L411.111,840.741L388.889,840.741L388.889,833.333L374.074,833.333L374.074,840.741L381.481,840.741L381.481,848.148L403.704,848.148L403.704,855.556L440.741,855.556L440.741,862.963L514.815,862.963L514.815,870.37L433.333,870.37L433.333,862.963L396.296,862.963L396.296,855.556L374.074,855.556L374.074,848.148L366.667,855.556L337.037,855.556L337.037,862.963L388.889,862.963L388.889,870.37L425.926,870.37L425.926,877.778L514.815,877.778L514.815,885.185L418.519,885.185L418.519,877.778L381.481,877.778L381.481,870.37L337.037,870.37L337.037,877.778L374.074,877.778L374.074,885.185L411.111,885.185" style="fill:none;fill-rule:nonzero;stroke:rgb(31,31,31);stroke-width:1px;"/>
    </g>
    <g>
        <path d="M662.963,588.889L633.333,588.889L633.333,522.222L640.741,522.222L640.741,581.481L648.148,581.481L648.148,522.222L655.556,522.222L655.556,581.481L662.963,581.481L662.963,522.222L670.37,514.815L670.37,485.185L677.778,485.185L677.778,514.815L685.185,514.815L685.185,485.185L692.593,485.185L692.593,514.815L700,514.815L700,485.185" style="fill:none;fill-rule:nonzero;stroke:rgb(31,31,31);stroke-width:1px;"/>
    </g>
    <g>
        <path d="M255.556,588.889L188.889,588.889" style="fill:none;fill-rule:nonzero;stroke:rgb(31,31,31);stroke-width:1px;"/>
    </g>
    <g>
        <path d="M477.778,737.037L448.148,737.037L448.148,707.407L455.556,707.407L455.556,729.63L462.963,729.63L462.963,707.407L470.37,707.407L470.37,729.63L477.778,729.63L477.778,707.407" style="fill:none;fill-rule:nonzero;stroke:rgb(31,31,31);stroke-width:1px;"/>
    </g>
    <g>
        <path d="M366.667,885.185L337.037,885.185" style="fill:none;fill-rule:nonzero;stroke:rgb(31,31,31);stroke-width:1px;"/>
    </g>
    <g>
        <path d="M218.519,337.037L218.519,366.667L188.889,366.667L188.889,359.259L211.111,359.259L211.111,351.852L188.889,351.852L188.889,344.444L211.111,344.444L211.111,337.037L188.889,337.037L181.481,329.63L151.852,329.63L151.852,322.222L181.481,322.222L181.481,314.815L151.852,314.815L151.852,307.407L181.481,307.407L181.481,300L151.852,300L151.852,292.593L181.481,292.593L181.481,285.185L151.852,285.185L151.852,277.778L181.481,277.778L181.481,270.37L151.852,270.37L151.852,262.963L181.481,262.963" style="fill:none;fill-rule:nonzero;stroke:rgb(238,150,92);stroke-width:1px;"/>
    </g>
    <g>
        <path d="M329.63,485.185L300,485.185L300,514.815L307.407,514.815L307.407,492.593L314.815,492.593L314.815,514.815L322.222,514.815L322.222,492.593L329.63,492.593L329.63,514.815L337.037,522.222L337.037,551.852L344.444,551.852L344.444,522.222L351.852,522.222L351.852,551.852L359.259,551.852L359.259,522.222L366.667,522.222L366.667,551.852L374.074,551.852L374.074,448.148L381.481,448.148L381.481,551.852L388.889,551.852L388.889,448.148L396.296,448.148L396.296,551.852L403.704,551.852L403.704,448.148L411.111,448.148L411.111,551.852L418.519,551.852L418.519,448.148L425.926,448.148L425.926,551.852L433.333,551.852L433.333,448.148L440.741,448.148L440.741,551.852L448.148,551.852L448.148,522.222L455.556,522.222L455.556,551.852L462.963,551.852L462.963,522.222L470.37,522.222L470.37,551.852L477.778,551.852L477.778,522.222L485.185,514.815L485.185,485.185L492.593,485.185L492.593,514.815L500,514.815L500,485.185L507.407,485.185L507.407,514.815L514.815,514.815L514.815,485.185" style="fill:none;fill-rule:nonzero;stroke:rgb(238,150,92);stroke-width:1px;"/>
    </g>
    <g>
        <path d="M181.481,337.037L151.852,337.037L151.852,403.704L159.259,403.704L159.259,344.444L166.667,344.444L166.667,403.704L174.074,403.704L174.074,344.444L181.481,344.444L181.481,403.704L188.889,411.111L188.889,440.741L196.296,440.741L196.296,411.111L203.704,411.111L203.704,440.741L211.111,440.741L211.111,411.111L218.519,411.111L218.519,440.741L225.926,448.148L225.926,477.778L233.333,477.778L233.333,448.148L240.741,448.148L240.741,477.778L248.148,477.778L248.148,448.148L255.556,448.148L255.556,477.778L262.963,477.778L262.963,411.111L270.37,411.111L270.37,485.185L262.963,485.185L262.963,514.815L270.37,514.815L270.37,492.593L277.778,492.593L277.778,411.111L285.185,411.111L285.185,500L277.778,500L277.778,514.815L285.185,514.815L285.185,507.407L292.593,507.407L292.593,411.111" style="fill:none;fill-rule:nonzero;stroke:rgb(176,92,24);stroke-width:1px;"/>
    </g>
    <g>
        <path d="M440.741,440.741L374.074,440.741L374.074,411.111L381.481,411.111L381.481,433.333L388.889,433.333L388.889,411.111L396.296,411.111L396.296,433.333L403.704,433.333L403.704,411.111L411.111,411.111L411.111,433.333L418.519,433.333L418.519,411.111L425.926,411.111L425.926,433.333L433.333,433.333L433.333,411.111L440.741,411.111L440.741,433.333" style="fill:none;fill-rule:nonzero;stroke:rgb(176,92,24);stroke-width:1px;"/>
    </g>
    <g>
        <path d="M485.185,551.852L514.815,551.852L514.815,544.444L485.185,544.444L485.185,537.037L514.815,537.037L514.815,529.63L485.185,529.63L485.185,522.222L514.815,522.222L522.222,514.815L551.852,514.815L551.852,507.407L522.222,507.407L522.222,500L551.852,500L551.852,492.593L522.222,492.593L522.222,485.185L551.852,485.185L551.852,477.778L522.222,477.778L522.222,470.37L559.259,470.37L559.259,477.778L588.889,477.778L588.889,470.37L566.667,470.37L566.667,462.963L522.222,462.963L522.222,455.556L574.074,455.556L574.074,462.963L588.889,462.963L588.889,455.556L581.481,455.556L581.481,448.148L522.222,448.148L522.222,440.741L551.852,440.741L551.852,433.333L522.222,433.333L522.222,425.926L551.852,425.926L551.852,418.519L522.222,418.519L522.222,411.111L551.852,411.111" style="fill:none;fill-rule:nonzero;stroke:rgb(176,92,24);stroke-width:1px;"/>
    </g>
    <g>
        <path d="M329.63,522.222L329.63,551.852L300,551.852L300,544.444L322.222,544.444L322.222,537.037L300,537.037L300,529.63L322.222,529.63L322.222,522.222L300,522.222L292.593,514.815" style="fill:none;fill-rule:nonzero;stroke:rgb(176,92,24);stroke-width:1px;"/>
    </g>
    <g>
        <path d="M440.741,588.889L374.074,588.889L374.074,559.259L381.481,559.259L381.481,581.481L388.889,581.481L388.889,559.259L396.296,559.259L396.296,581.481L403.704,581.481L403.704,559.259L411.111,559.259L411.111,581.481L418.519,581.481L418.519,559.259L425.926,559.259L425.926,581.481L433.333,581.481L433.333,559.259L440.741,559.259L440.741,581.481" style="fill:none;fill-rule:nonzero;stroke:rgb(176,92,24);stroke-width:1px;"/>
    </g>
    <g>
        <path d="M959.259,144.444L929.63,144.444L929.63,114.815L937.037,114.815L937.037,137.037L944.444,137.037L944.444,114.815L951.852,114.815L951.852,137.037L959.259,137.037L959.259,114.815" style="fill:none;fill-rule:nonzero;stroke:black;stroke-opacity:0;stroke-width:1px;"/>
    </g>
    <g>
        <path d="M3.704,522.222L3.704,574.074L11.111,574.074L11.111,581.481L3.704,581.481L3.704,588.889L11.111,588.889L11.111,596.296L3.704,596.296L3.704,603.704L11.111,603.704L11.111,611.111L3.704,611.111L3.704,618.519L11.111,618.519L11.111,625.926L3.704,625.926L3.704,633.333L11.111,633.333L11.111,640.741L3.704,640.741L3.704,648.148L11.111,648.148L11.111,655.556L3.704,655.556L3.704,662.963L11.111,662.963L11.111,670.37L3.704,670.37L3.704,677.778L11.111,677.778L11.111,685.185L3.704,685.185L3.704,692.593L11.111,692.593L11.111,700L3.704,700L3.704,707.407L11.111,707.407L11.111,714.815L3.704,714.815L3.704,722.222L11.111,722.222L11.111,729.63L3.704,729.63L3.704,737.037L11.111,737.037L11.111,744.444L3.704,744.444L3.704,751.852L11.111,751.852L11.111,759.259L3.704,759.259L3.704,766.667L11.111,766.667L11.111,774.074L3.704,774.074L3.704,781.481L11.111,781.481L11.111,788.889L3.704,788.889L3.704,796.296L11.111,796.296L11.111,803.704L3.704,803.704L3.704,811.111L11.111,811.111L11.111,818.519L3.704,818.519L3.704,825.926L11.111,825.926L11.111,833.333L3.704,833.333L3.704,840.741L11.111,840.741L11.111,848.148L3.704,848.148L3.704,855.556L11.111,855.556L11.111,862.963L3.704,862.963L3.704,870.37L18.519,870.37L18.519,877.778L3.704,877.778L3.704,885.185L18.519,885.185L18.519,892.593L3.704,892.593L3.704,900L18.519,900L18.519,907.407L3.704,907.407L3.704,914.815L18.519,914.815L18.519,922.222L3.704,922.222L3.704,929.63L18.519,929.63L18.519,937.037L3.704,937.037L3.704,944.444L18.519,944.444L18.519,951.852L3.704,951.852L3.704,959.259L18.519,959.259L18.519,966.667L3.704,966.667L3.704,974.074L18.519,974.074L18.519,981.481L3.704,981.481L3.704,988.889L18.519,988.889L18.519,996.296L3.704,996.296L3.704,1003.7L18.519,1003.7L18.519,1011.11L3.704,1011.11L3.704,1018.52L18.519,1018.52L18.519,1025.93L3.704,1025.93L3.704,1033.33L18.519,1033.33L18.519,1040.74L3.704,1040.74L3.704,1048.15L18.519,1048.15L18.519,1055.56L3.704,1055.56L3.704,1062.96L18.519,1062.96L18.519,1070.37L3.704,1070.37" style="fill:none;fill-rule:nonzero;stroke:black;stroke-opacity:0;stroke-width:1px;"/>
    </g>
    <g>
        <path d="M485.185,922.222L300,922.222" style="fill:none;fill-rule:nonzero;stroke:black;stroke-opacity:0;stroke-width:1px;"/>
    </g>
    <g>
        <path d="M662.963,440.741L662.963,255.556L700,255.556L700,218.519L737.037,218.519L737.037,181.481L885.185,181.481L885.185,151.852L877.778,151.852L877.778,174.074L870.37,174.074L870.37,151.852L862.963,151.852L862.963,174.074L855.556,174.074L855.556,151.852L848.148,151.852L848.148,174.074L840.741,174.074L840.741,151.852L833.333,151.852L833.333,174.074L825.926,174.074L825.926,151.852L818.519,151.852L818.519,174.074L811.111,174.074L811.111,151.852L803.704,151.852L803.704,174.074L796.296,174.074L796.296,151.852L788.889,151.852L788.889,174.074L781.481,174.074L781.481,151.852L774.074,151.852L774.074,174.074L766.667,174.074L766.667,151.852L759.259,151.852L759.259,174.074L751.852,174.074L751.852,151.852L744.444,151.852L744.444,174.074L737.037,174.074L737.037,151.852L729.63,151.852L729.63,211.111L722.222,211.111L722.222,151.852L714.815,151.852L714.815,211.111L707.407,211.111L707.407,151.852L700,151.852L700,211.111L692.593,211.111L692.593,248.148L685.185,248.148L685.185,203.704L692.593,203.704L692.593,151.852L685.185,151.852L685.185,196.296L677.778,196.296L677.778,248.148L670.37,248.148L670.37,188.889L677.778,188.889L677.778,151.852L670.37,151.852L670.37,181.481L662.963,188.889L662.963,248.148L655.556,248.148L655.556,440.741L648.148,440.741L648.148,240.741L655.556,240.741L655.556,188.889L648.148,188.889L648.148,233.333L640.741,233.333L640.741,440.741L633.333,440.741L633.333,225.926L640.741,225.926L640.741,188.889L633.333,188.889L633.333,218.519" style="fill:none;fill-rule:nonzero;stroke:rgb(133,159,229);stroke-width:1px;"/>
    </g>
    <g>
        <path d="M559.259,551.852L559.259,588.889L625.926,588.889L625.926,581.481L566.667,581.481L566.667,574.074L625.926,574.074L625.926,566.667L566.667,566.667L566.667,559.259L625.926,559.259L625.926,551.852L566.667,551.852L566.667,544.444L559.259,544.444L559.259,537.037L574.074,537.037L574.074,544.444L625.926,544.444L625.926,537.037L581.481,537.037L581.481,529.63L559.259,529.63L559.259,522.222L588.889,522.222L588.889,529.63L625.926,529.63L625.926,522.222L596.296,522.222L596.296,514.815L662.963,514.815L662.963,507.407L596.296,507.407L596.296,500L662.963,500L662.963,492.593L596.296,492.593L596.296,485.185L662.963,485.185" style="fill:none;fill-rule:nonzero;stroke:rgb(125,76,31);stroke-width:1px;"/>
    </g>
    <g>
        <path d="M218.519,551.852L151.852,551.852L151.852,522.222L159.259,522.222L159.259,544.444L166.667,544.444L166.667,522.222L174.074,522.222L174.074,544.444L181.481,544.444L181.481,522.222L188.889,522.222L188.889,544.444L196.296,544.444L196.296,522.222L203.704,522.222L203.704,544.444L211.111,544.444L211.111,522.222L218.519,522.222L218.519,544.444" style="fill:none;fill-rule:nonzero;stroke:rgb(125,76,31);stroke-width:1px;"/>
    </g>
    <g>
        <path d="M588.889,811.111L559.259,811.111L559.259,781.481L566.667,781.481L566.667,803.704L574.074,803.704L574.074,781.481L581.481,781.481L581.481,803.704L588.889,803.704L588.889,781.481" style="fill:none;fill-rule:nonzero;stroke:rgb(125,76,31);stroke-width:1px;"/>
    </g>
</svg>
