<?xml version="1.0" encoding="UTF-8" standalone="no"?>
<!DOCTYPE svg PUBLIC "-//W3C//DTD SVG 1.1//EN" "http://www.w3.org/Graphics/SVG/1.1/DTD/svg11.dtd">
<svg width="100%" height="100%" viewBox="0 0 1024 1024" version="1.1" xmlns="http://www.w3.org/2000/svg" xmlns:xlink="http://www.w3.org/1999/xlink" xml:space="preserve" xmlns:serif="http://www.serif.com/" style="fill-rule:evenodd;clip-rule:evenodd;stroke-linecap:round;stroke-linejoin:round;">
    <g>
        <path d="M545.238,164.286L526.19,164.286L526.19,145.238L530.952,145.238L530.952,159.524L535.714,159.524L535.714,145.238L540.476,145.238L540.476,159.524L545.238,159.524L545.238,145.238" style="fill:none;fill-rule:nonzero;stroke:rgb(80,160,240);stroke-width:1px;"/>
    </g>
    <g>
        <path d="M592.857,188.095L573.81,188.095L573.81,169.048L578.571,169.048L578.571,183.333L583.333,183.333L583.333,169.048L588.095,169.048L588.095,183.333L592.857,183.333L592.857,169.048" style="fill:none;fill-rule:nonzero;stroke:rgb(80,160,240);stroke-width:1px;"/>
    </g>
    <g>
        <path d="M640.476,188.095L621.429,188.095L621.429,169.048L626.19,169.048L626.19,183.333L630.952,183.333L630.952,169.048L635.714,169.048L635.714,183.333L640.476,183.333L640.476,169.048" style="fill:none;fill-rule:nonzero;stroke:rgb(80,160,240);stroke-width:1px;"/>
    </g>
    <g>
        <path d="M640.476,311.905L640.476,330.952L621.429,330.952L621.429,326.19L635.714,326.19L635.714,321.429L621.429,321.429L621.429,316.667L635.714,316.667L635.714,311.905L621.429,311.905L616.667,307.143L597.619,307.143L597.619,302.381L616.667,302.381L616.667,297.619L597.619,297.619L597.619,292.857L616.667,292.857L616.667,288.095L597.619,288.095L592.857,283.333L545.238,283.333L545.238,307.143L526.19,307.143L526.19,302.381L540.476,302.381L540.476,297.619L526.19,297.619L526.19,292.857L540.476,292.857L540.476,288.095L526.19,288.095L526.19,283.333L540.476,283.333L540.476,278.571L592.857,278.571L592.857,273.81L535.714,273.81L535.714,278.571L521.429,278.571L521.429,283.333L502.381,283.333L502.381,278.571L516.667,278.571L516.667,273.81L530.952,273.81L530.952,269.048L592.857,269.048L592.857,264.286L526.19,264.286L526.19,269.048L511.905,269.048L511.905,273.81L502.381,273.81L502.381,269.048L507.143,269.048L507.143,264.286L521.429,264.286L526.19,259.524L569.048,259.524L569.048,254.762L526.19,254.762L526.19,250L569.048,250L569.048,245.238L526.19,245.238L526.19,240.476L569.048,240.476" style="fill:none;fill-rule:nonzero;stroke:rgb(80,160,240);stroke-width:1px;"/>
    </g>
    <g>
        <path d="M688.095,330.952L669.048,330.952L669.048,311.905L673.81,311.905L673.81,326.19L678.571,326.19L678.571,311.905L683.333,311.905L683.333,326.19L688.095,326.19L688.095,311.905" style="fill:none;fill-rule:nonzero;stroke:rgb(80,160,240);stroke-width:1px;"/>
    </g>
    <g>
        <path d="M402.381,354.762L383.333,354.762L383.333,335.714L388.095,335.714L388.095,350L392.857,350L392.857,335.714L397.619,335.714L397.619,350L402.381,350L402.381,335.714" style="fill:none;fill-rule:nonzero;stroke:rgb(80,160,240);stroke-width:1px;"/>
    </g>
    <g>
        <path d="M378.571,402.381L359.524,402.381L359.524,383.333L364.286,383.333L364.286,397.619L369.048,397.619L369.048,383.333L373.81,383.333L373.81,397.619L378.571,397.619L378.571,383.333" style="fill:none;fill-rule:nonzero;stroke:rgb(80,160,240);stroke-width:1px;"/>
    </g>
    <g>
        <path d="M426.19,402.381L407.143,402.381L407.143,383.333L411.905,383.333L411.905,397.619L416.667,397.619L416.667,383.333L421.429,383.333L421.429,397.619L426.19,397.619L426.19,383.333" style="fill:none;fill-rule:nonzero;stroke:rgb(80,160,240);stroke-width:1px;"/>
    </g>
    <g>
        <path d="M383.333,497.619L383.333,454.762L388.095,454.762L388.095,497.619L392.857,497.619L392.857,454.762L397.619,454.762L397.619,497.619L402.381,497.619L402.381,454.762" style="fill:none;fill-rule:nonzero;stroke:rgb(80,160,240);stroke-width:1px;"/>
    </g>
    <g>
        <path d="M688.095,473.81L621.429,473.81L621.429,454.762L626.19,454.762L626.19,469.048L630.952,469.048L630.952,454.762L635.714,454.762L635.714,469.048L640.476,469.048L640.476,454.762L645.238,454.762L645.238,469.048L650,469.048L650,454.762L654.762,454.762L654.762,469.048L659.524,469.048L659.524,454.762L664.286,454.762L664.286,469.048L669.048,469.048L669.048,454.762L673.81,454.762L673.81,469.048L678.571,469.048L678.571,454.762L683.333,454.762L683.333,469.048L688.095,469.048L688.095,454.762" style="fill:none;fill-rule:nonzero;stroke:rgb(80,160,240);stroke-width:1px;"/>
    </g>
    <g>
        <path d="M402.381,569.048L383.333,569.048L383.333,550L388.095,550L388.095,564.286L392.857,564.286L392.857,550L397.619,550L397.619,564.286L402.381,564.286L402.381,550" style="fill:none;fill-rule:nonzero;stroke:rgb(80,160,240);stroke-width:1px;"/>
    </g>
    <g>
        <path d="M450,592.857L430.952,592.857L430.952,573.81L435.714,573.81L435.714,588.095L440.476,588.095L440.476,573.81L445.238,573.81L445.238,588.095L450,588.095L450,573.81" style="fill:none;fill-rule:nonzero;stroke:rgb(80,160,240);stroke-width:1px;"/>
    </g>
    <g>
        <path d="M450,645.238L450,664.286L430.952,664.286L430.952,659.524L445.238,659.524L445.238,654.762L430.952,654.762L430.952,650L445.238,650L445.238,645.238L430.952,645.238L426.19,640.476L407.143,640.476L407.143,635.714L426.19,635.714L426.19,630.952L407.143,630.952L407.143,626.19L426.19,626.19L426.19,621.429L407.143,621.429L402.381,616.667L383.333,616.667L383.333,611.905L402.381,611.905L402.381,607.143L383.333,607.143L383.333,602.381L402.381,602.381L402.381,597.619L383.333,597.619" style="fill:none;fill-rule:nonzero;stroke:rgb(80,160,240);stroke-width:1px;"/>
    </g>
    <g>
        <path d="M359.524,688.095L359.524,645.238L364.286,645.238L364.286,688.095L369.048,688.095L369.048,645.238L373.81,645.238L373.81,688.095L378.571,688.095L378.571,645.238" style="fill:none;fill-rule:nonzero;stroke:rgb(80,160,240);stroke-width:1px;"/>
    </g>
    <g>
        <path d="M569.048,164.286L550,164.286L550,145.238L554.762,145.238L554.762,159.524L559.524,159.524L559.524,145.238L564.286,145.238L564.286,159.524L569.048,159.524L569.048,145.238" style="fill:none;fill-rule:nonzero;stroke:black;stroke-opacity:0;stroke-width:1px;"/>
    </g>
    <g>
        <path d="M640.476,192.857L640.476,216.667L664.286,216.667L664.286,235.714L659.524,235.714L659.524,221.429L654.762,221.429L654.762,235.714L650,235.714L650,221.429L645.238,221.429L645.238,235.714L640.476,235.714L640.476,221.429L635.714,221.429L635.714,192.857L630.952,192.857L630.952,226.19L635.714,226.19L635.714,235.714L630.952,235.714L630.952,230.952L626.19,230.952L626.19,192.857L621.429,192.857L621.429,235.714L626.19,235.714" style="fill:none;fill-rule:nonzero;stroke:black;stroke-opacity:0;stroke-width:1px;"/>
    </g>
    <g>
        <path d="M497.619,307.143L478.571,307.143L478.571,288.095L483.333,288.095L483.333,302.381L488.095,302.381L488.095,288.095L492.857,288.095L492.857,302.381L497.619,302.381L497.619,288.095" style="fill:none;fill-rule:nonzero;stroke:black;stroke-opacity:0;stroke-width:1px;"/>
    </g>
    <g>
        <path d="M621.429,359.524L640.476,359.524L640.476,364.286L621.429,364.286L621.429,369.048L640.476,369.048L640.476,373.81L621.429,373.81L621.429,378.571L640.476,378.571L640.476,383.333L592.857,383.333L592.857,359.524L569.048,359.524L569.048,311.905L526.19,311.905L526.19,316.667L564.286,316.667L564.286,321.429L526.19,321.429L526.19,326.19L564.286,326.19L564.286,330.952L526.19,330.952L526.19,335.714L564.286,335.714L564.286,340.476L526.19,340.476L526.19,345.238L564.286,345.238L564.286,350L526.19,350L526.19,354.762L564.286,354.762L564.286,359.524L526.19,359.524L526.19,364.286L588.095,364.286L588.095,369.048L526.19,369.048L526.19,373.81L588.095,373.81L588.095,378.571L526.19,378.571L526.19,383.333L588.095,383.333L588.095,388.095L526.19,388.095L526.19,392.857L592.857,392.857L592.857,388.095L640.476,388.095L640.476,392.857L597.619,392.857L597.619,397.619L526.19,397.619L526.19,402.381L602.381,402.381L602.381,397.619L640.476,397.619L640.476,402.381L607.143,402.381L607.143,407.143L597.619,407.143L597.619,411.905L611.905,411.905L611.905,407.143L640.476,407.143L640.476,411.905L616.667,411.905L616.667,416.667L597.619,416.667L597.619,421.429L621.429,421.429L621.429,416.667L640.476,416.667L640.476,421.429L626.19,421.429L626.19,426.19L597.619,426.19L597.619,430.952L569.048,430.952L569.048,407.143L526.19,407.143L526.19,411.905L564.286,411.905L564.286,416.667L526.19,416.667L526.19,421.429L564.286,421.429L564.286,426.19L526.19,426.19" style="fill:none;fill-rule:nonzero;stroke:black;stroke-opacity:0;stroke-width:1px;"/>
    </g>
    <g>
        <path d="M426.19,378.571L359.524,378.571L359.524,359.524L364.286,359.524L364.286,373.81L369.048,373.81L369.048,359.524L373.81,359.524L373.81,373.81L378.571,373.81L378.571,359.524L383.333,359.524L383.333,373.81L388.095,373.81L388.095,359.524L392.857,359.524L392.857,373.81L397.619,373.81L397.619,359.524L402.381,359.524L402.381,373.81L407.143,373.81L407.143,359.524L411.905,359.524L411.905,373.81L416.667,373.81L416.667,359.524L421.429,359.524L421.429,373.81L426.19,373.81L426.19,359.524" style="fill:none;fill-rule:nonzero;stroke:black;stroke-opacity:0;stroke-width:1px;"/>
    </g>
    <g>
        <path d="M235.714,392.857L235.714,407.143L259.524,407.143L259.524,430.952L283.333,430.952L283.333,473.81L278.571,473.81L278.571,435.714L273.81,435.714L273.81,473.81L269.048,473.81L269.048,435.714L264.286,435.714L264.286,473.81L259.524,473.81L259.524,497.619L254.762,497.619L254.762,469.048L259.524,469.048L259.524,435.714L254.762,435.714L254.762,464.286L250,464.286L250,497.619L245.238,497.619L245.238,459.524L250,459.524L250,430.952L254.762,430.952L254.762,411.905L250,411.905L250,426.19L245.238,426.19L245.238,454.762L240.476,454.762L240.476,497.619L235.714,497.619L235.714,450L240.476,450L240.476,421.429L245.238,421.429L245.238,411.905L240.476,411.905L240.476,416.667L235.714,416.667L235.714,445.238L230.952,445.238L230.952,497.619L226.19,497.619L226.19,440.476L230.952,440.476L230.952,411.905L235.714,411.905L230.952,407.143L230.952,388.095L235.714,388.095L235.714,383.333L226.19,383.333L226.19,435.714L221.429,435.714L221.429,497.619L216.667,497.619L216.667,430.952L221.429,430.952L221.429,383.333L216.667,383.333L216.667,426.19L211.905,426.19L211.905,473.81L207.143,473.81L207.143,421.429L211.905,421.429L211.905,407.143L207.143,407.143L207.143,416.667L202.381,416.667L202.381,473.81L197.619,473.81L197.619,411.905L202.381,411.905L202.381,407.143L192.857,407.143L192.857,473.81" style="fill:none;fill-rule:nonzero;stroke:black;stroke-opacity:0;stroke-width:1px;"/>
    </g>
    <g>
        <path d="M807.143,426.19L764.286,426.19L764.286,407.143L769.048,407.143L769.048,421.429L773.81,421.429L773.81,407.143L778.571,407.143L778.571,421.429L783.333,421.429L783.333,407.143L788.095,407.143L788.095,421.429L792.857,421.429L792.857,407.143L797.619,407.143L797.619,421.429L802.381,421.429L802.381,407.143L807.143,407.143L807.143,421.429" style="fill:none;fill-rule:nonzero;stroke:black;stroke-opacity:0;stroke-width:1px;"/>
    </g>
    <g>
        <path d="M640.476,426.19L630.952,426.19" style="fill:none;fill-rule:nonzero;stroke:black;stroke-opacity:0;stroke-width:1px;"/>
    </g>
    <g>
        <path d="M616.667,450L550,450L550,430.952L554.762,430.952L554.762,445.238L559.524,445.238L559.524,430.952L564.286,430.952L564.286,445.238L569.048,445.238L569.048,435.714L573.81,435.714L573.81,445.238L578.571,445.238L578.571,435.714L583.333,435.714L583.333,445.238L588.095,445.238L588.095,435.714L592.857,435.714L592.857,445.238L597.619,445.238L597.619,435.714L602.381,435.714L602.381,430.952L607.143,430.952L607.143,440.476L602.381,440.476L602.381,445.238L611.905,445.238L611.905,430.952L616.667,430.952L616.667,445.238" style="fill:none;fill-rule:nonzero;stroke:black;stroke-opacity:0;stroke-width:1px;"/>
    </g>
    <g>
        <path d="M450,640.476L430.952,640.476L430.952,616.667L407.143,616.667L407.143,592.857L383.333,592.857L383.333,573.81L388.095,573.81L388.095,588.095L392.857,588.095L392.857,573.81L397.619,573.81L397.619,588.095L402.381,588.095L402.381,573.81L407.143,573.81L407.143,550L411.905,550L411.905,578.571L407.143,578.571L407.143,588.095L411.905,588.095L411.905,583.333L416.667,583.333L416.667,550L421.429,550L421.429,588.095L416.667,588.095L416.667,592.857L411.905,592.857L411.905,611.905L416.667,611.905L416.667,597.619L421.429,597.619L421.429,592.857L426.19,592.857L426.19,550L430.952,545.238L430.952,521.429L407.143,521.429L407.143,478.571L411.905,478.571L411.905,516.667L416.667,516.667L416.667,478.571L421.429,478.571L421.429,516.667L426.19,516.667L426.19,478.571" style="fill:none;fill-rule:nonzero;stroke:black;stroke-opacity:0;stroke-width:1px;"/>
    </g>
    <g>
        <path d="M450,502.381L450,545.238L445.238,545.238L445.238,502.381L440.476,502.381L440.476,545.238L435.714,545.238L435.714,502.381L430.952,502.381L430.952,516.667" style="fill:none;fill-rule:nonzero;stroke:black;stroke-opacity:0;stroke-width:1px;"/>
    </g>
    <g>
        <path d="M421.429,611.905L421.429,602.381L426.19,602.381L426.19,597.619L430.952,597.619L430.952,607.143L426.19,607.143L426.19,611.905L435.714,611.905L435.714,597.619L440.476,597.619L440.476,616.667L435.714,616.667L435.714,635.714L440.476,635.714L440.476,621.429L445.238,621.429L445.238,597.619L450,597.619L450,626.19L445.238,626.19L445.238,635.714L450,635.714L450,630.952" style="fill:none;fill-rule:nonzero;stroke:black;stroke-opacity:0;stroke-width:1px;"/>
    </g>
    <g>
        <path d="M2.381,1045.24L2.381,1002.38L7.143,1002.38L7.143,1045.24L11.905,1045.24L11.905,1002.38L16.667,1002.38L16.667,1045.24L21.429,1045.24L21.429,1002.38L26.19,1002.38L26.19,1045.24L30.952,1045.24L30.952,1002.38L35.714,1002.38L35.714,1045.24L40.476,1045.24L40.476,1002.38L45.238,1002.38L45.238,1045.24L50,1045.24L50,1002.38L54.762,1002.38L54.762,1045.24L59.524,1045.24L59.524,1002.38L64.286,1002.38L64.286,1045.24L69.048,1045.24L69.048,1002.38L73.81,1002.38L73.81,1045.24L78.571,1045.24L78.571,1002.38L83.333,1002.38L83.333,1045.24L88.095,1045.24L88.095,1002.38L92.857,1002.38L92.857,1045.24L97.619,1045.24L97.619,1002.38L102.381,1002.38L102.381,1045.24L107.143,1045.24L107.143,1002.38L111.905,1002.38L111.905,1045.24L116.667,1045.24L116.667,1002.38L121.429,1002.38L121.429,1045.24L126.19,1045.24L126.19,1002.38L130.952,1002.38L130.952,1045.24L135.714,1045.24L135.714,1002.38L140.476,1002.38L140.476,1045.24L145.238,1045.24L145.238,1002.38L150,1002.38L150,1045.24L154.762,1045.24L154.762,1002.38L159.524,1002.38L159.524,1045.24L164.286,1045.24L164.286,1002.38L169.048,1002.38L169.048,1045.24L173.81,1045.24L173.81,1002.38L178.571,1002.38L178.571,1045.24L183.333,1045.24L183.333,1002.38L188.095,1002.38L188.095,1045.24L192.857,1045.24L192.857,1002.38L197.619,1002.38L197.619,1045.24L202.381,1045.24L202.381,1002.38L207.143,1002.38L207.143,1045.24L211.905,1045.24L211.905,1002.38L216.667,1002.38L216.667,1045.24L221.429,1045.24L221.429,1002.38L226.19,1002.38L226.19,1045.24L230.952,1045.24L230.952,1002.38L235.714,1002.38L235.714,1045.24L240.476,1045.24L240.476,1002.38L245.238,1002.38L245.238,1045.24L250,1045.24L250,1002.38L254.762,1002.38L254.762,1045.24L259.524,1045.24L259.524,1002.38L264.286,1002.38L264.286,1045.24L269.048,1045.24L269.048,1002.38L273.81,1002.38L273.81,1045.24L278.571,1045.24L278.571,1002.38L283.333,1002.38L283.333,1045.24L288.095,1045.24L288.095,1002.38L292.857,1002.38L292.857,1045.24L297.619,1045.24L297.619,1002.38L302.381,1002.38L302.381,1045.24L307.143,1045.24L307.143,1002.38L311.905,1002.38L311.905,1045.24L316.667,1045.24L316.667,1002.38L321.429,1002.38L321.429,1045.24L326.19,1045.24L326.19,1002.38L330.952,1002.38L330.952,1045.24L335.714,1045.24L335.714,1002.38L340.476,1002.38L340.476,1045.24L345.238,1045.24L345.238,1002.38L350,1002.38L350,1045.24L354.762,1045.24L354.762,1002.38L359.524,1002.38L359.524,1045.24L364.286,1045.24L364.286,1002.38L369.048,1002.38L369.048,1045.24L373.81,1045.24L373.81,1002.38L378.571,1002.38L378.571,1045.24L383.333,1045.24L383.333,1002.38L388.095,1002.38L388.095,1045.24L392.857,1045.24L392.857,1002.38L397.619,1002.38L397.619,1045.24L402.381,1045.24L402.381,1002.38L407.143,1002.38L407.143,1045.24L411.905,1045.24L411.905,1002.38L416.667,1002.38L416.667,1045.24L421.429,1045.24L421.429,1002.38L426.19,1002.38L426.19,1045.24L430.952,1045.24L430.952,1002.38L435.714,1002.38L435.714,1045.24L440.476,1045.24L440.476,1002.38L445.238,1002.38L445.238,1045.24L450,1045.24L450,1002.38L454.762,1002.38L454.762,1045.24L459.524,1045.24L459.524,1002.38L464.286,1002.38L464.286,1045.24L469.048,1045.24L469.048,1002.38L473.81,1002.38L473.81,1045.24L478.571,1045.24L478.571,1002.38L483.333,1002.38L483.333,1045.24L488.095,1045.24L488.095,1002.38L492.857,1002.38L492.857,1045.24L497.619,1045.24L497.619,1002.38L502.381,1002.38L502.381,1045.24L507.143,1045.24L507.143,1002.38L511.905,1002.38L511.905,1045.24L516.667,1045.24L516.667,1002.38L521.429,1002.38L521.429,1045.24L526.19,1045.24L526.19,1002.38L530.952,1002.38L530.952,1045.24L535.714,1045.24L535.714,1002.38L540.476,1002.38L540.476,1045.24L545.238,1045.24L545.238,1002.38L550,1002.38L550,1045.24L554.762,1045.24L554.762,1002.38L559.524,1002.38L559.524,1045.24L564.286,1045.24L564.286,1002.38L569.048,1002.38L569.048,1045.24L573.81,1045.24L573.81,1002.38L578.571,1002.38L578.571,1045.24L583.333,1045.24L583.333,1002.38L588.095,1002.38L588.095,1045.24L592.857,1045.24L592.857,1002.38L597.619,1002.38L597.619,1045.24L602.381,1045.24L602.381,1002.38L607.143,1002.38L607.143,1045.24L611.905,1045.24L611.905,1002.38L616.667,1002.38L616.667,1045.24L621.429,1045.24L621.429,1002.38L626.19,1002.38L626.19,1045.24L630.952,1045.24L630.952,1002.38L635.714,1002.38L635.714,1045.24L640.476,1045.24L640.476,1002.38L645.238,1002.38L645.238,1045.24L650,1045.24L650,1002.38L654.762,1002.38L654.762,1045.24L659.524,1045.24L659.524,1002.38L664.286,1002.38L664.286,1045.24L669.048,1045.24L669.048,1002.38L673.81,1002.38L673.81,1045.24L678.571,1045.24L678.571,1002.38L683.333,1002.38L683.333,1045.24L688.095,1045.24L688.095,1002.38L692.857,1002.38L692.857,1045.24L697.619,1045.24L697.619,1002.38L702.381,1002.38L702.381,1045.24L707.143,1045.24L707.143,1002.38L711.905,1002.38L711.905,1045.24L716.667,1045.24L716.667,1002.38L721.429,1002.38L721.429,1045.24L726.19,1045.24L726.19,1002.38L730.952,1002.38L730.952,1045.24L735.714,1045.24L735.714,1002.38L740.476,1002.38L740.476,1045.24L745.238,1045.24L745.238,1002.38L750,1002.38L750,1045.24L754.762,1045.24L754.762,1002.38L759.524,1002.38L759.524,1045.24L764.286,1045.24L764.286,1002.38L769.048,1002.38L769.048,1045.24L773.81,1045.24L773.81,1002.38L778.571,1002.38L778.571,1045.24L783.333,1045.24L783.333,1002.38L788.095,1002.38L788.095,1045.24L792.857,1045.24L792.857,1002.38L797.619,1002.38L797.619,1045.24L802.381,1045.24L802.381,1002.38L807.143,1002.38L807.143,1045.24L811.905,1045.24L811.905,1002.38L816.667,1002.38L816.667,1045.24L821.429,1045.24L821.429,1002.38L826.19,1002.38L826.19,1045.24L830.952,1045.24L830.952,1002.38L835.714,1002.38L835.714,1045.24L840.476,1045.24L840.476,1002.38L845.238,1002.38L845.238,1045.24L850,1045.24L850,1002.38L854.762,1002.38L854.762,1045.24L859.524,1045.24L859.524,1002.38L864.286,1002.38L864.286,1045.24L869.048,1045.24L869.048,1002.38L873.81,1002.38L873.81,1045.24L878.571,1045.24L878.571,1002.38L883.333,1002.38L883.333,1045.24L888.095,1045.24L888.095,1002.38L892.857,1002.38L892.857,1045.24L897.619,1045.24L897.619,1002.38L902.381,1002.38L902.381,1045.24L907.143,1045.24L907.143,1002.38L911.905,1002.38L911.905,1045.24L916.667,1045.24L916.667,1002.38L921.429,1002.38L921.429,1045.24L926.19,1045.24L926.19,1002.38L930.952,1002.38L930.952,1045.24L935.714,1045.24L935.714,1002.38L940.476,1002.38L940.476,1045.24L945.238,1045.24L945.238,1002.38L950,1002.38L950,1045.24L954.762,1045.24L954.762,1002.38L959.524,1002.38L959.524,1045.24L964.286,1045.24L964.286,1002.38L969.048,1002.38L969.048,1045.24L973.81,1045.24L973.81,1002.38L978.571,1002.38L978.571,1045.24L983.333,1045.24L983.333,1002.38L988.095,1002.38L988.095,1045.24L992.857,1045.24L992.857,1002.38L997.619,1002.38L997.619,1045.24" style="fill:none;fill-rule:nonzero;stroke:black;stroke-opacity:0;stroke-width:1px;"/>
    </g>
    <g>
        <path d="M450,283.333L430.952,283.333L430.952,240.476L435.714,240.476L435.714,278.571L440.476,278.571L440.476,240.476L445.238,240.476L445.238,278.571L450,278.571L450,240.476L454.762,240.476L454.762,192.857L459.524,192.857L459.524,245.238L454.762,245.238L454.762,259.524L459.524,259.524L459.524,250L464.286,250L464.286,192.857L469.048,192.857L469.048,254.762L464.286,254.762L464.286,259.524L473.81,259.524L473.81,192.857L478.571,192.857L478.571,169.048L483.333,169.048L483.333,197.619L478.571,197.619L478.571,211.905L483.333,211.905L483.333,202.381L488.095,202.381L488.095,169.048L492.857,169.048L492.857,207.143L488.095,207.143L488.095,211.905L497.619,211.905L497.619,169.048L502.381,169.048L502.381,188.095L507.143,188.095L507.143,169.048L511.905,169.048L511.905,188.095L516.667,188.095L516.667,169.048L521.429,169.048L521.429,188.095" style="fill:none;fill-rule:nonzero;stroke:rgb(32,48,128);stroke-width:1px;"/>
    </g>
    <g>
        <path d="M664.286,330.952L664.286,311.905L659.524,311.905L659.524,330.952L654.762,330.952L654.762,311.905L650,311.905L650,330.952L645.238,330.952L645.238,311.905L640.476,307.143L640.476,288.095L635.714,288.095L635.714,307.143L630.952,307.143L630.952,288.095L626.19,288.095L626.19,307.143L621.429,307.143L621.429,288.095L616.667,283.333L616.667,264.286L611.905,264.286L611.905,283.333L607.143,283.333L607.143,264.286L602.381,264.286L602.381,283.333L597.619,283.333L597.619,264.286L592.857,259.524L592.857,240.476L588.095,240.476L588.095,259.524L583.333,259.524L583.333,240.476L578.571,240.476L578.571,259.524L573.81,259.524L573.81,240.476L569.048,235.714L569.048,216.667L564.286,216.667L564.286,235.714L559.524,235.714L559.524,216.667L554.762,216.667L554.762,235.714L550,235.714L550,216.667L545.238,216.667L545.238,235.714L540.476,235.714L540.476,216.667L535.714,216.667L535.714,235.714L530.952,235.714L530.952,216.667L526.19,216.667L526.19,235.714" style="fill:none;fill-rule:nonzero;stroke:rgb(32,48,128);stroke-width:1px;"/>
    </g>
    <g>
        <path d="M688.095,307.143L669.048,307.143L669.048,288.095L673.81,288.095L673.81,302.381L678.571,302.381L678.571,288.095L683.333,288.095L683.333,302.381L688.095,302.381L688.095,288.095" style="fill:none;fill-rule:nonzero;stroke:rgb(32,48,128);stroke-width:1px;"/>
    </g>
    <g>
        <path d="M283.333,407.143L283.333,426.19L264.286,426.19L264.286,421.429L278.571,421.429L278.571,416.667L264.286,416.667L264.286,411.905L278.571,411.905L278.571,407.143L264.286,407.143L259.524,402.381L240.476,402.381L240.476,397.619L259.524,397.619L259.524,392.857L240.476,392.857L240.476,388.095L259.524,388.095L259.524,383.333L240.476,383.333L240.476,378.571L283.333,378.571L283.333,373.81L240.476,373.81L240.476,369.048L283.333,369.048L283.333,364.286L240.476,364.286L240.476,359.524L283.333,359.524L283.333,354.762L307.143,354.762L307.143,350L278.571,350L278.571,354.762L264.286,354.762L264.286,350L273.81,350L273.81,345.238L307.143,345.238L307.143,340.476L269.048,340.476L269.048,345.238L264.286,345.238L264.286,335.714L307.143,335.714L307.143,330.952L335.714,330.952L335.714,402.381L354.762,402.381L354.762,397.619L340.476,397.619L340.476,392.857L354.762,392.857L354.762,388.095L340.476,388.095L340.476,383.333L354.762,383.333L354.762,378.571L340.476,378.571L340.476,373.81L354.762,373.81L354.762,369.048L340.476,369.048L340.476,364.286L354.762,364.286L354.762,359.524L340.476,359.524L340.476,354.762L354.762,354.762L354.762,350L340.476,350L340.476,345.238L354.762,345.238L354.762,340.476L340.476,340.476L340.476,335.714L354.762,335.714L354.762,330.952L340.476,330.952L340.476,326.19L354.762,326.19L354.762,321.429L335.714,321.429L335.714,326.19L302.381,326.19L302.381,330.952L288.095,330.952L288.095,326.19L297.619,326.19L297.619,321.429L330.952,321.429L330.952,316.667L354.762,316.667L354.762,311.905L326.19,311.905L326.19,316.667L292.857,316.667L292.857,321.429L288.095,321.429L288.095,311.905L321.429,311.905" style="fill:none;fill-rule:nonzero;stroke:rgb(32,48,128);stroke-width:1px;"/>
    </g>
    <g>
        <path d="M330.952,426.19L311.905,426.19L311.905,407.143L316.667,407.143L316.667,421.429L321.429,421.429L321.429,407.143L326.19,407.143L326.19,421.429L330.952,421.429L330.952,407.143" style="fill:none;fill-rule:nonzero;stroke:rgb(32,48,128);stroke-width:1px;"/>
    </g>
    <g>
        <path d="M426.19,450L407.143,450L407.143,430.952L411.905,430.952L411.905,445.238L416.667,445.238L416.667,430.952L421.429,430.952L421.429,445.238L426.19,445.238L426.19,430.952" style="fill:none;fill-rule:nonzero;stroke:rgb(32,48,128);stroke-width:1px;"/>
    </g>
    <g>
        <path d="M497.619,430.952L497.619,450L492.857,450L492.857,430.952L488.095,430.952L488.095,450L483.333,450L483.333,430.952L478.571,430.952L478.571,450L473.81,454.762L473.81,473.81L469.048,473.81L469.048,454.762L464.286,454.762L464.286,473.81L459.524,473.81L459.524,454.762L454.762,454.762L454.762,473.81" style="fill:none;fill-rule:nonzero;stroke:rgb(32,48,128);stroke-width:1px;"/>
    </g>
    <g>
        <path d="M816.667,497.619L740.476,497.619L740.476,473.81L692.857,473.81L692.857,454.762L697.619,454.762L697.619,469.048L702.381,469.048L702.381,454.762L707.143,454.762L707.143,469.048L711.905,469.048L711.905,454.762L716.667,454.762L716.667,469.048L721.429,469.048L721.429,450L716.667,450L716.667,430.952L721.429,430.952L721.429,445.238L726.19,445.238L726.19,469.048L730.952,469.048L730.952,440.476L726.19,440.476L726.19,430.952L730.952,430.952L730.952,435.714L735.714,435.714L735.714,469.048L740.476,469.048L740.476,454.762L745.238,454.762L745.238,492.857L750,492.857L750,454.762L754.762,454.762L754.762,492.857L759.524,492.857L759.524,454.762L764.286,454.762L764.286,492.857L769.048,492.857L769.048,454.762L773.81,454.762L773.81,492.857L778.571,492.857L778.571,454.762L783.333,454.762L783.333,492.857L788.095,492.857L788.095,454.762L792.857,454.762L792.857,492.857L797.619,492.857L797.619,454.762L802.381,454.762L802.381,492.857L807.143,492.857L807.143,454.762L811.905,454.762L811.905,492.857L816.667,492.857L816.667,454.762L821.429,454.762L821.429,497.619L826.19,497.619L826.19,454.762L830.952,454.762L830.952,497.619L835.714,497.619L835.714,478.571L840.476,478.571L840.476,497.619L845.238,497.619L845.238,478.571L850,478.571L850,497.619L854.762,497.619L854.762,478.571" style="fill:none;fill-rule:nonzero;stroke:rgb(32,48,128);stroke-width:1px;"/>
    </g>
    <g>
        <path d="M378.571,478.571L359.524,478.571L359.524,502.381L335.714,502.381L335.714,569.048L340.476,569.048L340.476,507.143L345.238,507.143L345.238,569.048L350,569.048L350,507.143L354.762,507.143L354.762,569.048L359.524,569.048L359.524,507.143L364.286,507.143L364.286,483.333L369.048,483.333L369.048,511.905L364.286,511.905L364.286,569.048L369.048,569.048L369.048,516.667L373.81,516.667L373.81,483.333L378.571,483.333L378.571,521.429L373.81,521.429L373.81,569.048L378.571,569.048L378.571,526.19L383.333,526.19L383.333,502.381L388.095,502.381L388.095,530.952L383.333,530.952L383.333,545.238L388.095,545.238L388.095,535.714L392.857,535.714L392.857,502.381L397.619,502.381L397.619,540.476L392.857,540.476L392.857,545.238L402.381,545.238L402.381,502.381" style="fill:none;fill-rule:nonzero;stroke:rgb(32,48,128);stroke-width:1px;"/>
    </g>
    <g>
        <path d="M307.143,640.476L288.095,640.476L288.095,635.714L307.143,635.714L307.143,630.952L288.095,630.952L288.095,626.19L307.143,626.19L307.143,621.429L288.095,621.429L288.095,616.667L235.714,616.667L235.714,640.476L216.667,640.476L216.667,635.714L230.952,635.714L230.952,630.952L216.667,630.952L216.667,626.19L230.952,626.19L230.952,621.429L216.667,621.429L216.667,616.667L230.952,616.667L230.952,611.905L216.667,611.905L216.667,607.143L235.714,607.143L235.714,611.905L292.857,611.905L292.857,616.667L330.952,616.667L330.952,611.905L297.619,611.905L297.619,607.143L240.476,607.143L240.476,602.381L216.667,602.381L216.667,597.619L245.238,597.619L245.238,602.381L302.381,602.381L302.381,607.143L330.952,607.143L330.952,602.381L307.143,602.381L307.143,597.619L250,597.619L250,592.857L216.667,592.857L216.667,588.095L254.762,588.095L254.762,592.857L307.143,592.857L307.143,588.095L259.524,588.095L259.524,583.333L216.667,583.333L216.667,578.571L264.286,578.571L264.286,583.333L307.143,583.333L307.143,578.571L269.048,578.571L269.048,573.81L216.667,573.81L211.905,569.048L188.095,569.048L188.095,592.857L169.048,592.857L169.048,588.095L183.333,588.095L183.333,583.333L169.048,583.333L169.048,578.571L183.333,578.571L183.333,573.81L169.048,573.81L169.048,569.048L183.333,569.048L183.333,564.286L169.048,564.286L169.048,559.524L188.095,559.524L188.095,564.286L211.905,564.286L211.905,559.524L192.857,559.524L192.857,554.762L169.048,554.762L169.048,550L197.619,550L197.619,554.762L211.905,554.762L211.905,550L202.381,550L202.381,545.238L192.857,545.238L192.857,540.476L207.143,540.476L207.143,545.238L259.524,545.238L259.524,540.476L211.905,540.476L211.905,535.714L192.857,535.714L192.857,530.952L216.667,530.952L216.667,535.714L259.524,535.714L259.524,530.952L221.429,530.952L221.429,526.19L192.857,526.19" style="fill:none;fill-rule:nonzero;stroke:rgb(32,48,128);stroke-width:1px;"/>
    </g>
    <g>
        <path d="M259.524,526.19L226.19,526.19" style="fill:none;fill-rule:nonzero;stroke:rgb(32,48,128);stroke-width:1px;"/>
    </g>
    <g>
        <path d="M307.143,573.81L273.81,573.81L273.81,569.048L264.286,569.048L264.286,550L269.048,550L269.048,564.286L273.81,564.286L273.81,550L278.571,550L278.571,569.048L283.333,569.048L283.333,550" style="fill:none;fill-rule:nonzero;stroke:rgb(32,48,128);stroke-width:1px;"/>
    </g>
    <g>
        <path d="M164.286,616.667L145.238,616.667L145.238,597.619L150,597.619L150,611.905L154.762,611.905L154.762,597.619L159.524,597.619L159.524,611.905L164.286,611.905L164.286,597.619" style="fill:none;fill-rule:nonzero;stroke:rgb(32,48,128);stroke-width:1px;"/>
    </g>
    <g>
        <path d="M330.952,597.619L311.905,597.619" style="fill:none;fill-rule:nonzero;stroke:rgb(32,48,128);stroke-width:1px;"/>
    </g>
    <g>
        <path d="M140.476,664.286L121.429,664.286L121.429,645.238L126.19,645.238L126.19,659.524L130.952,659.524L130.952,645.238L135.714,645.238L135.714,659.524L140.476,659.524L140.476,645.238" style="fill:none;fill-rule:nonzero;stroke:rgb(32,48,128);stroke-width:1px;"/>
    </g>
    <g>
        <path d="M192.857,711.905L192.857,692.857L197.619,692.857L197.619,711.905L202.381,711.905L202.381,692.857L207.143,692.857L207.143,711.905L211.905,711.905L211.905,692.857L216.667,688.095L216.667,669.048L221.429,669.048L221.429,688.095L226.19,688.095L226.19,669.048L230.952,669.048L230.952,688.095L235.714,688.095L235.714,669.048L240.476,664.286L240.476,645.238L245.238,645.238L245.238,664.286L250,664.286L250,645.238L254.762,645.238L254.762,664.286L259.524,664.286L259.524,645.238" style="fill:none;fill-rule:nonzero;stroke:rgb(32,48,128);stroke-width:1px;"/>
    </g>
    <g>
        <path d="M283.333,688.095L264.286,688.095L264.286,669.048L269.048,669.048L269.048,683.333L273.81,683.333L273.81,669.048L278.571,669.048L278.571,683.333L283.333,683.333L283.333,669.048" style="fill:none;fill-rule:nonzero;stroke:rgb(32,48,128);stroke-width:1px;"/>
    </g>
    <g>
        <path d="M430.952,773.81L430.952,692.857L450,692.857L450,697.619L435.714,697.619L435.714,702.381L450,702.381L450,707.143L435.714,707.143L435.714,711.905L450,711.905L450,716.667L435.714,716.667L435.714,721.429L450,721.429L450,726.19L435.714,726.19L435.714,730.952L450,730.952L450,735.714L435.714,735.714L435.714,740.476L450,740.476L450,745.238L435.714,745.238L435.714,750L450,750L450,754.762L435.714,754.762L435.714,759.524L450,759.524L450,764.286L435.714,764.286L435.714,769.048L450,769.048L450,773.81L435.714,773.81L435.714,778.571L430.952,778.571L430.952,783.333L440.476,783.333L440.476,778.571L450,778.571L450,783.333L445.238,783.333L445.238,788.095L430.952,788.095L430.952,792.857L450,792.857L450,788.095L473.81,788.095L473.81,792.857L454.762,792.857L454.762,797.619L430.952,797.619L430.952,802.381L459.524,802.381L459.524,797.619L473.81,797.619L473.81,802.381L464.286,802.381L464.286,807.143L430.952,807.143L430.952,811.905L469.048,811.905L469.048,807.143L473.81,807.143L473.81,816.667L430.952,816.667L430.952,821.429L473.81,821.429L473.81,826.19L430.952,826.19L430.952,830.952L473.81,830.952L478.571,835.714L497.619,835.714L497.619,840.476L478.571,840.476L478.571,845.238L497.619,845.238L497.619,850L478.571,850L478.571,854.762L497.619,854.762L497.619,859.524L454.762,859.524L454.762,864.286L497.619,864.286L497.619,869.048L454.762,869.048L454.762,873.81L497.619,873.81L497.619,878.571L454.762,878.571" style="fill:none;fill-rule:nonzero;stroke:rgb(32,48,128);stroke-width:1px;"/>
    </g>
    <g>
        <path d="M164.286,735.714L145.238,735.714L145.238,716.667L150,716.667L150,730.952L154.762,730.952L154.762,716.667L159.524,716.667L159.524,730.952L164.286,730.952L164.286,716.667" style="fill:none;fill-rule:nonzero;stroke:rgb(32,48,128);stroke-width:1px;"/>
    </g>
    <g>
        <path d="M640.476,878.571L621.429,878.571L621.429,859.524L626.19,859.524L626.19,873.81L630.952,873.81L630.952,859.524L635.714,859.524L635.714,873.81L640.476,873.81L640.476,859.524" style="fill:none;fill-rule:nonzero;stroke:rgb(32,48,128);stroke-width:1px;"/>
    </g>
    <g>
        <path d="M616.667,211.905L597.619,211.905L597.619,192.857L602.381,192.857L602.381,207.143L607.143,207.143L607.143,192.857L611.905,192.857L611.905,207.143L616.667,207.143L616.667,192.857" style="fill:none;fill-rule:nonzero;stroke:rgb(24,88,176);stroke-width:1px;"/>
    </g>
    <g>
        <path d="M664.286,211.905L645.238,211.905L645.238,192.857L650,192.857L650,207.143L654.762,207.143L654.762,192.857L659.524,192.857L659.524,207.143L664.286,207.143L664.286,192.857" style="fill:none;fill-rule:nonzero;stroke:rgb(24,88,176);stroke-width:1px;"/>
    </g>
    <g>
        <path d="M378.571,354.762L359.524,354.762L359.524,335.714L364.286,335.714L364.286,350L369.048,350L369.048,335.714L373.81,335.714L373.81,350L378.571,350L378.571,335.714" style="fill:none;fill-rule:nonzero;stroke:rgb(24,88,176);stroke-width:1px;"/>
    </g>
    <g>
        <path d="M426.19,354.762L407.143,354.762L407.143,335.714L411.905,335.714L411.905,350L416.667,350L416.667,335.714L421.429,335.714L421.429,350L426.19,350L426.19,335.714" style="fill:none;fill-rule:nonzero;stroke:rgb(24,88,176);stroke-width:1px;"/>
    </g>
    <g>
        <path d="M521.429,378.571L502.381,378.571L502.381,359.524L507.143,359.524L507.143,373.81L511.905,373.81L511.905,359.524L516.667,359.524L516.667,373.81L521.429,373.81L521.429,359.524" style="fill:none;fill-rule:nonzero;stroke:rgb(24,88,176);stroke-width:1px;"/>
    </g>
    <g>
        <path d="M473.81,545.238L454.762,545.238L454.762,526.19L459.524,526.19L459.524,540.476L464.286,540.476L464.286,526.19L469.048,526.19L469.048,540.476L473.81,540.476L473.81,526.19" style="fill:none;fill-rule:nonzero;stroke:rgb(24,88,176);stroke-width:1px;"/>
    </g>
    <g>
        <path d="M354.762,664.286L335.714,664.286L335.714,621.429L340.476,621.429L340.476,659.524L345.238,659.524L345.238,621.429L350,621.429L350,659.524L354.762,659.524L354.762,621.429L359.524,616.667L359.524,573.81L364.286,573.81L364.286,616.667L369.048,616.667L369.048,573.81L373.81,573.81L373.81,616.667L378.571,616.667L378.571,573.81" style="fill:none;fill-rule:nonzero;stroke:rgb(24,88,176);stroke-width:1px;"/>
    </g>
    <g>
        <path d="M473.81,616.667L454.762,616.667L454.762,597.619L459.524,597.619L459.524,611.905L464.286,611.905L464.286,597.619L469.048,597.619L469.048,611.905L473.81,611.905L473.81,597.619" style="fill:none;fill-rule:nonzero;stroke:rgb(24,88,176);stroke-width:1px;"/>
    </g>
    <g>
        <path d="M426.19,645.238L426.19,664.286L421.429,664.286L421.429,645.238L416.667,645.238L416.667,664.286L411.905,664.286L411.905,645.238L407.143,645.238L407.143,664.286L402.381,669.048L402.381,688.095L397.619,688.095L397.619,669.048L392.857,669.048L392.857,688.095L388.095,688.095L388.095,669.048L383.333,669.048L383.333,688.095L378.571,692.857L378.571,711.905L373.81,711.905L373.81,692.857L369.048,692.857L369.048,711.905L364.286,711.905L364.286,692.857L359.524,692.857L359.524,711.905" style="fill:none;fill-rule:nonzero;stroke:rgb(24,88,176);stroke-width:1px;"/>
    </g>
    <g>
        <path d="M383.333,640.476L383.333,621.429L388.095,621.429L388.095,640.476L392.857,640.476L392.857,621.429L397.619,621.429L397.619,640.476L402.381,640.476L402.381,621.429" style="fill:none;fill-rule:nonzero;stroke:rgb(24,88,176);stroke-width:1px;"/>
    </g>
    <g>
        <path d="M711.905,283.333L692.857,283.333L692.857,264.286L697.619,264.286L697.619,278.571L702.381,278.571L702.381,264.286L707.143,264.286L707.143,278.571L711.905,278.571L711.905,264.286" style="fill:none;fill-rule:nonzero;stroke:rgb(159,48,20);stroke-width:1px;"/>
    </g>
    <g>
        <path d="M711.905,335.714L692.857,335.714" style="fill:none;fill-rule:nonzero;stroke:rgb(50,96,166);stroke-width:1px;"/>
    </g>
    <g>
        <path d="M402.381,735.714L383.333,735.714L383.333,716.667L388.095,716.667L388.095,730.952L392.857,730.952L392.857,716.667L397.619,716.667L397.619,730.952L402.381,730.952L402.381,716.667" style="fill:none;fill-rule:nonzero;stroke:rgb(50,96,166);stroke-width:1px;"/>
    </g>
    <g>
        <path d="M97.619,754.762L97.619,740.476L102.381,740.476L102.381,754.762L107.143,754.762L107.143,740.476L111.905,740.476L111.905,754.762L116.667,754.762L116.667,740.476" style="fill:none;fill-rule:nonzero;stroke:rgb(50,96,166);stroke-width:1px;"/>
    </g>
    <g>
        <path d="M169.048,407.143L169.048,473.81L173.81,473.81L173.81,407.143L178.571,407.143L178.571,473.81L183.333,473.81L183.333,407.143L188.095,407.143L188.095,473.81L192.857,478.571L192.857,521.429L197.619,521.429L197.619,478.571L202.381,478.571L202.381,521.429L207.143,521.429L207.143,478.571L211.905,478.571L211.905,521.429L216.667,521.429L216.667,502.381L221.429,502.381L221.429,521.429L226.19,521.429L226.19,502.381L230.952,502.381L230.952,521.429L235.714,521.429L235.714,502.381L240.476,502.381L240.476,521.429L245.238,521.429L245.238,502.381L250,502.381L250,521.429L254.762,521.429L254.762,502.381L259.524,502.381L259.524,521.429L264.286,526.19L264.286,545.238L269.048,545.238L269.048,526.19L273.81,526.19L273.81,545.238L278.571,545.238L278.571,526.19L283.333,526.19L283.333,545.238L288.095,550L288.095,569.048L292.857,569.048L292.857,550L297.619,550L297.619,569.048L302.381,569.048L302.381,550L307.143,550L307.143,569.048L311.905,569.048L311.905,592.857L316.667,592.857L316.667,564.286L311.905,564.286L311.905,502.381L316.667,502.381L316.667,559.524L321.429,559.524L321.429,592.857L326.19,592.857L326.19,554.762L321.429,554.762L321.429,502.381L326.19,502.381L326.19,550L330.952,550L330.952,592.857L335.714,592.857L335.714,616.667L340.476,616.667L340.476,588.095L335.714,588.095L335.714,573.81L340.476,573.81L340.476,583.333L345.238,583.333L345.238,616.667L350,616.667L350,578.571L345.238,578.571L345.238,573.81L354.762,573.81L354.762,616.667L359.524,621.429L359.524,640.476L364.286,640.476L364.286,621.429L369.048,621.429L369.048,640.476L373.81,640.476L373.81,621.429L378.571,621.429L378.571,640.476L383.333,645.238L383.333,664.286L388.095,664.286L388.095,645.238L392.857,645.238L392.857,664.286L397.619,664.286L397.619,645.238L402.381,645.238L402.381,664.286L407.143,669.048L407.143,692.857L383.333,692.857L383.333,711.905L388.095,711.905L388.095,697.619L392.857,697.619L392.857,711.905L397.619,711.905L397.619,697.619L402.381,697.619L402.381,711.905L407.143,711.905L407.143,830.952L411.905,830.952L411.905,707.143L407.143,707.143L407.143,697.619L411.905,697.619L411.905,702.381L416.667,702.381L416.667,830.952L421.429,830.952L421.429,697.619L416.667,697.619L416.667,692.857L411.905,692.857L411.905,669.048L416.667,669.048L416.667,688.095L421.429,688.095L421.429,692.857L426.19,692.857L426.19,830.952L430.952,835.714L430.952,878.571L435.714,878.571L435.714,835.714L440.476,835.714L440.476,878.571L445.238,878.571L445.238,835.714L450,835.714L450,878.571L454.762,883.333L454.762,902.381L459.524,902.381L459.524,883.333L464.286,883.333L464.286,902.381L469.048,902.381L469.048,883.333L473.81,883.333L473.81,902.381L478.571,902.381L478.571,883.333L483.333,883.333L483.333,902.381L488.095,902.381L488.095,883.333L492.857,883.333L492.857,902.381L497.619,902.381L497.619,883.333L502.381,883.333L502.381,902.381L507.143,902.381L507.143,883.333L511.905,883.333L511.905,902.381L516.667,902.381L516.667,883.333L521.429,883.333L521.429,902.381L526.19,902.381L526.19,883.333L530.952,883.333L530.952,902.381L535.714,902.381L535.714,883.333L540.476,883.333L540.476,902.381L545.238,902.381L545.238,883.333L550,883.333L550,902.381L554.762,902.381L554.762,883.333L559.524,883.333L559.524,902.381L564.286,902.381L564.286,883.333L569.048,883.333L569.048,902.381L573.81,902.381L573.81,883.333L578.571,883.333L578.571,902.381L583.333,902.381L583.333,883.333L588.095,883.333L588.095,902.381L592.857,902.381L592.857,883.333L597.619,883.333L597.619,902.381L602.381,902.381L602.381,883.333L607.143,883.333L607.143,902.381L611.905,902.381L611.905,883.333L616.667,883.333L616.667,902.381L621.429,902.381L621.429,883.333L626.19,883.333L626.19,902.381L630.952,902.381L630.952,883.333L635.714,883.333L635.714,902.381L640.476,902.381L640.476,883.333L645.238,878.571L645.238,859.524L650,859.524L650,878.571L654.762,878.571L654.762,859.524L659.524,859.524L659.524,878.571L664.286,878.571L664.286,859.524L669.048,859.524L669.048,878.571L673.81,878.571L673.81,854.762L669.048,854.762L669.048,835.714L673.81,835.714L673.81,850L678.571,850L678.571,878.571L683.333,878.571L683.333,845.238L678.571,845.238L678.571,835.714L683.333,835.714L683.333,840.476L688.095,840.476L688.095,878.571" style="fill:none;fill-rule:nonzero;stroke:rgb(24,24,24);stroke-width:1px;"/>
    </g>
    <g>
        <path d="M854.762,521.429L740.476,521.429L740.476,516.667L854.762,516.667L854.762,511.905L740.476,511.905L740.476,507.143L854.762,507.143L854.762,502.381L740.476,502.381L735.714,497.619L550,497.619L550,492.857L735.714,492.857L735.714,488.095L550,488.095L550,483.333L735.714,483.333L735.714,478.571L550,478.571L550,473.81L616.667,473.81L616.667,469.048L550,469.048L550,464.286L616.667,464.286L616.667,459.524L550,459.524L550,454.762L616.667,454.762L621.429,450L640.476,450L640.476,445.238L621.429,445.238L621.429,440.476L640.476,440.476L640.476,435.714L621.429,435.714L621.429,430.952L640.476,430.952L645.238,426.19L664.286,426.19L664.286,421.429L645.238,421.429L645.238,416.667L664.286,416.667L664.286,411.905L645.238,411.905L645.238,407.143L664.286,407.143L664.286,402.381L645.238,402.381L645.238,397.619L669.048,397.619L669.048,402.381L692.857,402.381L692.857,450L711.905,450L711.905,445.238L697.619,445.238L697.619,440.476L711.905,440.476L711.905,435.714L697.619,435.714L697.619,430.952L711.905,430.952L711.905,426.19L697.619,426.19L697.619,421.429L711.905,421.429L711.905,416.667L697.619,416.667L697.619,411.905L711.905,411.905L711.905,407.143L697.619,407.143L697.619,402.381L735.714,402.381L735.714,397.619L673.81,397.619L673.81,392.857L645.238,392.857L645.238,388.095L678.571,388.095L678.571,392.857L735.714,392.857L735.714,388.095L683.333,388.095L683.333,383.333L645.238,383.333L645.238,378.571L664.286,378.571L664.286,373.81L645.238,373.81L645.238,369.048L664.286,369.048L664.286,364.286L645.238,364.286L645.238,359.524L664.286,359.524L669.048,354.762L688.095,354.762L688.095,350L669.048,350L669.048,345.238L688.095,345.238L688.095,340.476L669.048,340.476L669.048,335.714L688.095,335.714L692.857,330.952L711.905,330.952L711.905,326.19L692.857,326.19L692.857,321.429L711.905,321.429L711.905,316.667L692.857,316.667L692.857,311.905L711.905,311.905L711.905,307.143L692.857,307.143L692.857,302.381L711.905,302.381L711.905,297.619L692.857,297.619L692.857,292.857L711.905,292.857L711.905,288.095L692.857,288.095" style="fill:none;fill-rule:nonzero;stroke:rgb(24,24,24);stroke-width:1px;"/>
    </g>
    <g>
        <path d="M450,488.095L450,497.619L430.952,497.619L430.952,492.857L445.238,492.857L445.238,488.095L430.952,488.095L430.952,483.333L450,483.333L450,478.571L430.952,478.571L430.952,473.81L450,473.81L450,469.048L426.19,469.048L426.19,473.81L407.143,473.81L407.143,469.048L421.429,469.048L421.429,464.286L450,464.286L450,459.524L416.667,459.524L416.667,464.286L407.143,464.286L407.143,459.524L411.905,459.524L411.905,454.762L450,454.762L454.762,450L473.81,450L473.81,445.238L454.762,445.238L454.762,440.476L473.81,440.476L473.81,435.714L454.762,435.714L454.762,430.952L473.81,430.952L478.571,426.19L521.429,426.19L521.429,421.429L478.571,421.429L478.571,416.667L521.429,416.667L521.429,411.905L478.571,411.905L478.571,407.143L521.429,407.143L521.429,402.381L478.571,402.381L478.571,397.619L521.429,397.619L521.429,392.857L478.571,392.857L478.571,388.095L521.429,388.095L521.429,383.333L478.571,383.333L478.571,378.571L497.619,378.571L497.619,373.81L478.571,373.81L478.571,369.048L497.619,369.048L497.619,364.286L478.571,364.286L478.571,359.524L497.619,359.524L497.619,354.762L521.429,354.762L521.429,350L492.857,350L492.857,354.762L450,354.762L450,402.381L430.952,402.381L430.952,397.619L445.238,397.619L445.238,392.857L430.952,392.857L430.952,388.095L445.238,388.095L445.238,383.333L430.952,383.333L430.952,378.571L445.238,378.571L445.238,373.81L430.952,373.81L430.952,369.048L445.238,369.048L445.238,364.286L430.952,364.286L430.952,359.524L445.238,359.524L445.238,354.762L430.952,354.762L430.952,350L488.095,350L488.095,345.238L521.429,345.238L521.429,340.476L483.333,340.476L483.333,345.238L430.952,345.238L430.952,340.476L478.571,340.476L478.571,335.714L521.429,335.714L521.429,330.952L478.571,330.952L478.571,326.19L521.429,326.19L521.429,321.429L478.571,321.429L478.571,316.667L521.429,316.667L521.429,311.905L478.571,311.905L473.81,307.143L450,307.143L450,335.714L473.81,335.714" style="fill:none;fill-rule:nonzero;stroke:rgb(24,24,24);stroke-width:1px;"/>
    </g>
    <g>
        <path d="M354.762,288.095L288.095,288.095L288.095,307.143L292.857,307.143L292.857,292.857L297.619,292.857L297.619,307.143L302.381,307.143L302.381,292.857L307.143,292.857L307.143,307.143L311.905,307.143L311.905,292.857L316.667,292.857L316.667,307.143L321.429,307.143L321.429,292.857L326.19,292.857L326.19,307.143L330.952,307.143L330.952,292.857L335.714,292.857L335.714,307.143L340.476,307.143L340.476,292.857L345.238,292.857L345.238,307.143L350,307.143L350,292.857L354.762,292.857L354.762,307.143L359.524,311.905L359.524,330.952L364.286,330.952L364.286,311.905L369.048,311.905L369.048,330.952L373.81,330.952L373.81,311.905L378.571,311.905L378.571,330.952L383.333,330.952L383.333,311.905L388.095,311.905L388.095,330.952L392.857,330.952L392.857,311.905L397.619,311.905L397.619,330.952L402.381,330.952L402.381,311.905L407.143,311.905L407.143,240.476L411.905,240.476L411.905,316.667L407.143,316.667L407.143,330.952L411.905,330.952L411.905,321.429L416.667,321.429L416.667,240.476L421.429,240.476L421.429,326.19L416.667,326.19L416.667,330.952L426.19,330.952L426.19,240.476L430.952,235.714L430.952,192.857L435.714,192.857L435.714,235.714L440.476,235.714L440.476,192.857L445.238,192.857L445.238,235.714L450,235.714L450,192.857L454.762,188.095L454.762,169.048L459.524,169.048L459.524,188.095L464.286,188.095L464.286,169.048L469.048,169.048L469.048,188.095L473.81,188.095L473.81,169.048L478.571,164.286L478.571,145.238L483.333,145.238L483.333,164.286L488.095,164.286L488.095,145.238L492.857,145.238L492.857,164.286L497.619,164.286L497.619,145.238L502.381,145.238L502.381,164.286L507.143,164.286L507.143,145.238L511.905,145.238L511.905,164.286L516.667,164.286L516.667,145.238L521.429,145.238L521.429,164.286" style="fill:none;fill-rule:nonzero;stroke:rgb(24,24,24);stroke-width:1px;"/>
    </g>
    <g>
        <path d="M526.19,140.476L526.19,121.429L592.857,121.429L592.857,126.19L530.952,126.19L530.952,130.952L592.857,130.952L592.857,135.714L530.952,135.714L530.952,140.476L592.857,140.476L597.619,145.238L640.476,145.238L640.476,150L597.619,150L597.619,154.762L640.476,154.762L640.476,159.524L597.619,159.524L597.619,164.286L640.476,164.286L645.238,169.048L664.286,169.048L664.286,173.81L645.238,173.81L645.238,178.571L664.286,178.571L664.286,183.333L645.238,183.333L645.238,188.095L664.286,188.095L669.048,192.857L688.095,192.857L688.095,197.619L669.048,197.619L669.048,202.381L688.095,202.381L688.095,207.143L669.048,207.143L669.048,211.905L688.095,211.905" style="fill:none;fill-rule:nonzero;stroke:rgb(24,24,24);stroke-width:1px;"/>
    </g>
    <g>
        <path d="M616.667,216.667L616.667,235.714L597.619,235.714L597.619,230.952L611.905,230.952L611.905,226.19L597.619,226.19L597.619,221.429L611.905,221.429L611.905,216.667L597.619,216.667L592.857,211.905L573.81,211.905L573.81,207.143L592.857,207.143L592.857,202.381L573.81,202.381L573.81,197.619L592.857,197.619L592.857,192.857L573.81,192.857L569.048,188.095L550,188.095L550,183.333L569.048,183.333L569.048,178.571L550,178.571L550,173.81L569.048,173.81L569.048,169.048L550,169.048" style="fill:none;fill-rule:nonzero;stroke:rgb(24,24,24);stroke-width:1px;"/>
    </g>
    <g>
        <path d="M454.762,264.286L454.762,288.095L430.952,288.095L430.952,335.714L435.714,335.714L435.714,292.857L440.476,292.857L440.476,335.714L445.238,335.714L445.238,292.857L450,292.857L450,302.381L454.762,302.381L454.762,292.857L459.524,292.857L459.524,302.381L464.286,302.381L464.286,288.095L459.524,288.095L459.524,264.286L464.286,264.286L464.286,283.333L469.048,283.333L469.048,302.381L473.81,302.381L473.81,278.571L469.048,278.571L469.048,264.286L473.81,264.286L473.81,273.81L478.571,273.81L478.571,283.333L483.333,283.333L483.333,269.048L478.571,269.048L478.571,264.286L488.095,264.286L488.095,283.333L492.857,283.333L492.857,264.286L497.619,264.286L497.619,283.333L502.381,288.095L502.381,307.143L507.143,307.143L507.143,288.095L511.905,288.095L511.905,307.143L516.667,307.143L516.667,288.095L521.429,288.095L521.429,307.143" style="fill:none;fill-rule:nonzero;stroke:rgb(24,24,24);stroke-width:1px;"/>
    </g>
    <g>
        <path d="M502.381,259.524L502.381,240.476L507.143,240.476L507.143,259.524L511.905,259.524L511.905,240.476L516.667,240.476L516.667,259.524L521.429,259.524L521.429,240.476" style="fill:none;fill-rule:nonzero;stroke:rgb(24,24,24);stroke-width:1px;"/>
    </g>
    <g>
        <path d="M550,288.095L592.857,288.095L592.857,292.857L550,292.857L550,297.619L592.857,297.619L592.857,302.381L550,302.381L550,307.143L592.857,307.143L597.619,311.905L616.667,311.905L616.667,316.667L597.619,316.667L597.619,321.429L616.667,321.429L616.667,326.19L597.619,326.19L597.619,330.952L616.667,330.952L616.667,335.714L597.619,335.714L597.619,340.476L621.429,340.476L621.429,335.714L640.476,335.714L640.476,340.476L626.19,340.476L626.19,345.238L597.619,345.238L597.619,350L630.952,350L630.952,345.238L640.476,345.238L640.476,350L635.714,350L635.714,354.762L597.619,354.762L597.619,359.524L616.667,359.524L616.667,364.286L597.619,364.286L597.619,369.048L616.667,369.048L616.667,373.81L597.619,373.81L597.619,378.571L616.667,378.571" style="fill:none;fill-rule:nonzero;stroke:rgb(24,24,24);stroke-width:1px;"/>
    </g>
    <g>
        <path d="M283.333,311.905L283.333,330.952L278.571,330.952L278.571,311.905L273.81,311.905L273.81,330.952L269.048,330.952L269.048,311.905L264.286,311.905L264.286,330.952L259.524,335.714L259.524,354.762L254.762,354.762L254.762,335.714L250,335.714L250,354.762L245.238,354.762L245.238,335.714L240.476,335.714L240.476,354.762L235.714,359.524L235.714,378.571L230.952,378.571L230.952,359.524L226.19,359.524L226.19,378.571L221.429,378.571L221.429,359.524L216.667,359.524L216.667,378.571L211.905,383.333L211.905,402.381L207.143,402.381L207.143,383.333L202.381,383.333L202.381,402.381L197.619,402.381L197.619,383.333L192.857,383.333L192.857,402.381" style="fill:none;fill-rule:nonzero;stroke:rgb(24,24,24);stroke-width:1px;"/>
    </g>
    <g>
        <path d="M740.476,359.524L740.476,378.571L745.238,378.571L745.238,359.524L750,359.524L750,378.571L754.762,378.571L754.762,359.524L759.524,359.524L759.524,378.571L764.286,378.571L764.286,359.524L769.048,359.524L769.048,378.571L773.81,378.571L773.81,359.524L778.571,359.524L778.571,378.571L783.333,378.571L783.333,359.524L788.095,359.524L788.095,378.571L792.857,378.571L792.857,359.524L797.619,359.524L797.619,378.571L802.381,378.571L802.381,359.524L807.143,359.524L807.143,378.571L811.905,378.571L811.905,359.524L816.667,359.524L816.667,378.571L821.429,378.571L821.429,359.524L826.19,359.524L826.19,378.571L830.952,378.571L830.952,359.524L835.714,359.524L835.714,378.571L840.476,378.571L840.476,359.524L845.238,359.524L845.238,378.571L850,378.571L850,359.524L854.762,359.524L854.762,378.571L859.524,383.333L859.524,407.143L835.714,407.143L835.714,473.81L840.476,473.81L840.476,411.905L845.238,411.905L845.238,473.81L850,473.81L850,411.905L854.762,411.905L854.762,473.81L859.524,473.81L859.524,497.619L864.286,497.619L864.286,469.048L859.524,469.048L859.524,411.905L864.286,411.905L864.286,464.286L869.048,464.286L869.048,497.619L873.81,497.619L873.81,459.524L869.048,459.524L869.048,407.143L864.286,407.143L864.286,383.333L869.048,383.333L869.048,402.381L873.81,402.381L873.81,454.762L878.571,454.762L878.571,497.619L883.333,497.619L883.333,478.571L888.095,478.571L888.095,497.619L892.857,497.619L892.857,478.571L897.619,478.571L897.619,497.619L902.381,497.619L902.381,478.571L907.143,473.81L907.143,407.143L911.905,407.143L911.905,473.81L916.667,473.81L916.667,407.143L921.429,407.143L921.429,473.81L926.19,473.81L926.19,407.143" style="fill:none;fill-rule:nonzero;stroke:rgb(24,24,24);stroke-width:1px;"/>
    </g>
    <g>
        <path d="M735.714,383.333L688.095,383.333" style="fill:none;fill-rule:nonzero;stroke:rgb(24,24,24);stroke-width:1px;"/>
    </g>
    <g>
        <path d="M878.571,450L878.571,402.381L902.381,402.381L902.381,383.333L897.619,383.333L897.619,397.619L892.857,397.619L892.857,383.333L888.095,383.333L888.095,397.619L883.333,397.619L883.333,383.333L878.571,383.333L878.571,397.619L873.81,397.619L873.81,383.333" style="fill:none;fill-rule:nonzero;stroke:rgb(24,24,24);stroke-width:1px;"/>
    </g>
    <g>
        <path d="M330.952,545.238L330.952,502.381L335.714,497.619L335.714,478.571L340.476,478.571L340.476,497.619L345.238,497.619L345.238,478.571L350,478.571L350,497.619L354.762,497.619L354.762,478.571L359.524,473.81L359.524,426.19L335.714,426.19L335.714,407.143L340.476,407.143L340.476,421.429L345.238,421.429L345.238,407.143L350,407.143L350,421.429L354.762,421.429L354.762,407.143L359.524,407.143L359.524,421.429L364.286,421.429L364.286,407.143L369.048,407.143L369.048,426.19L364.286,426.19L364.286,473.81L369.048,473.81L369.048,430.952L373.81,430.952L373.81,407.143L378.571,407.143L378.571,435.714L373.81,435.714L373.81,473.81L378.571,473.81L378.571,440.476L383.333,440.476L383.333,407.143L388.095,407.143L388.095,445.238L383.333,445.238L383.333,450L392.857,450L392.857,407.143L397.619,407.143L397.619,450L402.381,450L402.381,407.143L407.143,407.143L407.143,426.19L411.905,426.19L411.905,407.143L416.667,407.143L416.667,426.19L421.429,426.19L421.429,407.143L426.19,407.143L426.19,426.19" style="fill:none;fill-rule:nonzero;stroke:rgb(24,24,24);stroke-width:1px;"/>
    </g>
    <g>
        <path d="M592.857,426.19L573.81,426.19L573.81,407.143L578.571,407.143L578.571,421.429L583.333,421.429L583.333,407.143L588.095,407.143L588.095,421.429L592.857,421.429L592.857,407.143" style="fill:none;fill-rule:nonzero;stroke:rgb(24,24,24);stroke-width:1px;"/>
    </g>
    <g>
        <path d="M264.286,497.619L264.286,478.571L269.048,478.571L269.048,497.619L273.81,497.619L273.81,478.571L278.571,478.571L278.571,497.619L283.333,497.619L283.333,478.571L288.095,473.81L288.095,430.952L292.857,430.952L292.857,473.81L297.619,473.81L297.619,430.952L302.381,430.952L302.381,473.81L307.143,473.81L307.143,430.952" style="fill:none;fill-rule:nonzero;stroke:rgb(24,24,24);stroke-width:1px;"/>
    </g>
    <g>
        <path d="M545.238,450L526.19,450L526.19,430.952L530.952,430.952L530.952,445.238L535.714,445.238L535.714,430.952L540.476,430.952L540.476,445.238L545.238,445.238L545.238,430.952" style="fill:none;fill-rule:nonzero;stroke:rgb(24,24,24);stroke-width:1px;"/>
    </g>
    <g>
        <path d="M640.476,788.095L640.476,807.143L635.714,807.143L635.714,788.095L630.952,788.095L630.952,807.143L626.19,807.143L626.19,788.095L621.429,788.095L621.429,807.143L616.667,807.143L616.667,788.095L611.905,788.095L611.905,807.143L607.143,807.143L607.143,788.095L602.381,788.095L602.381,807.143L597.619,807.143L597.619,788.095L592.857,783.333L592.857,764.286L588.095,764.286L588.095,783.333L583.333,783.333L583.333,764.286L578.571,764.286L578.571,783.333L573.81,783.333L573.81,764.286L569.048,764.286L569.048,692.857L564.286,692.857L564.286,769.048L569.048,769.048L569.048,783.333L564.286,783.333L564.286,773.81L559.524,773.81L559.524,692.857L554.762,692.857L554.762,778.571L559.524,778.571L559.524,783.333L550,783.333L550,692.857L545.238,688.095L545.238,645.238L540.476,645.238L540.476,688.095L535.714,688.095L535.714,645.238L530.952,645.238L530.952,688.095L526.19,688.095L526.19,645.238L521.429,640.476L521.429,621.429L516.667,621.429L516.667,640.476L511.905,640.476L511.905,621.429L507.143,621.429L507.143,640.476L502.381,640.476L502.381,621.429L497.619,616.667L497.619,597.619L492.857,597.619L492.857,616.667L488.095,616.667L488.095,597.619L483.333,597.619L483.333,616.667L478.571,616.667L478.571,597.619L473.81,592.857L473.81,550L469.048,550L469.048,592.857L464.286,592.857L464.286,550L459.524,550L459.524,592.857L454.762,592.857L454.762,550L450,550L450,569.048L445.238,569.048L445.238,550L440.476,550L440.476,569.048L435.714,569.048L435.714,550L430.952,550L430.952,569.048" style="fill:none;fill-rule:nonzero;stroke:rgb(24,24,24);stroke-width:1px;"/>
    </g>
    <g>
        <path d="M545.238,502.381L545.238,521.429L540.476,521.429L540.476,502.381L535.714,502.381L535.714,521.429L530.952,521.429L530.952,502.381L526.19,502.381L526.19,521.429L521.429,526.19L521.429,545.238L516.667,545.238L516.667,526.19L511.905,526.19L511.905,545.238L507.143,545.238L507.143,526.19L502.381,526.19L502.381,545.238L497.619,545.238L497.619,526.19L492.857,526.19L492.857,545.238L488.095,545.238L488.095,526.19L483.333,526.19L483.333,545.238L478.571,545.238L478.571,526.19L473.81,521.429L473.81,502.381L469.048,502.381L469.048,521.429L464.286,521.429L464.286,502.381L459.524,502.381L459.524,521.429L454.762,521.429L454.762,502.381" style="fill:none;fill-rule:nonzero;stroke:rgb(24,24,24);stroke-width:1px;"/>
    </g>
    <g>
        <path d="M192.857,640.476L192.857,573.81L211.905,573.81L211.905,578.571L197.619,578.571L197.619,583.333L211.905,583.333L211.905,588.095L197.619,588.095L197.619,592.857L211.905,592.857L211.905,597.619L197.619,597.619L197.619,602.381L211.905,602.381L211.905,607.143L197.619,607.143L197.619,611.905L211.905,611.905L211.905,616.667L197.619,616.667L197.619,621.429L211.905,621.429L211.905,626.19L197.619,626.19L197.619,630.952L211.905,630.952L211.905,635.714L197.619,635.714L197.619,640.476L211.905,640.476L216.667,645.238L235.714,645.238L235.714,650L216.667,650L216.667,654.762L235.714,654.762L235.714,659.524L216.667,659.524L216.667,664.286L235.714,664.286L240.476,669.048L259.524,669.048L259.524,673.81L240.476,673.81L240.476,678.571L259.524,678.571L259.524,683.333L240.476,683.333L240.476,688.095L259.524,688.095L264.286,692.857L307.143,692.857L307.143,697.619L264.286,697.619L264.286,702.381L307.143,702.381L307.143,707.143L264.286,707.143L264.286,711.905L307.143,711.905L311.905,716.667L335.714,716.667L335.714,669.048L354.762,669.048L354.762,673.81L340.476,673.81L340.476,678.571L354.762,678.571L354.762,683.333L340.476,683.333L340.476,688.095L354.762,688.095L354.762,692.857L340.476,692.857L340.476,697.619L354.762,697.619L354.762,702.381L340.476,702.381L340.476,707.143L354.762,707.143L354.762,711.905L340.476,711.905L340.476,716.667L378.571,716.667L378.571,721.429L311.905,721.429L311.905,726.19L378.571,726.19L378.571,730.952L311.905,730.952L311.905,735.714L378.571,735.714" style="fill:none;fill-rule:nonzero;stroke:rgb(24,24,24);stroke-width:1px;"/>
    </g>
    <g>
        <path d="M188.095,526.19L188.095,545.238L183.333,545.238L183.333,526.19L178.571,526.19L178.571,545.238L173.81,545.238L173.81,526.19L169.048,526.19L169.048,545.238L164.286,550L164.286,592.857L159.524,592.857L159.524,550L154.762,550L154.762,592.857L150,592.857L150,550L145.238,550L145.238,592.857L140.476,597.619L140.476,640.476L135.714,640.476L135.714,597.619L130.952,597.619L130.952,640.476L126.19,640.476L126.19,597.619L121.429,597.619L121.429,640.476L116.667,645.238L116.667,735.714L111.905,735.714L111.905,645.238L107.143,645.238L107.143,735.714L102.381,735.714L102.381,645.238L97.619,645.238L97.619,735.714" style="fill:none;fill-rule:nonzero;stroke:rgb(24,24,24);stroke-width:1px;"/>
    </g>
    <g>
        <path d="M426.19,545.238L407.143,545.238L407.143,526.19L411.905,526.19L411.905,540.476L416.667,540.476L416.667,526.19L421.429,526.19L421.429,540.476L426.19,540.476L426.19,526.19" style="fill:none;fill-rule:nonzero;stroke:rgb(24,24,24);stroke-width:1px;"/>
    </g>
    <g>
        <path d="M259.524,569.048L216.667,569.048L216.667,550L221.429,550L221.429,564.286L226.19,564.286L226.19,550L230.952,550L230.952,564.286L235.714,564.286L235.714,550L240.476,550L240.476,564.286L245.238,564.286L245.238,550L250,550L250,564.286L254.762,564.286L254.762,550L259.524,550L259.524,564.286" style="fill:none;fill-rule:nonzero;stroke:rgb(24,24,24);stroke-width:1px;"/>
    </g>
    <g>
        <path d="M311.905,664.286L311.905,621.429L316.667,621.429L316.667,664.286L321.429,664.286L321.429,621.429L326.19,621.429L326.19,664.286L330.952,664.286L330.952,621.429" style="fill:none;fill-rule:nonzero;stroke:rgb(24,24,24);stroke-width:1px;"/>
    </g>
    <g>
        <path d="M473.81,621.429L473.81,664.286L469.048,664.286L469.048,621.429L464.286,621.429L464.286,664.286L459.524,664.286L459.524,621.429L454.762,621.429L454.762,664.286L450,669.048L450,688.095L445.238,688.095L445.238,669.048L440.476,669.048L440.476,688.095L435.714,688.095L435.714,669.048L430.952,669.048L430.952,688.095L426.19,688.095L426.19,669.048L421.429,669.048L421.429,683.333" style="fill:none;fill-rule:nonzero;stroke:rgb(24,24,24);stroke-width:1px;"/>
    </g>
    <g>
        <path d="M121.429,759.524L164.286,759.524L164.286,754.762L121.429,754.762L121.429,750L164.286,750L164.286,745.238L121.429,745.238L121.429,740.476L164.286,740.476L169.048,735.714L211.905,735.714L211.905,730.952L169.048,730.952L169.048,726.19L211.905,726.19L211.905,721.429L169.048,721.429L169.048,716.667L211.905,716.667L216.667,711.905L235.714,711.905L235.714,707.143L216.667,707.143L216.667,702.381L235.714,702.381L235.714,697.619L216.667,697.619L216.667,692.857L235.714,692.857" style="fill:none;fill-rule:nonzero;stroke:rgb(24,24,24);stroke-width:1px;"/>
    </g>
    <g>
        <path d="M545.238,764.286L545.238,783.333L540.476,783.333L540.476,764.286L535.714,764.286L535.714,783.333L530.952,783.333L530.952,764.286L526.19,764.286L526.19,783.333L521.429,788.095L521.429,807.143L516.667,807.143L516.667,788.095L511.905,788.095L511.905,807.143L507.143,807.143L507.143,788.095L502.381,788.095L502.381,807.143L497.619,811.905L497.619,830.952L492.857,830.952L492.857,811.905L488.095,811.905L488.095,830.952L483.333,830.952L483.333,811.905L478.571,811.905L478.571,830.952L473.81,835.714L473.81,854.762L469.048,854.762L469.048,835.714L464.286,835.714L464.286,854.762L459.524,854.762L459.524,835.714L454.762,835.714L454.762,854.762" style="fill:none;fill-rule:nonzero;stroke:rgb(24,24,24);stroke-width:1px;"/>
    </g>
    <g>
        <path d="M664.286,830.952L645.238,830.952L645.238,811.905L650,811.905L650,826.19L654.762,826.19L654.762,811.905L659.524,811.905L659.524,826.19L664.286,826.19L664.286,811.905" style="fill:none;fill-rule:nonzero;stroke:rgb(24,24,24);stroke-width:1px;"/>
    </g>
    <g>
        <path d="M711.905,235.714L692.857,235.714L692.857,216.667L697.619,216.667L697.619,230.952L702.381,230.952L702.381,216.667L707.143,216.667L707.143,230.952L711.905,230.952L711.905,216.667" style="fill:none;fill-rule:nonzero;stroke:rgb(53,96,164);stroke-width:1px;"/>
    </g>
    <g>
        <path d="M664.286,240.476L664.286,264.286L688.095,264.286L688.095,283.333L683.333,283.333L683.333,269.048L678.571,269.048L678.571,283.333L673.81,283.333L673.81,269.048L669.048,269.048L669.048,283.333L664.286,283.333L664.286,269.048L659.524,269.048L659.524,240.476L654.762,240.476L654.762,273.81L659.524,273.81L659.524,288.095L664.286,288.095L664.286,307.143L659.524,307.143L659.524,292.857L654.762,292.857L654.762,278.571L650,278.571L650,240.476L645.238,240.476L645.238,283.333L650,283.333L650,297.619L654.762,297.619L654.762,307.143L650,307.143L650,302.381L645.238,302.381L645.238,288.095L640.476,283.333L640.476,240.476L635.714,240.476L635.714,283.333L630.952,283.333L630.952,240.476L626.19,240.476L626.19,283.333L621.429,283.333L621.429,240.476L616.667,240.476L616.667,259.524L611.905,259.524L611.905,240.476L607.143,240.476L607.143,259.524L602.381,259.524L602.381,240.476L597.619,240.476L597.619,259.524" style="fill:none;fill-rule:nonzero;stroke:rgb(240,64,16);stroke-width:1px;"/>
    </g>
    <g>
        <path d="M473.81,330.952L454.762,330.952L454.762,311.905L459.524,311.905L459.524,326.19L464.286,326.19L464.286,311.905L469.048,311.905L469.048,326.19L473.81,326.19L473.81,311.905" style="fill:none;fill-rule:nonzero;stroke:rgb(240,64,16);stroke-width:1px;"/>
    </g>
    <g>
        <path d="M902.381,473.81L883.333,473.81L883.333,407.143L888.095,407.143L888.095,469.048L892.857,469.048L892.857,407.143L897.619,407.143L897.619,469.048L902.381,469.048L902.381,407.143" style="fill:none;fill-rule:nonzero;stroke:rgb(240,64,16);stroke-width:1px;"/>
    </g>
    <g>
        <path d="M573.81,354.762L573.81,311.905L578.571,311.905L578.571,354.762L583.333,354.762L583.333,311.905L588.095,311.905L588.095,354.762L592.857,354.762L592.857,311.905" style="fill:none;fill-rule:nonzero;stroke:rgb(240,240,240);stroke-width:1px;"/>
    </g>
    <g>
        <path d="M616.667,169.048L616.667,188.095L597.619,188.095L597.619,183.333L611.905,183.333L611.905,178.571L597.619,178.571L597.619,173.81L611.905,173.81L611.905,169.048L597.619,169.048L592.857,164.286L573.81,164.286L573.81,159.524L592.857,159.524L592.857,154.762L573.81,154.762L573.81,150L592.857,150L592.857,145.238L573.81,145.238" style="fill:none;fill-rule:nonzero;stroke:rgb(120,216,240);stroke-width:1px;"/>
    </g>
    <g>
        <path d="M402.381,402.381L383.333,402.381L383.333,383.333L388.095,383.333L388.095,397.619L392.857,397.619L392.857,383.333L397.619,383.333L397.619,397.619L402.381,397.619L402.381,383.333" style="fill:none;fill-rule:nonzero;stroke:rgb(120,216,240);stroke-width:1px;"/>
    </g>
    <g>
        <path d="M645.238,450L645.238,430.952L650,430.952L650,450L654.762,450L654.762,430.952L659.524,430.952L659.524,450L664.286,450L664.286,430.952L669.048,430.952L669.048,407.143L673.81,407.143L673.81,435.714L669.048,435.714L669.048,450L673.81,450L673.81,440.476L678.571,440.476L678.571,407.143L683.333,407.143L683.333,445.238L678.571,445.238L678.571,450L688.095,450L688.095,407.143" style="fill:none;fill-rule:nonzero;stroke:rgb(120,216,240);stroke-width:1px;"/>
    </g>
    <g>
        <path d="M545.238,169.048L545.238,188.095L540.476,188.095L540.476,169.048L535.714,169.048L535.714,188.095L530.952,188.095L530.952,169.048L526.19,169.048L526.19,188.095L521.429,192.857L521.429,211.905L516.667,211.905L516.667,192.857L511.905,192.857L511.905,211.905L507.143,211.905L507.143,192.857L502.381,192.857L502.381,211.905L497.619,216.667L497.619,259.524L492.857,259.524L492.857,216.667L488.095,216.667L488.095,259.524L483.333,259.524L483.333,216.667L478.571,216.667L478.571,259.524" style="fill:none;fill-rule:nonzero;stroke:rgb(0,64,240);stroke-width:1px;"/>
    </g>
    <g>
        <path d="M592.857,235.714L573.81,235.714L573.81,216.667L578.571,216.667L578.571,230.952L583.333,230.952L583.333,216.667L588.095,216.667L588.095,230.952L592.857,230.952L592.857,216.667" style="fill:none;fill-rule:nonzero;stroke:rgb(0,64,240);stroke-width:1px;"/>
    </g>
    <g>
        <path d="M330.952,335.714L330.952,354.762L326.19,354.762L326.19,335.714L321.429,335.714L321.429,354.762L316.667,354.762L316.667,335.714L311.905,335.714L311.905,354.762L307.143,359.524L307.143,378.571L302.381,378.571L302.381,359.524L297.619,359.524L297.619,378.571L292.857,378.571L292.857,359.524L288.095,359.524L288.095,378.571L283.333,383.333L283.333,402.381L278.571,402.381L278.571,383.333L273.81,383.333L273.81,402.381L269.048,402.381L269.048,383.333L264.286,383.333L264.286,402.381" style="fill:none;fill-rule:nonzero;stroke:rgb(0,64,240);stroke-width:1px;"/>
    </g>
    <g>
        <path d="M759.524,383.333L759.524,402.381L754.762,402.381L754.762,383.333L750,383.333L750,402.381L745.238,402.381L745.238,383.333L740.476,383.333L740.476,402.381L735.714,407.143L735.714,426.19L730.952,426.19L730.952,407.143L726.19,407.143L726.19,426.19L721.429,426.19L721.429,407.143L716.667,407.143L716.667,426.19" style="fill:none;fill-rule:nonzero;stroke:rgb(0,64,240);stroke-width:1px;"/>
    </g>
    <g>
        <path d="M854.762,402.381L835.714,402.381L835.714,383.333L840.476,383.333L840.476,397.619L845.238,397.619L845.238,383.333L850,383.333L850,397.619L854.762,397.619L854.762,383.333" style="fill:none;fill-rule:nonzero;stroke:rgb(0,64,240);stroke-width:1px;"/>
    </g>
    <g>
        <path d="M450,426.19L430.952,426.19L430.952,407.143L435.714,407.143L435.714,421.429L440.476,421.429L440.476,407.143L445.238,407.143L445.238,421.429L450,421.429L450,407.143" style="fill:none;fill-rule:nonzero;stroke:rgb(0,64,240);stroke-width:1px;"/>
    </g>
    <g>
        <path d="M759.524,450L740.476,450L740.476,430.952L745.238,430.952L745.238,445.238L750,445.238L750,430.952L754.762,430.952L754.762,445.238L759.524,445.238L759.524,430.952" style="fill:none;fill-rule:nonzero;stroke:rgb(0,64,240);stroke-width:1px;"/>
    </g>
    <g>
        <path d="M473.81,478.571L454.762,478.571L454.762,497.619L459.524,497.619L459.524,483.333L464.286,483.333L464.286,497.619L469.048,497.619L469.048,483.333L473.81,483.333L473.81,497.619L478.571,502.381L478.571,521.429L483.333,521.429L483.333,502.381L488.095,502.381L488.095,521.429L492.857,521.429L492.857,502.381L497.619,502.381L497.619,521.429L502.381,521.429L502.381,502.381L507.143,502.381L507.143,521.429L511.905,521.429L511.905,502.381L516.667,502.381L516.667,521.429L521.429,521.429L521.429,502.381L526.19,497.619L526.19,454.762L530.952,454.762L530.952,497.619L535.714,497.619L535.714,454.762L540.476,454.762L540.476,497.619L545.238,497.619L545.238,454.762" style="fill:none;fill-rule:nonzero;stroke:rgb(0,64,240);stroke-width:1px;"/>
    </g>
    <g>
        <path d="M169.048,597.619L188.095,597.619L188.095,602.381L169.048,602.381L169.048,607.143L188.095,607.143L188.095,611.905L169.048,611.905L169.048,616.667L188.095,616.667L188.095,621.429L145.238,621.429L145.238,626.19L188.095,626.19L188.095,630.952L145.238,630.952L145.238,635.714L188.095,635.714L188.095,640.476L145.238,640.476L145.238,645.238L211.905,645.238L211.905,650L145.238,650L145.238,654.762L211.905,654.762L211.905,659.524L145.238,659.524L145.238,664.286L211.905,664.286L211.905,669.048L121.429,669.048L121.429,673.81L211.905,673.81L211.905,678.571L121.429,678.571L121.429,683.333L211.905,683.333L211.905,688.095L121.429,688.095L121.429,692.857L188.095,692.857L188.095,697.619L121.429,697.619L121.429,702.381L188.095,702.381L188.095,707.143L121.429,707.143L121.429,711.905L188.095,711.905" style="fill:none;fill-rule:nonzero;stroke:rgb(0,64,240);stroke-width:1px;"/>
    </g>
    <g>
        <path d="M240.476,640.476L240.476,621.429L283.333,621.429L283.333,626.19L245.238,626.19L245.238,630.952L283.333,630.952L283.333,635.714L245.238,635.714L245.238,640.476L283.333,640.476L283.333,645.238L307.143,645.238L307.143,650L278.571,650L278.571,645.238L264.286,645.238L264.286,650L273.81,650L273.81,654.762L307.143,654.762L307.143,659.524L269.048,659.524L269.048,654.762L264.286,654.762L264.286,664.286L307.143,664.286L307.143,669.048L330.952,669.048L330.952,673.81L302.381,673.81L302.381,669.048L288.095,669.048L288.095,673.81L297.619,673.81L297.619,678.571L330.952,678.571L330.952,683.333L292.857,683.333L292.857,678.571L288.095,678.571L288.095,688.095L330.952,688.095L330.952,692.857L311.905,692.857L311.905,697.619L330.952,697.619L330.952,702.381L311.905,702.381L311.905,707.143L330.952,707.143L330.952,711.905L311.905,711.905" style="fill:none;fill-rule:nonzero;stroke:rgb(0,64,240);stroke-width:1px;"/>
    </g>
    <g>
        <path d="M521.429,645.238L521.429,664.286L502.381,664.286L502.381,659.524L516.667,659.524L516.667,654.762L502.381,654.762L502.381,650L516.667,650L516.667,645.238L502.381,645.238L497.619,640.476L478.571,640.476L478.571,635.714L497.619,635.714L497.619,630.952L478.571,630.952L478.571,626.19L497.619,626.19L497.619,621.429L478.571,621.429" style="fill:none;fill-rule:nonzero;stroke:rgb(0,64,240);stroke-width:1px;"/>
    </g>
    <g>
        <path d="M473.81,688.095L454.762,688.095L454.762,669.048L459.524,669.048L459.524,683.333L464.286,683.333L464.286,669.048L469.048,669.048L469.048,683.333L473.81,683.333L473.81,669.048" style="fill:none;fill-rule:nonzero;stroke:rgb(0,64,240);stroke-width:1px;"/>
    </g>
    <g>
        <path d="M545.238,711.905L526.19,711.905L526.19,692.857L530.952,692.857L530.952,707.143L535.714,707.143L535.714,692.857L540.476,692.857L540.476,707.143L545.238,707.143L545.238,692.857" style="fill:none;fill-rule:nonzero;stroke:rgb(0,64,240);stroke-width:1px;"/>
    </g>
    <g>
        <path d="M140.476,735.714L121.429,735.714L121.429,716.667L126.19,716.667L126.19,730.952L130.952,730.952L130.952,716.667L135.714,716.667L135.714,730.952L140.476,730.952L140.476,716.667" style="fill:none;fill-rule:nonzero;stroke:rgb(0,64,240);stroke-width:1px;"/>
    </g>
    <g>
        <path d="M521.429,830.952L521.429,811.905L516.667,811.905L516.667,830.952L511.905,830.952L511.905,811.905L507.143,811.905L507.143,830.952L502.381,830.952L502.381,811.905L497.619,807.143L497.619,788.095L492.857,788.095L492.857,807.143L488.095,807.143L488.095,788.095L483.333,788.095L483.333,807.143L478.571,807.143L478.571,788.095L473.81,783.333L473.81,764.286L469.048,764.286L469.048,783.333L464.286,783.333L464.286,764.286L459.524,764.286L459.524,783.333L454.762,783.333L454.762,764.286" style="fill:none;fill-rule:nonzero;stroke:rgb(0,64,240);stroke-width:1px;"/>
    </g>
    <g>
        <path d="M545.238,807.143L526.19,807.143L526.19,788.095L530.952,788.095L530.952,802.381L535.714,802.381L535.714,788.095L540.476,788.095L540.476,802.381L545.238,802.381L545.238,788.095" style="fill:none;fill-rule:nonzero;stroke:rgb(0,64,240);stroke-width:1px;"/>
    </g>
    <g>
        <path d="M592.857,807.143L573.81,807.143L573.81,788.095L578.571,788.095L578.571,802.381L583.333,802.381L583.333,788.095L588.095,788.095L588.095,802.381L592.857,802.381L592.857,788.095" style="fill:none;fill-rule:nonzero;stroke:rgb(0,64,240);stroke-width:1px;"/>
    </g>
    <g>
        <path d="M664.286,835.714L664.286,854.762L645.238,854.762L645.238,850L659.524,850L659.524,845.238L645.238,845.238L645.238,840.476L659.524,840.476L659.524,835.714L645.238,835.714L640.476,830.952L621.429,830.952L621.429,826.19L640.476,826.19L640.476,821.429L621.429,821.429L621.429,816.667L640.476,816.667L640.476,811.905L621.429,811.905" style="fill:none;fill-rule:nonzero;stroke:rgb(0,64,240);stroke-width:1px;"/>
    </g>
    <g>
        <path d="M521.429,878.571L502.381,878.571L502.381,859.524L507.143,859.524L507.143,873.81L511.905,873.81L511.905,859.524L516.667,859.524L516.667,873.81L521.429,873.81L521.429,859.524" style="fill:none;fill-rule:nonzero;stroke:rgb(0,64,240);stroke-width:1px;"/>
    </g>
    <g>
        <path d="M616.667,878.571L597.619,878.571L597.619,859.524L602.381,859.524L602.381,873.81L607.143,873.81L607.143,859.524L611.905,859.524L611.905,873.81L616.667,873.81L616.667,859.524" style="fill:none;fill-rule:nonzero;stroke:rgb(0,64,240);stroke-width:1px;"/>
    </g>
    <g>
        <path d="M559.524,192.857L526.19,192.857L526.19,197.619L564.286,197.619L564.286,192.857L569.048,192.857L569.048,202.381L526.19,202.381L526.19,207.143L569.048,207.143L569.048,211.905L526.19,211.905L521.429,216.667L502.381,216.667L502.381,221.429L521.429,221.429L521.429,226.19L502.381,226.19L502.381,230.952L521.429,230.952L521.429,235.714L502.381,235.714" style="fill:none;fill-rule:nonzero;stroke:rgb(0,128,248);stroke-width:1px;"/>
    </g>
    <g>
        <path d="M664.286,354.762L645.238,354.762L645.238,335.714L650,335.714L650,350L654.762,350L654.762,335.714L659.524,335.714L659.524,350L664.286,350L664.286,335.714" style="fill:none;fill-rule:nonzero;stroke:rgb(0,128,248);stroke-width:1px;"/>
    </g>
    <g>
        <path d="M307.143,426.19L288.095,426.19L288.095,383.333L292.857,383.333L292.857,421.429L297.619,421.429L297.619,383.333L302.381,383.333L302.381,421.429L307.143,421.429L307.143,383.333L311.905,383.333L311.905,359.524L316.667,359.524L316.667,388.095L311.905,388.095L311.905,402.381L316.667,402.381L316.667,392.857L321.429,392.857L321.429,359.524L326.19,359.524L326.19,397.619L321.429,397.619L321.429,402.381L330.952,402.381L330.952,359.524" style="fill:none;fill-rule:nonzero;stroke:rgb(0,128,248);stroke-width:1px;"/>
    </g>
    <g>
        <path d="M473.81,359.524L473.81,426.19L469.048,426.19L469.048,359.524L464.286,359.524L464.286,426.19L459.524,426.19L459.524,359.524L454.762,359.524L454.762,426.19L450,430.952L450,450L445.238,450L445.238,430.952L440.476,430.952L440.476,450L435.714,450L435.714,430.952L430.952,430.952L430.952,450" style="fill:none;fill-rule:nonzero;stroke:rgb(0,128,248);stroke-width:1px;"/>
    </g>
    <g>
        <path d="M740.476,407.143L740.476,426.19L745.238,426.19L745.238,407.143L750,407.143L750,426.19L754.762,426.19L754.762,407.143L759.524,407.143L759.524,426.19L764.286,430.952L764.286,450L769.048,450L769.048,430.952L773.81,430.952L773.81,450L778.571,450L778.571,430.952L783.333,430.952L783.333,450L788.095,450L788.095,430.952L792.857,430.952L792.857,450L797.619,450L797.619,430.952L802.381,430.952L802.381,450L807.143,450L807.143,430.952L811.905,430.952L811.905,402.381L764.286,402.381L764.286,383.333L769.048,383.333L769.048,397.619L773.81,397.619L773.81,383.333L778.571,383.333L778.571,397.619L783.333,397.619L783.333,383.333L788.095,383.333L788.095,397.619L792.857,397.619L792.857,383.333L797.619,383.333L797.619,397.619L802.381,397.619L802.381,383.333L807.143,383.333L807.143,397.619L811.905,397.619L811.905,383.333L816.667,383.333L816.667,435.714L811.905,435.714L811.905,450L816.667,450L816.667,440.476L821.429,440.476L821.429,383.333L826.19,383.333L826.19,445.238L821.429,445.238L821.429,450L830.952,450L830.952,383.333" style="fill:none;fill-rule:nonzero;stroke:rgb(0,128,248);stroke-width:1px;"/>
    </g>
    <g>
        <path d="M521.429,430.952L521.429,497.619L516.667,497.619L516.667,430.952L511.905,430.952L511.905,497.619L507.143,497.619L507.143,430.952L502.381,430.952L502.381,497.619L497.619,497.619L497.619,454.762L492.857,454.762L492.857,497.619L488.095,497.619L488.095,454.762L483.333,454.762L483.333,497.619L478.571,497.619L478.571,454.762" style="fill:none;fill-rule:nonzero;stroke:rgb(0,128,248);stroke-width:1px;"/>
    </g>
    <g>
        <path d="M478.571,645.238L478.571,692.857L454.762,692.857L454.762,759.524L459.524,759.524L459.524,697.619L464.286,697.619L464.286,759.524L469.048,759.524L469.048,697.619L473.81,697.619L473.81,759.524L478.571,759.524L478.571,783.333L483.333,783.333L483.333,754.762L478.571,754.762L478.571,697.619L483.333,697.619L483.333,750L488.095,750L488.095,783.333L492.857,783.333L492.857,745.238L488.095,745.238L488.095,692.857L483.333,692.857L483.333,645.238L488.095,645.238L488.095,688.095L492.857,688.095L492.857,740.476L497.619,740.476L497.619,783.333L502.381,783.333L502.381,735.714L497.619,735.714L497.619,683.333L492.857,683.333L492.857,645.238L497.619,645.238L497.619,678.571L502.381,678.571L502.381,730.952L507.143,730.952L507.143,783.333L511.905,783.333L511.905,726.19L507.143,726.19L507.143,673.81L502.381,673.81L502.381,669.048L511.905,669.048L511.905,721.429L516.667,721.429L516.667,783.333L521.429,783.333L521.429,716.667L516.667,716.667L516.667,669.048L521.429,669.048L521.429,711.905L526.19,716.667L526.19,759.524L530.952,759.524L530.952,716.667L535.714,716.667L535.714,759.524L540.476,759.524L540.476,716.667L545.238,716.667L545.238,759.524" style="fill:none;fill-rule:nonzero;stroke:rgb(0,128,248);stroke-width:1px;"/>
    </g>
    <g>
        <path d="M550,788.095L550,811.905L526.19,811.905L526.19,835.714L502.381,835.714L502.381,854.762L507.143,854.762L507.143,840.476L511.905,840.476L511.905,854.762L516.667,854.762L516.667,840.476L521.429,840.476L521.429,854.762L526.19,854.762L526.19,878.571L530.952,878.571L530.952,850L526.19,850L526.19,840.476L530.952,840.476L530.952,845.238L535.714,845.238L535.714,878.571L540.476,878.571L540.476,840.476L535.714,840.476L535.714,835.714L530.952,835.714L530.952,816.667L535.714,816.667L535.714,830.952L540.476,830.952L540.476,835.714L545.238,835.714L545.238,878.571L550,878.571L550,830.952L545.238,830.952L545.238,826.19L540.476,826.19L540.476,816.667L545.238,816.667L545.238,821.429L550,821.429L550,826.19L554.762,826.19L554.762,878.571L559.524,878.571L559.524,821.429L554.762,821.429L554.762,816.667L550,816.667L554.762,811.905L554.762,788.095L559.524,788.095L559.524,816.667L564.286,816.667L564.286,878.571L569.048,878.571L569.048,811.905L564.286,811.905L564.286,788.095L569.048,788.095L569.048,807.143L573.81,811.905L573.81,878.571L578.571,878.571L578.571,811.905L583.333,811.905L583.333,878.571L588.095,878.571L588.095,811.905L592.857,811.905L592.857,878.571" style="fill:none;fill-rule:nonzero;stroke:rgb(0,128,248);stroke-width:1px;"/>
    </g>
    <g>
        <path d="M616.667,811.905L616.667,835.714L640.476,835.714L640.476,854.762L635.714,854.762L635.714,840.476L630.952,840.476L630.952,854.762L626.19,854.762L626.19,840.476L621.429,840.476L621.429,854.762L616.667,854.762L616.667,840.476L611.905,840.476L611.905,811.905L607.143,811.905L607.143,845.238L611.905,845.238L611.905,854.762L607.143,854.762L607.143,850L602.381,850L602.381,811.905L597.619,811.905L597.619,854.762L602.381,854.762" style="fill:none;fill-rule:nonzero;stroke:rgb(0,128,248);stroke-width:1px;"/>
    </g>
    <g>
        <path d="M688.095,235.714L669.048,235.714L669.048,216.667L673.81,216.667L673.81,230.952L678.571,230.952L678.571,216.667L683.333,216.667L683.333,230.952L688.095,230.952L688.095,216.667" style="fill:none;fill-rule:nonzero;stroke:rgb(25,24,24);stroke-width:1px;"/>
    </g>
    <g>
        <path d="M688.095,259.524L669.048,259.524L669.048,240.476L673.81,240.476L673.81,254.762L678.571,254.762L678.571,240.476L683.333,240.476L683.333,254.762L688.095,254.762L688.095,240.476" style="fill:none;fill-rule:nonzero;stroke:rgb(240,64,17);stroke-width:1px;"/>
    </g>
    <g>
        <path d="M711.905,259.524L692.857,259.524L692.857,240.476L697.619,240.476L697.619,254.762L702.381,254.762L702.381,240.476L707.143,240.476L707.143,254.762L711.905,254.762L711.905,240.476" style="fill:none;fill-rule:nonzero;stroke:rgb(67,31,23);stroke-width:1px;"/>
    </g>
</svg>
